<svg xmlns="http://www.w3.org/2000/svg" viewBox="0 0 37.88 59.06"><defs><style>.cls-1{fill:#44e78e;stroke:#000;stroke-miterlimit:10;stroke-width:2px;}</style></defs><g id="Layer_2" data-name="Layer 2"><g id="Layer_1-2" data-name="Layer 1"><path class="cls-1" d="M21.2,58.05h-5a2.85,2.85,0,0,1-2.95-2.72V51.54a29,29,0,0,1-10.84-3,2.57,2.57,0,0,1-1.26-1.45,2.63,2.63,0,0,1,.07-1.93l1.92-4.22A2.91,2.91,0,0,1,3.87,40a3,3,0,0,1,1-.58,3.22,3.22,0,0,1,2.4.21A22.78,22.78,0,0,0,17.36,42c3.81,0,6.58-1.44,6.58-3.44,0-.86,0-2.66-7.06-4.9C9.37,31.33,1.67,27.88,1.67,20.19c0-6,4.67-10.67,12.1-12.36V3.72A2.91,2.91,0,0,1,14,2.64a3,3,0,0,1,.66-.9,2.82,2.82,0,0,1,1-.58A2.94,2.94,0,0,1,16.77,1h5a3,3,0,0,1,1.11.16,2.69,2.69,0,0,1,1,.58,2.83,2.83,0,0,1,.67.9,2.72,2.72,0,0,1,.26,1.08V7.28a27.46,27.46,0,0,1,8.78,2.3,2.65,2.65,0,0,1,.88.6,2.52,2.52,0,0,1,.57.89,2.62,2.62,0,0,1,.18,1,2.6,2.6,0,0,1-.25,1l-2,4.15a2.86,2.86,0,0,1-1.69,1.45A3.18,3.18,0,0,1,29,18.62,20.31,20.31,0,0,0,20,16.75c-4.09,0-5.54,1.45-5.54,2.69s.6,2.2,8,4.59c6.69,2.15,14.39,5.68,14.39,14.07,0,5.2-3.94,11-12.66,12.94v4.29a2.81,2.81,0,0,1-1.9,2.57,2.67,2.67,0,0,1-1.12.15Z"/></g></g></svg>