<?xml version="1.0" encoding="utf-8"?>
<!-- Generator: Adobe Illustrator 26.3.1, SVG Export Plug-In . SVG Version: 6.00 Build 0)  -->
<svg version="1.1" id="Layer_1" xmlns="http://www.w3.org/2000/svg" xmlns:xlink="http://www.w3.org/1999/xlink" x="0px" y="0px"
	 viewBox="0 0 516 249.3" style="enable-background:new 0 0 516 249.3;" xml:space="preserve">
<style type="text/css">
	.st0{fill:#FEFCFB;}
	.st1{fill:#363D47;}
	.st2{fill:#FFFFFF;}
	.st3{fill:#FFFCFC;}
	.st4{fill:#3B3F47;}
	.st5{fill:#373D46;}
	.st6{fill:#FCFBFB;}
	.st7{fill:#363D46;}
	.st8{fill:#373C45;}
	.st9{fill:#FCFBFA;}
	.st10{fill:#393D43;}
	.st11{fill:#F9F8F9;}
	.st12{fill:#818284;}
	.st13{fill:#3B4048;}
	.st14{fill:#818182;}
	.st15{fill:#78787A;}
	.st16{fill:#7C7C7D;}
	.st17{fill:#7B7B7C;}
	.st18{fill:#767677;}
	.st19{fill:#848484;}
	.st20{fill:#848385;}
	.st21{fill:#767576;}
	.st22{fill:#848485;}
	.st23{fill:#828183;}
	.st24{fill:#808080;}
	.st25{fill:#76565B;}
	.st26{fill:#616264;}
	.st27{fill:#757576;}
	.st28{fill:#7D7C7C;}
	.st29{fill:#8E8E8E;}
	.st30{fill:#7E7D7F;}
	.st31{fill:#815864;}
	.st32{fill:#858485;}
	.st33{fill:#787878;}
	.st34{fill:#7B7A7B;}
	.st35{fill:#7D7779;}
	.st36{fill:#706F6F;}
	.st37{fill:#7B7A7A;}
	.st38{fill:#808181;}
	.st39{fill:#787676;}
	.st40{fill:#797A7A;}
	.st41{fill:#959596;}
	.st42{fill:#7B7A7C;}
	.st43{fill:#7A797B;}
	.st44{fill:#767172;}
	.st45{fill:#9C9C9C;}
	.st46{fill:#97989A;}
	.st47{fill:#777777;}
	.st48{fill:#7A797D;}
	.st49{fill:#6D6D70;}
	.st50{fill:#787778;}
	.st51{fill:#6B6B70;}
	.st52{fill:#666364;}
	.st53{fill:#797978;}
	.st54{fill:#FDFCFB;}
	.st55{fill:#373D45;}
	.st56{fill:#7D7C7E;}
	.st57{fill:#7C7C7C;}
	.st58{fill:#858486;}
	.st59{fill:#818080;}
	.st60{fill:#818181;}
	.st61{fill:#828284;}
	.st62{fill:#F1F1F2;}
	.st63{fill:#7B797F;}
	.st64{fill:#3B3F46;}
	.st65{fill:#7F7E7F;}
	.st66{fill:#929090;}
	.st67{fill:#7F7E7E;}
	.st68{fill:#777575;}
	.st69{fill:#F1F2F3;}
	.st70{fill:#FAF9FA;}
	.st71{fill:#877B7E;}
	.st72{fill:#825E64;}
	.st73{fill:#F7F4F5;}
	.st74{fill:#393F44;}
	.st75{fill:#7B6F72;}
	.st76{fill:#767577;}
	.st77{fill:#787979;}
	.st78{fill:#42454A;}
	.st79{fill:#3B3E44;}
	.st80{fill:#7A797A;}
	.st81{fill:#7C7B7C;}
	.st82{fill:#717275;}
	.st83{fill:#6D6D6E;}
	.st84{fill:#3F4044;}
	.st85{fill:#807D7F;}
	.st86{fill:#505052;}
	.st87{fill:#4B4E52;}
	.st88{fill:#717072;}
	.st89{fill:#707476;}
	.st90{fill:#79797C;}
	.st91{fill:#858586;}
	.st92{fill:#77797A;}
	.st93{fill:#8D8C8D;}
	.st94{fill:#777677;}
	.st95{fill:#7E7D7E;}
	.st96{fill:#757475;}
	.st97{fill:#FBFAFA;}
	.st98{fill:#8E656D;}
	.st99{fill:#F5F4F4;}
	.st100{fill:#847F84;}
	.st101{fill:#828083;}
	.st102{fill:#888180;}
	.st103{fill:#6B6F6F;}
	.st104{fill:#825B65;}
	.st105{fill:#79787A;}
	.st106{fill:#5C565C;}
	.st107{fill:#F8F8F8;}
	.st108{fill:#F0EAEC;}
	.st109{fill:#F8F6F7;}
	.st110{fill:#7C7A7B;}
	.st111{fill:#F4F4F4;}
	.st112{fill:#F8F7F8;}
	.st113{fill:#707172;}
	.st114{fill:#555758;}
	.st115{fill:#6B6D6E;}
	.st116{fill:#E8E6E7;}
	.st117{fill:#3D4049;}
	.st118{fill:#5A5B60;}
	.st119{fill:#EEEDEF;}
	.st120{fill:#717277;}
	.st121{fill:#E7E8EA;}
	.st122{fill:#7D7D81;}
	.st123{fill:#8F9192;}
	.st124{fill:#916C77;}
	.st125{fill:#F1EEEF;}
	.st126{fill:#F3EFF0;}
	.st127{fill:#EFEFF1;}
	.st128{fill:#3C4149;}
	.st129{fill:#788083;}
	.st130{fill:#807E80;}
	.st131{fill:#3B3F47;stroke:#3B3F47;stroke-width:0.6553;stroke-miterlimit:10;}
	.st132{fill:#444745;}
	.st133{fill:#EEECED;}
	.st134{fill:#3B3E43;}
	.st135{fill:#404247;}
	.st136{fill:#747172;}
	.st137{fill:#FDFBFB;}
	.st138{fill:#797477;}
	.st139{fill:#3F3C44;}
	.st140{fill:#7F7D80;}
	.st141{fill:#979497;}
	.st142{fill:#906A72;}
	.st143{fill:#747475;}
	.st144{fill:#686769;}
	.st145{fill:#3D4044;}
	.st146{fill:#8C8C8E;}
	.st147{fill:#F3F2F2;}
	.st148{fill:#8E8D8E;}
	.st149{fill:#828386;}
	.st150{fill:#3A4143;}
	.st151{fill:#575357;}
	.st152{fill:#494B4E;}
	.st153{fill:#777779;}
	.st154{fill:#DCDEE3;}
	.st155{fill:#4A484D;}
	.st156{fill:#777675;}
	.st157{fill:#747579;}
	.st158{fill:#EFEFF0;}
	.st159{fill:#7D797B;}
</style>
<path class="st0" d="M285.6,249.3v-1c3.2-2.3,3.3-6.1,4-9.6c2.9-14-3.6-28.4,2.6-41.2c0.7-1.4,1.1-3,2.1-4.1
	c1.7-1.8,0.6-3.1-0.4-4.6c-1-7.6,0-15.1,0.7-22.6c0.7-3.7,3.5-3.3,5.9-3.4c2.5-0.1,4.3-0.3,6.3-2.9c2.7-3.6,6.9-2.1,10.4-0.1
	c0.9,0.7,1.8,1.4,2.5,2.4c0.8,2.3,2.9,3.4,4.4,5c0.4,0.5,0.8,1,1.1,1.5c1.4,2.4,3.2,4.2,5.2,6c0.8,0.7,1.3,1.6,1.9,2.5
	c3.7,5.2,7.9,9.7,12.7,13.7c0.9,0.6,1.8,1.3,2.5,2.2c1.2,2,1.9,3.7-1.4,3.7c-0.7,0.2-1.4,0.6-2.1,0.7c-6,0.2-12,0-18,0.1
	c-1.8,0.1-3.6,0-5.4-0.4c-4.7-1.9-9.5-2.5-14.5-2.5c-3.4-1-4.9,0.6-6,4.1c-4.3,14.1-5.9,28.7-8.1,43.2c-0.4,2.8,0.6,4.2,3.2,4.2
	c0.6,0,1.2,0,1.8,0c6,0.1,6.3-0.2,6.2-6.5c-0.2-13.2,0.8-26.2,2.6-39.2c0.3-2,0.4-4.1,2.1-5.5c3.8,0.3,7.8-0.2,11.1,2.5
	c1.5,10.3,0.9,20.7,0.4,31c-0.3,6.7-1.2,13.4-1,20.1C304.3,248.7,300,249.3,285.6,249.3L285.6,249.3z"/>
<path class="st1" d="M321.1,196.1c1.7,0.1,3.4,0.2,5.1,0.3c1.9,1.3,5-1.2,6.2,2.4c2.2,14.9,1.1,29.8,1.2,44.7c0,3.2-1.2,5-4.5,4.6
	c-1-0.1-2-0.3-3,0.5h-7c-1.3-1.6-1.9-3.2-1.7-5.5c1.7-15.2,1.9-30.4,1.5-45.6C319,195.6,320,195.7,321.1,196.1z"/>
<path class="st0" d="M325.7,248.7c0.2-0.4,0.4-1.1,0.5-1c6,1.2,5.8-3,5.9-7.5c0.4-14-0.2-27.9-1.2-41.9c2.4-1.3,4.8-1,7.3-0.3
	c3.2,4.3,2.6,9.6,2.8,14.5c0.3,9.3,0.1,18.7,0.1,28c0,5.6-0.7,3.6,4.5,3.8c2.7,0.1-0.2,2.4,2.2,4.5v1
	C338.2,249.6,335.3,248.7,325.7,248.7L325.7,248.7z"/>
<path class="st2" d="M499.3,248.4l-0.1,1.2c-33.7,0-76.1-0.9-109.8-0.9l0-1.1c-0.2-0.6,0-1.1,0.5-1.4c2.2-1,9.3-0.6,11.6-0.7
	c2.4,0,4.7,0,7,0c6.2,0,12.5-0.2,18.7,0c0.8,0,1.6,0,2.5,0c20-0.3,44.1,0.9,64.1,0.9c1.6,0,3.2-0.2,4.7,0.6
	C499.1,247.2,499.3,247.7,499.3,248.4L499.3,248.4z"/>
<path class="st1" d="M330.8,196.9c1.7,0.1,3.4,0.2,5.1,0.3c1.9,1.3,5-1.2,6.2,2.4c2.2,14.9,1.1,29.8,1.2,44.7c0,3.2-1.2,5-4.5,4.6
	c-1-0.1-2-0.3-3,0.5h-7c-1.3-1.6-1.9-3.2-1.7-5.5c1.7-15.2,1.9-30.4,1.5-45.6C328.7,196.4,329.6,196.5,330.8,196.9L330.8,196.9z"/>
<path class="st1" d="M307.1,195.4c1.7,0.1,3.4,0.2,5.1,0.3c1.9,1.3,5-1.2,6.2,2.4c2.2,14.9,1.1,29.8,1.2,44.7c0,3.2-1.2,5-4.5,4.6
	c-1-0.1-2-0.3-3,0.5h-7c-1.3-1.6-1.9-3.2-1.7-5.5c1.7-15.2,1.9-30.4,1.5-45.6C305.1,194.9,306,195,307.1,195.4L307.1,195.4z"/>
<path class="st1" d="M294.6,188.7c1.6,0.7,3.2,1.4,4.8,2.1c1.3,2.1,5.2,0.5,5,4.8c-3.1,17.2-9.5,33.3-14.5,49.8
	c-1.1,3.6,7.1,5.8,4.2,4.1c-0.9-0.5-1.8-1-3-0.5l-6.6-2.5c-0.7-2.2-0.7-4.2,0.4-6.7c7-16.1,2.5-33.5,7.4-50.4
	C292.8,187.4,293.6,187.9,294.6,188.7L294.6,188.7z"/>
<path class="st1" d="M341.9,195.8c1.7-0.4,3.3-0.9,5-1.3c2.2,0.7,4.5-2.6,6.6,0.4c6,13.6,2.9,31.4,6.9,45.7c0.9,3.1,0.1,5.2-3.1,5.7
	c-1,0.2-2,0.4-2.7,1.3c-2.2,0.7,0.3-3.8-1.9-3.1c-1.6-1.1-1.7-0.3-2-2.7c-2.2-15.1-6-29.8-10.3-44.3
	C339.8,195.9,340.8,195.8,341.9,195.8L341.9,195.8z"/>
<path class="st1" d="M403,74.7c-3.4-10.4,5.3-15.7,7.7-17.8l0,0c2.8-3.5,0.5-11.3-0.2-15.9c-1.9-12.5,13.7-11.3,14.3-14.8
	c1.5-8,5.7-10.7,13-8.3c2.2,0.7,3.3-0.4,4.6-1.7c6.7-6.7,14.9-6.8,21.4,0.2c4.2,4.5,8.9,6.9,14.8,7c3.3,0.1,6.2,1.5,9.3,2.6
	c1.1,1,2.3,1.9,3.4,3c4.8,4.7,6.1,10.4,3.9,16.6c-1.7,4.7-2.1,9,2.5,12.4c1.6,1.2,2.9,3.1,4.1,4.9c3.6,5.2,3.6,9.3-0.3,14.1
	c-2.5,3.1-3.2,5.9-2.1,9.9c1.5,5.6-0.3,8.8-5.9,11.8c-0.5,1.2-1.4,1.8-2.6,1.9c-2.4,0-4.2-1.6-6.3-2.5c-3.3-1.4-6.1-5.5-10.4-3.3
	c-0.6,0.1-1.3,0.1-1.9,0c-1.9-0.5-3.8-1.1-5.6-2c-0.4-0.2-0.7-0.6-1-1c-1-3.2-1.5-6.5-1.9-9.8c0-1.2,0.8-2.1,1.4-3.1
	c2.3-3.1,3.9-6.6,5.9-10c0.6-0.6,1.3-1.1,2-1.5c1.3-0.8,2.5-1.8,2.9-3.4c0.6-2.3,1.5-4.9-2.3-4.8c-1.2,0-2.2-0.6-2.6-2
	c0.1-2.3,1.4-4.2,1.6-6.4c0.6-5-3.2-9.7-7.9-9.9c-3.8-0.2-7.5,1.4-11.3,0.9c-4.9-0.8-9.2-2.6-11.3-8.1c-0.9-2.5-2.1-2.1-3.5-0.4
	c-1.5,1.9-2.1,4.1-2.4,6.4c-3.4,4.5-2.7,9.9-2.8,15.1c-1.4,2.5-3.6-0.1-5.2,1.2c-0.7,2.3,0.3,4.3,1,6.3c2.8-1.1,3.7,0.2,4.1,3.1
	c0.7,4.3,1.9,8.5,3.2,12.6c0.3,1.1,0.6,2.2,0.8,3.4c0.1,1.2,0.1,2.4-0.3,3.6c-0.3,0.7-3,17.6-3.9,17.4c-8.3-1.8-11.5,7-14-2.9
	c-7.5,0-10.1-6.6-10-11.4c0-3.6-1.6-6.9-4.2-9.1C402.6,77.1,403.2,75.2,403,74.7C402.7,73.8,403.3,75.7,403,74.7L403,74.7z"/>
<path class="st3" d="M382.8,143.2l-2.4,1.9c-2.1,1.3-4.4,1.8-6.8,2.4c-3.2,0.9-6.4,2-9.8,1.8c-3.1-0.2-4.5,1.3-4.6,4.7
	c0,2.3-1,4.6-0.8,7c-0.6,3.3-0.5,6.9-2.6,9.7c-0.4,0.3-0.8,0.4-1.2,0.4c-3.8-2.1-6.8-5.6-10.9-7.1c-2.5-1.5-5-2.9-7.2-4.9
	c-3.4-3-7.1-5.5-11.2-7.4c-1.8-0.8-2.8-2.5-3.8-4.2c-1.8-2.6-4.3-4.3-6.2-6.7c-1-1.2-2.2-2.2-3-3.6c-1.4-3.1-0.1-6.2,0.4-9.2
	c0.5-3.2,0.5-6.6,1.5-9.7c3-1.6,5.6,0.9,8.4,1.2c8.2,0.9,15.9-0.5,23-5c3.3-2.6,6-5.7,8.6-9.1c-2.5,2.2,0.2,1,3.7-3.2
	c0.5-0.6,1.6-1.3,1.9-0.7c1.5,2.9,4.7,0.5,5.5,1.4c2.4,3,7.1-0.2,8.6,4.3c0.1,0.9,0.3,1.8,0.4,2.7c2.7,2.5,3.1,6.2,4.2,9.6
	c2,6,3.4,12.3,5.3,18.3C384.4,139.7,385,141.8,382.8,143.2L382.8,143.2z"/>
<path class="st4" d="M397.5,203.6c1.1,0.7,0.5,2,0.5,2c4.4,1.7,37.4,6,42.2,5.8c2.9-0.1,5.8,0.2,8.1,2.5c1.6,6.5,0.3,13.2,0.8,19.8
	c0.2,2.4-11.7-27,2.5-21.1c16.4-3.9,0.8,23.6,0.9,21.3c0.2-5.1-0.1-10.3,0.1-15.4c0.1-3.3,6.9-5.2,9.9-5.3
	c6.4-0.3,16.9,1.3,23.3,0.4c0.7-0.1,1.4,0.3,2,0.8c3.1,2.3,0.7,4.9,2.5,8.3c3,6.1,6.1,12.2,7.9,19c0,2.1,2.7,3.7,0.8,6.1
	c-21.8-0.1-47.7-1-69.5-1.1c-0.5-1.2,0.6-1.3,1.1-1.9c-1.4,0-2.3,1-3.2,2l-19.2,0.1c-2.2-1.5-4.5-1.3-6.8-0.2
	c-2.3,0.1-9.4,0.1-11.7,0.2c-1.7-3.6,1.2-6.3,1.5-9.5l0,0.1c2.3-5.6,2.8-10.7,6.2-15.6c1-1.4,0.9-3.5,2.3-4.4c0,0,0,0,0,0
	c0.8-0.3,1-0.5,1.8-0.2c2.2,1-1.5,3.8-2.5,0.8C398.8,217.1,394.7,215.1,397.5,203.6L397.5,203.6"/>
<path class="st5" d="M290.4,191.7c0.9-0.9,1.6-2,2.8-2.4c0.7-0.2,1.3-0.1,1.8,0.5c1.3,0.9,2.8,1,1,3.7c-7,10.9-0.1,24.3-3.2,36.9
	c-1.2,4.7-2.5,9.4-3.1,14.3c-0.4,2.9-1.7,3.6-3.9,3.6c-7-0.7-7.2-0.7-5-8.4c2.2-7.9-5-24.2,8.7-44.7"/>
<path class="st5" d="M277.4,155.2c1.4,2.2,0.2,4.3-0.2,6.3c-1,4.1-1.5,8.3-1.2,12.6c0.2,2.9,0.9,5.7,3.6,7c2.5,1.1,4.4-0.5,6.3-2.1"
	/>
<path class="st5" d="M244.9,221.4c-1.3-6.9-2.5-13.8-3.8-20.7c-0.5-2.5-1.9-4.9,0.6-7.2c1.4-1.2,0.6-3.2-0.7-4.3
	c-4.3-3.5,3.6-5.8,0.6-9c-1.9-2-5.1-2.4-4.4-7.4"/>
<path class="st0" d="M48.1,212.3l-1.7-2.2c-4.9-4-5.6-4.7-11-7.8c-3.7-2.2-7.6-3.9-11.2-6.3l0.1,0.1c-2.5-2-5.5-2.9-8-4.8l0.1,0.1
	c-4.6-2.9-9.4-5.5-13.2-9.6l0.1,0.1c-1.4-1.9-1.5-3.7-0.6-6.1c1.6-4.5,3.7-8.8,5.9-13l0,0.1c1.5-2,2.1-4.6,3.6-6.7l0,0.1
	c1.8-4.3,5.3-7.6,6.3-12.5c0.4-1.3,1.2-2.3,2-3.3c1.9-2.5,4-1.5,6.1-0.3c1.5,0.8,2.7,2.1,3.9,3.3c2.7,3.3,6.3,5.3,9.6,7.7
	c2.3,1.6-3.3,14.7-4.5,17.5c-1.5,4.5,1.4-3.9-1-0.2c-3.4,2.3-7.1,0.9-10.5,1.1c2.8,0.5,4.7,3.2,7.3,4.5c2.3,1.2,3.8,3.3,5.6,5.2
	c1.9,2.1,3.7,4.4,6.1,6c0.5,0.4-4.1-0.7-3.7-0.3c2.7,2.9,6.8,8.3,9.3,11.4c2.1,2.5,2.7,0.5,5.4-1.4c1.7-1.2,3.7-1.9,5.6-2.5
	c5.3-1.7,10-1,14.3,3c0.4,0.2,0.7,0.5,1,0.8c1.6,1.7,2.9,3.6,1,5.7c-2.3,2.6-4.2-0.6-6-0.8c0.6,0.6,1.8,1,2.9,1.5
	c1.5,0.8,2.6,1.8,1.6,3.6c-0.8,1.6-2.3,2.5-4.1,1.5c-1.5-0.9-3-1.4-4.3-2.1c-0.3,0.2-0.1,0.1-0.1,0.1c1.7,1.3,5.7,1,4.6,4.2
	c-1.2,3.5-4.2,1.2-6.4,0.4c-0.4-0.1-0.9-0.1-1.2-0.4c0,0-0.1,0.1,0,0.1c2.3,1.2,6.6,0.9,3.8,6c-2.1,2-3.8,0.4-5.6-0.6
	c-2-1.1-4,0-6,0.2C52.5,215.7,49.4,216.3,48.1,212.3L48.1,212.3z"/>
<path class="st6" d="M102.8,57.8C102.3,58.5,103.3,57.1,102.8,57.8c-0.7,3.2-5.6,10.1-6.7,13C92,75.8,82,75,76.5,70.9
	c-1.7-1.3-3.4-2.5-4.3-3.7C78.3,73.6,86.3,77,95,79c1.7,1.2,1.6,2.9,0.8,4.6c-0.7,1.7-1.5,3.5-2.2,5.2c-2.1,4.1-12.2,7.2-14.3,11.3
	c-0.5,1-1.1,2-1.8,2.8c-2.6,3.1-3.6,3.1-5.9-0.2c-1.2-1.7-2.3-3.5-3.7-5c-4.1-4.7,0.6-9.2-3.1-14.3c-3.4-3.8-0.1-8.2-0.8-12.2
	c0-5,0.5-10.1-0.5-15.1c-0.6-5.3-1.2-10.7-4-15.3c-0.3-0.5-0.5-1.2-0.7-1.9c-1.1-4,0-8.4,2.6-9.2c3.5-1.1,5.1,1.7,6.5,4.6
	c0.3,0.7,0.5,1.6,1.5,2.3c2.6-2.5,3.6-6.2,4.8-9.7c2.1-6.2,2.5-6.3,8.5-6.1c6.3,0.2,12.7,1.7,18.9-1c2.7-1.2,3.9,1,4.7,3.8
	c1,3.8-0.5,7.2-1,10.8c1.3,3.1-1.7,3-2.7,4.5c0.6,1.5,2.8,1.3,2.6,3.5c-0.1,0.5-0.2,1-0.4,1.4C103.4,49.2,104.9,52.7,102.8,57.8
	L102.8,57.8z"/>
<path class="st1" d="M108,53.7l0.3-0.9c-0.4-2.4,1.1-4.6,0.5-7c-0.2-0.2-0.5-0.4-0.7-0.6c-0.8-1.1-3.2-0.7-2.9-2.5
	c0.5-2.4,2.5-0.2,3.9-0.9c0-0.7,0.1-1.6,0-2.4c-0.2-2.7,0.4-5.9-1.1-7.8c-1.8-2.1-3.8,1-5.9,1.2c-5.9,0.5-11.8,0.5-17.7-0.4
	c-2.8-0.4-4.3,0.4-5.1,3.7c-0.9,4.2-2.6,8.1-4.6,11.9c-0.5,1-0.9,2.4-2.1,2.2c-1.2-0.2-1.3-1.6-1.5-2.7c-0.4-3-1.3-5.5-4.1-6.6
	c-1.3-0.5-2.3,0.3-3,1.5c-1.6,2.9-1.3,6.2,0.3,8.5c3.1,4.5,3,9.6,3.4,14.7c-1,0.7-1.2-0.2-1.6-0.9c-1.6-6.3-3.9-12.1-7.8-17.1
	c-3.7-4.8-2.8-11.3,2.2-15.4c2.5-2,3.4-3.5,2.4-7.2c-1.8-6.2,1.9-11.8,8.1-11.8c6.3,0,11.9-1.8,17.3-4.9c3.2-1.8,6.6-1.7,9.8,0.2
	c3.9,2.3,8,3.1,12.4,3.3c8.2,0.3,11.6,7,7.6,15.1c-1.4,2.8-0.8,5,0.3,7.5c1.4,3.5,1.8,6.9-2.1,8.8c-1.7,0.8-2.1,2.5-1.9,4.1
	c0.7,5.6-1.7,7.6-6.3,7.5c-0.3-0.2-0.4-0.5-0.4-0.8C107.8,53.9,107.9,53.7,108,53.7L108,53.7z"/>
<path class="st7" d="M497.7,151.9c0.6-0.7-4.5,8-3.7,7.7C497.1,158.5,498.3,155.2,497.7,151.9c-1.2-6.8,4-23,3.3-29.9
	c-0.4-3.8-2.6,1.3-1.2-2.4c0.3-0.5-2-6.8-1.5-6.5c-0.1,1,0.7,6,1.5,6.5c0,0-3.3-9.5,0,0"/>
<path class="st7" d="M495.6,159.2c-2.1-0.5-0.2,11.4-2.4,12c-0.1-0.2-0.2-0.4-0.4-0.6C492.6,166.4,494.3,162.8,495.6,159.2
	c2-5.7-2.6,13.8-1.7,7.9"/>
<path class="st4" d="M304.2,40.5c0.4-0.8,0.8-1.7,1.2-2.5c8.1-11.2,23.2-13.7,36.1-6l0,0c8.6,3.7,13.7,24.7,11,33
	c-0.4,1.4-2.7,7.4-4,8c-0.4,0.1-0.1-4.8-0.4-5.1c-4.6-3.6-4.5-3.3-7.7,1.8c-0.3,0.3-0.6,0.6-1,0.7c-3.9-0.1-6.8-2.7-10.1-4.5
	c-0.4-0.2-0.7-0.5-1-0.8c-2.6-1.8-0.8-1.9-8.7-11.4c-0.2,0.8,1.7,6.7,1.8,7.6c0.2,2.2,0.5-0.2-1.8,1.3c-2.6,1.6-5.3,0.9-7.4-1.8
	c-0.2-0.4-0.4-0.8-0.6-1.2c-0.4-1.8-0.6-3.7-1.1-5.5c-1.5,3.2,1.7,8.3-3.2,9.9c-2.1,0.7-4.7,1.2-5.9-2.1
	C299.9,54.5,300.2,47.2,304.2,40.5L304.2,40.5z"/>
<path class="st1" d="M175.3,33.2c-5.8,1.7-7.3,5.4-3.4-8.9c1.3-4.7-0.1-2.1,2.4-3.4c2-1.1,7-1.1,7.3-3.9c0.4-3.8-2.1-5.1,5.6-4.3
	c2.9,0.3,2.1,0.2,5-0.7c7.5-2.5-1.8-8.2,11.6-2.4c2.2,1-0.6,4.7,3.6,3.6c15.8-4.1,6.4-9.9,17,6.6c0.1,1.7-5,1.7-4.3,3.1
	c2.7,5.1,7.9-5.2,1.6,10.4c-0.7,1.8-2.8,0.6-2.4,2.7c-0.4,0.3-0.7,0.3-1.1,0.1c-2.2-2.7-2.8,1.1-4.7,1.2c-9.1,0.8,3.4,12.9-9.2,4.3
	c-4-3.1-8.1-5.3-13.1-2.8c-17.2,9.2-5,1.5-7.6,0.3c-0.4-0.2-0.8-0.4-1.1-0.6c-1.6-2.2-3.5-4-6.2-4.5C176,33.6,175.6,33.4,175.3,33.2
	L175.3,33.2z"/>
<path class="st8" d="M121.2,232.2c0.4,4.1,0.6,8.2,1.3,12.2c0.6,3.5-0.1,4.6-3.6,4.6c-24.4-0.2-34.7-1.5-59.1-1.5
	c-3.2,0-6.4-0.1-9.6,0c-2.4,0.1-3-0.8-2.7-3.3c0.7-5.2,1.2-10.3,1.9-15.5c0.2-1.4,0-2.5-0.5-3.6c0.2-0.1,0.4-0.2,0.6-0.3
	c4.6,2.4,8.1,6.6,12.8,8.9c9.5,4.7,19.1,9.3,29.8,8c13-1.6,11.7-3,23.7-8.7c1.3-0.6,2.6-1.5,4.1-1.4
	C120.5,231.5,120.9,231.7,121.2,232.2L121.2,232.2z"/>
<path class="st5" d="M347.9,248.6c-3.8-0.1-0.8-1.3-4.6-1.1c-2.8,0.1-3.7-0.6-3.6-3.9c0.6-15.1,0.3-30.3-1-45.4
	c1.6-2.7,4.4-0.3,6.3-1.5c0.6,0,1.1,0,1.7,0v0.6c1.9,5.7,4,11.4,5.8,17.1c2.9,9.3-2,19.7-0.9,29.4C352,247.4,351.4,249,347.9,248.6
	L347.9,248.6z"/>
<path class="st9" d="M288.8,177.4c-0.1,0-0.3,0-0.4,0.1c-2.4,3.2-5,6.9-9.3,5.1c-4.4-1.8-4.3-6.5-4.6-10.8
	c-0.3-5.8,1.8-11.1,2.8-16.6l0-0.1c1.3-4.4,2.8-8.8,4.5-13.1c0.9-2,1.7-3.9,2.6-5.9c0.9-1.8,0.7-5.6,4-2.3c0.8,2,0.7,4,0.4,6.1
	c0.5,1.2-2.6,1-0.9,2.7c1.2,3.5,0.1,7.1,0.2,10.6c0.2,6.9,0.1,6.9,5.9,9.5c1,1,0.9,2.2,0.8,3.4c-0.1,0.9-0.4,1.8-0.8,2.7
	c-0.3,0.8-0.7,1.6-1.2,2.3c-1.5,1.7-2.1,4-3.5,5.9C289.2,177.1,289,177.3,288.8,177.4L288.8,177.4z"/>
<path class="st4" d="M181.7,225.8c-0.7-6.9-0.5-14-1.8-20.9c-1.6-2.5-1.7-4.9-0.1-7.4c6.9,0.4,13.9,0.2,20.9,0.4
	c1.4,0,2.9,0.1,3.9,1.6c-3.1,3.4-7.5,2.1-11.2,3.4c-0.8,0.3-1.7,0-2.6,0.1c-1.1,0.2-2.1,0.7-2.1,2c0,1.6,1.4,1.5,2.3,1.4
	c6.2-0.8,12,2.6,18.2,2.1c1.2-0.1,3.4-0.3,3.1,2.5c-4.2,1.9-8.6,1.1-12.9,0.5c-4.2-0.6-8.4-0.5-12.7-0.4c-1.3,0-2.8,0-3.1,1.8
	c-0.3,2.1,1.2,2.8,2.6,3.1c4.7,1,9.5,1.3,14.3,1.7c4.2,0.4,8.4,0.9,12.6,1.6c0.8,0.3,1.7,0.5,2.6,0.5c6.6,0.4,6.9,0.9,5.5,8.3
	c-1.3,1-2.7,1.1-4.2,1c-11.2-1-22.5-1.5-33.7-2.3C182.6,226.6,182.2,226.2,181.7,225.8L181.7,225.8z"/>
<path class="st4" d="M181.7,233c-0.7-6.9-0.5-14-1.8-20.9c-1.6-2.5-1.7-4.9-0.1-7.4c6.9,0.4,13.9,0.2,20.9,0.4
	c1.4,0,2.9,0.1,3.9,1.6c-3.1,3.4-7.5,2.1-11.2,3.4c-0.8,0.3-1.7,0-2.6,0.1c-1.1,0.2-2.1,0.7-2.1,2c0,1.6,1.4,1.5,2.3,1.4
	c6.2-0.8,12,2.6,18.2,2.1c1.2-0.1,3.4-0.3,3.1,2.5c-4.2,1.9-8.6,1.1-12.9,0.5c-4.2-0.6-8.4-0.5-12.7-0.4c-1.3,0-2.8,0-3.1,1.8
	c-0.3,2.1,1.2,2.8,2.6,3.1c4.7,1,9.5,1.3,14.3,1.7c4.2,0.4,8.4,0.9,12.6,1.6c0.8,0.3,1.7,0.5,2.6,0.5c6.6,0.4,6.9,0.9,5.5,8.3
	c-1.3,1-2.7,1.1-4.2,1c-11.2-1-22.5-1.5-33.7-2.3C182.6,233.8,182.2,233.4,181.7,233L181.7,233z"/>
<path class="st4" d="M181.3,217.2c-0.7-6.9-0.5-14-1.8-20.9c-1.6-2.5-1.7-4.9-0.1-7.4c6.9,0.4,13.9,0.2,20.9,0.4
	c1.4,0,2.9,0.1,3.9,1.6c-3.1,3.4-7.5,2.1-11.2,3.4c-0.8,0.3-1.7,0-2.6,0.1c-1.1,0.2-2.1,0.7-2.1,2c0,1.6,1.4,1.5,2.3,1.4
	c6.2-0.8,12,2.6,18.2,2.1c1.2-0.1,3.4-0.3,3.1,2.5c-4.2,1.9-8.6,1.1-12.9,0.5c-4.2-0.6-8.4-0.5-12.7-0.4c-1.3,0-2.8,0-3.1,1.8
	c-0.3,2.1,1.2,2.8,2.6,3.1c4.7,1,9.5,1.3,14.3,1.7c4.2,0.4,8.4,0.9,12.6,1.6c0.8,0.3,1.7,0.5,2.6,0.5c6.6,0.4,6.9,0.9,5.5,8.3
	c-1.3,1-2.7,1.1-4.2,1c-11.2-1-22.5-1.5-33.7-2.3C182.2,217.9,181.7,217.6,181.3,217.2L181.3,217.2z"/>
<path class="st4" d="M190.5,223.2c-0.7-6.9-0.5-14-1.8-20.9c-1.6-2.5-1.7-4.9-0.1-7.4c6.9,0.4,13.9,0.2,20.9,0.4
	c1.4,0,2.9,0.1,3.9,1.6c-3.1,3.4-7.5,2.1-11.2,3.4c-0.8,0.3-1.7,0-2.6,0.1c-1.1,0.2-2.1,0.7-2.1,2c0,1.6,1.4,1.5,2.3,1.4
	c6.2-0.8,12,2.6,18.2,2.1c1.2-0.1,3.4-0.3,3.1,2.5c-4.2,1.9-8.6,1.1-12.9,0.5c-4.2-0.6-8.4-0.5-12.7-0.4c-1.3,0-2.8,0-3.1,1.8
	c-0.3,2.1,1.2,2.8,2.6,3.1c4.7,1-20.2-25.1-15.4-24.6c4.2,0.4-2.4-63.8,1.8-63c0.8,0.3,21-0.6,21.9-0.5c21.1,2,15.8,91.3,14.3,98.7
	c-1.3,1,3.5,2.2,2.1,2.1c-11.2-1-16.4-1-27.6-1.8C191.3,224,190.9,223.7,190.5,223.2L190.5,223.2z"/>
<path class="st4" d="M221.2,240.9c0.8,3.4,0.6,4.7-3.5,4c-9.9-1.7-22,0.6-31.9-0.8c-4.8-1.1-3.4-9.8-3.4-5.4c0-2.2,0,2.2,0,0
	c-0.2-2.3-1.4-5,1.9-6.1c11.3-0.8,22.6,0.6,33.9,1.6c1.2,0.1,2.3,0.4,3.2,1.3C221.8,237.3,221.7,239.1,221.2,240.9L221.2,240.9z"/>
<path class="st10" d="M472.8,133.3c-0.3-1.1-0.4-2.2-0.4-3.3c0.1-1.1,0.5-2.1,0.9-3.1c1.4-2.1,2.4-5.6,5.3-4.8
	c2.9,0.9,1.9,4.5,2,7.1c0.1,7.7,4.2,16.3,5.2,24c-0.1,1,0.1,2,0.6,2.9c-1.1,3.8,0.8,10.2,3,17.8c0.9,3.1,3.3-5.9,3.9-2.7l-0.1-0.1
	c-0.1,2.9-2,4.7-3.5,6.7"/>
<path class="st4" d="M221.2,241.6c0-1.8-0.1-3.6-0.1-5.4c-1.6-2.7-1.6-5.4-0.1-8.1c0.3-7,0.2-7-6.3-6.7c-1,0-1.3-0.2-1.4-1.1
	c0.7-1.2,1.9-1.2,3.1-1.3c1.4-0.2,3,0,3.5-2c0.5-2.1-0.2-3.6-2-4.5c-0.6-0.3-1.2-0.9-1.1-1.8c1-1.3,3.1-1.3,3.3-3.5
	c0.2-2.1,0.3-4.1-2.3-4.8c-1.1-0.3-2.8-0.2-2.7-2.3c1.2-1.8,0.1-0.6-0.3-4.1c-0.5-3.5,1.4-1.8-0.7-2.2c-2.8-0.5-5.7-0.8-8.5-1.4
	c-1.4-0.5-2.8-1-3.2-2.8c0.2-2.9,0.1-5.9,0.4-8.8c0.2-1.9,0.8-3.6,2.9-1.3c2.1,2.3,4.9,0.9,7.4,1.3c0.9,0,1.7,0,2.6,0.2
	c2.8,0.7,0.1-4.5,0-7.3c-0.1-1.7,1.4-19,1.4-20.7c0-2.4,4.6-12.2,3.8,4.7c0.4-0.5-0.1,7,0.4,7.5c0.3,22,0.6,44,0.8,66.1
	C222,234.7,222.2,238.2,221.2,241.6L221.2,241.6z"/>
<path class="st11" d="M66.7,90.9c3.8,4,7.7,7.9,11.5,11.9c0.8,4.8-10.1,1.4-11.2,1.8c-0.4-0.1-0.8-0.3-1.2-0.5
	c6.8,3.5,2.1-7.7-12.2,0.7c-2.5,1.5,3.2,1.8,2-1.9c-2.7-4.3-0.7-8.8-0.6-13.3c0.6-0.4-12.5,7-11.9,6.6c4-3.8,17.9-11.5,21.2-7.3
	C65,89.7,65.7,90.5,66.7,90.9L66.7,90.9z"/>
<path class="st4" d="M457.7,156.2c-1-9.7-1-0.7-1.9-12.7c-0.4-4.7-0.3-9.5-1-14.2c-0.6-3.9,2,1.3-2,0.9c-1.7-0.2-3.5-0.8-4.5-2.5
	c0-3.6,2.3-1.7,3.7-1.7c1.4,0.1-0.8-6,0.2-8.6c0.4-0.2,0.9-0.2,1.3,0c3.2,2.5,4.7,6.2,5,10.2c0.4,4.9,1,9.7,1.2,14.6
	c0.3,12.8,2.1,9.8,3.4,22.6c0.5,5.4,1.9,10.6,4.1,15.4c4.1,9,10.2,10.6,17.6,4.8c0.5-0.4,1-0.7,1.6-0.9c0.5-0.1,1,0,1.2,0.6
	c-0.5,1.7-1.5,3.1-2.8,3.9c-2.4,1.4,3.5,21.1,3.1,23.8l-0.3,0l-0.3,0c-1.4-1.1-9.3-20-11.3-20.1c-4.7-0.1-7.7-3.1-10.3-7
	c-2.9-4.5-4.4-9.6-5.4-14.8"/>
<path class="st4" d="M201.4,90.3c-2.7-2.5-10.4-8.8-15.4-16.1c4.2,2.8,7.8,6.6,13,7.5c5.7,0.9,9.7-2,13.3-6.3
	c0.5,0.3,0.6,0.9,0.8,1.4c0.3,0.4,0.6,0.7,0.9,1.1c0.1,2.3,1.2,4.3,2,6.3c-1,2.6-2.3,4.8-5.5,4.2C211,87.5,202.9,91,201.4,90.3
	L201.4,90.3z"/>
<path class="st12" d="M205.5,87.2c1.7,0.1,4.6-2,5.1,1.2c0,1.1-0.5,1.9-1.3,2.3c-7.7,3.4-15.4,6.2-23.8,2.8c-2-0.8-3.9-1.7-3.9-4.5
	c-3.2-2.1-20.3,11.9-20.8,16.2c-0.1,1.1-0.3,1.6-1.8,1.8c1.8-0.9,0-1.8,0-2.7c1.6-2.6,17.7-18.5,21.3-18.1c1.8,0.2,1.8-0.8,1.6-2.3
	c-0.8-5.9-1.6-11.9-2.2-17.8c-0.2-1.7-1.4-2.3-2.4-3.2c-3.4-3.2-4.2-7.5-4.2-12c0-1.6,0.3-3.6,2.3-4.1c-1.5,6.1-1.5,11.8,4,15.9
	c2.3,1.7,1.6,5,2,7.5c1,5.4,2,10.8,1.9,16.4c-0.1,3.8,2.3,4.9,5,5.2c7.3,1,8.9,0.6,15.9-3C202.9,88.2,206.6,87.7,205.5,87.2
	L205.5,87.2z"/>
<path class="st13" d="M98.6,90C87.9,88.9,82,90.1,76.2,78.8c2.4-0.5-1.3-3.4-0.2-2.1c6.4,7,17.3,9.6,23.5,3.9
	c0.3-0.4,0.6-0.5,0.9-0.1c0,1.4-2.6,1.3-1.3,2.3c0.3,0.3,0.5,0.7,0.6,1.1c0.2,1.5,0.7,3,0.5,4.6C100,89.4,99.8,90.4,98.6,90L98.6,90
	z"/>
<path class="st14" d="M153.9,184.7c5.6,6.8,9.8,7.1,14.5,0.8c-7.2-1.3-9.4-6.5-9.1-13.6c0-1.2,0.7-3-1.4-3.2
	c1.1-3.1-0.9-7.2,2.7-9.5c1.4,1.5,1.1,3.5,1.1,5.3c0.1,2.7-0.1,5.3,0.1,8c0.3,6.7,1.6,8.1,9.3,10.6c0.6,4.3,0.3,8.5-2,12.2
	c-1.4,8.5-2.7,17-4.1,25.5c-0.2,1.1-0.1,2.2-0.9,3.1c-0.3,0.4-0.6,0.4-0.9,0c1.7-11.6,3.4-23.1,5.1-35.2c-3.5,2.3-6.8,3.6-10.5,1.9
	c-1.7-1.6-3.9-2.7-4.6-5.4C153.2,184.8,153.4,184.6,153.9,184.7L153.9,184.7z"/>
<path class="st4" d="M220.4,155.5l-0.4,4.7c0-2.9-1.2-4.3-4-4c-3.1,0.3-6.5-2.9-9.3,1c-0.1,0.1-0.3,0.1-0.3,0.1
	c-0.1-0.3-0.2-0.6-0.4-0.9c-0.9-3-2-6,0.4-8.7c0.8-0.7,1.8-0.9,2.8-1c1.6-0.1,3.2-0.1,4.9,0.3c1.6,0.6,3.3,0.5,4.9,0.4
	c0.6,0.1,1.1,0.5,1.4,1.1c0.4,1.5-1.5,2.7-0.6,4.2C220.2,153.7,220.3,154.6,220.4,155.5L220.4,155.5z"/>
<path class="st15" d="M435.5,86.1c0.3-0.3,0.6-0.7,1-1c2.1,0.6,1.7,2.7,1.9,4.3c0.6,4.8,2.6,8.6,5.8,11.9c4.3,4.4,6,10.4,8.3,16
	c-0.2,0.2-0.5,0.4-0.7,0.6c-2.5-0.4-3.3-2.9-4.6-4.7c-2.5-3.2-4.6-6.7-7.5-9.8c-1.3,2.3,0.5,4.5-0.5,6.5c-0.3,0.3-0.7,0.5-1.2,0.5
	c-0.2-0.1-0.4-0.1-0.6-0.2c-0.4-0.3-0.7-0.6-0.9-1.1c-0.8-3.1-0.5-6.3-0.4-9.4c0.1-3.1-0.8-5.2-3.6-6.2c-0.4-0.3-0.7-0.6-0.8-1.1
	c1.3-1.9,2.9-0.2,4.4-0.5C436.3,90.1,436.3,88.1,435.5,86.1L435.5,86.1z"/>
<path class="st16" d="M369,199.5c-3.6,5.8-5.7,6.1-14.7,1.9c6.5,12.8,5.6,28.8,6,43.2c-1.9-15.9-2.3-33.2-9.4-47
	c0.1-0.2,0.2-0.4,0.4-0.5c1.7-0.7,2.7,0.6,3.9,1.5c4.2,3.3,8.5,4.7,12.9,0.4C368.5,198.9,368.8,199.1,369,199.5L369,199.5z"/>
<path class="st17" d="M343.3,77.7c0.3,0.3,0.6,0.6,0.9,0.8c-2.8,7.1-2.6,12.7-1.4,19.2c0.9,4.6,3.8,5.3,7.4,5.2
	c0.9,0,5.8,0.1,6.5-0.7c1.7-2.1,3.5-3.1,5,0.2c0.1,0.2,0.5,0.5,0.6,0.5c3.7-3.3,6.4,1.7,9.7,1.4c2.1-0.2,2.4,1.1,1.9,3
	c-0.8-0.9-1.4-1.9-2.8-1.8c-1.8,0.2-4.3,2.1-4.8-1.9c0-0.1-1.3-0.1-2,0c-0.8,0.2-2.1,1.1-2.4,0.8c-4.2-5.5-5.2,1.3-7.6,2.3
	c-3-1.6-11.4-1.2-12.8-5.6c-2.2-7.1-1.5-13.6-0.2-21.5C341.6,78.6,341.8,77.3,343.3,77.7L343.3,77.7z"/>
<path class="st18" d="M284.9,111.2c-4.5-5.8-3.1-12.4-2.4-19c0.3-3.1,2.8-1.4,4.1-2.9c3.7-4.3,9.1-3.8,14-4.2c2.3-0.2,1.6,2,1.2,3
	c-1,2.3-2.8,3.5-5.2,3.7c0-0.2-0.1-0.4-0.1-0.6c0.2-1.3,1.4-1.8,2.1-3c-3.5,0.4-3,5.3-6.1,5.8c-0.6-0.2-1.1-0.6-1.3-1.3
	c-0.2-1.5,1.1-2.4,1.2-3.9c-4.9,0.3-4.1,4.9-5.2,8c-0.4,0.2-0.8,0.2-1.2,0c-1.3-0.6-1.4-0.6-1.4-0.2c-0.5,3.4-1.2,6.8,0.8,10.1
	c0.6,1,0.9,2.3,0.5,3.6C285.7,110.8,285.4,111.1,284.9,111.2L284.9,111.2z"/>
<path class="st19" d="M373.2,146.3c2.4-0.7,4.6-1.9,7.2-1.2c-2.3,7.5-2.5,15.3-3.7,23c-1.6,10.8-2.5,21.7-7.7,31.5
	c-0.2-0.2-0.4-0.3-0.5-0.5c-0.9-2.3,0.3-4.3,0.9-6.4c4.3-13.4,4.8-27.6,7.1-41.4c0.3-1.9-0.3-3-2.1-3.4
	C373.7,147.6,373.1,147.2,373.2,146.3L373.2,146.3z"/>
<path class="st4" d="M398,205.5c-2.7-1.6,6-24.7,5.4-27.9c-0.4-1.1,4.2-1.3,5.1-1.1c11.7,2.5-5.6-1.6-9.8,27.2
	c-0.2,1.3,1.4,5.9,1.4,5.9c6.3,1.3,35.9,3,42.3,2.9c1.7,0,6.3-2.7,7.2-0.1c-0.7,0.3-1.6,0.4-2,1.4c-9.3-1.5-37.8-2.5-46.7-6.5"/>
<path class="st20" d="M99.1,83.6l0.4-0.7c2.5,0.3,4.5,2,6.1,3.9c5.2,5.7,7.1,4.2,13.4,6.3c0.3,0.1-1.2-1.4,1.7,0.2
	c0.8,0.4,15.7,11.7,15.4,12.6c0,0-1.5,2.4-1.5,2.4c-0.3,1,1.1-1.6,0.2-2c-3-1.5-14.5-10.7-16.5-10.8c-1.8-0.1-3.4-1.2-5.5-1.1
	c0.3,3.7-1.2,4.6-2.9,8.2c-1.3,0.6-2.1,0-2.5-1.4c-0.4-1.4,3.3,0,2.9-1.3c-0.6-5.1-3.3-8.6-6.7-11.7C101.9,86.7,100,85.8,99.1,83.6
	L99.1,83.6z"/>
<path class="st21" d="M220.1,152.8c-1.3-1.4-0.2-2.6,0.2-3.9c1.6-0.5,2.5,0.7,3.4,1.7c7.1,8.1,0.6,9.5,7.6,17.7
	c1.1,1.2,10.9,7.7,7.3,6.7c-0.1,0.5,24.4,12.7,20,13.9c-8.8-9.2-33.4-13.3-36.8-36.9C220.4,150.6,220.3,151.6,220.1,152.8
	L220.1,152.8z"/>
<path class="st4" d="M344.2,78.6c-1-0.5,6.1-10.3,6.1-10.3c3.5-6,1.9-9.9,1.3-14.7c-1-8.4-4.5-15.7-10.1-21.7c0.6,0-4.6-2.3-4-2.3
	c9.5,0.4,16.9,20.9,15.7,32.5C352.3,70.2,349.1,74.3,344.2,78.6L344.2,78.6z"/>
<path class="st22" d="M263.7,186.4c0.2,1.8-4.7,2.9-5.1,2.4c-2-1.6,0.3-1.6,1.6-1.8c1-0.2,1.8-0.9,2.4-1.7
	c12.2-17.2-0.6-64.5-2.6-76.1c0.1-0.5,0.3-1,0.6-1.4c0.5-0.2,1-0.1,1.4,0.3C265,119.8,279.2,175.5,263.7,186.4L263.7,186.4z"/>
<path class="st23" d="M296.6,91.9c0.2,1.5-0.1,3.9,0.6,4.4c1.6,1.1,2.6-1.3,3.9-2.1c0.2-0.2,0.5-0.5,0.7-0.6
	c6.5-0.2,3.5-4.3,2.7-7.5c-1.3-5.3-2.6-10.6-2.5-16.1c0.5-0.2,0.9-0.1,1.3,0.3c1.7,2.1,1.6,4.7,1.9,7.2c0.7,5.2,2.8,10,3.2,15.2
	c-0.7,1.9-2.4,2.3-3.8,3c-1.8,0.6-3.2,2-4.9,2.9c-2,1.1-3.8,0.8-4.7-1.5c-0.8-2-1.2-4.3,1.6-5L296.6,91.9L296.6,91.9z"/>
<path class="st4" d="M341.5,32c-4.8-1.2-9.2-3.7-14.3-3.7c-8,0-17.9,1.9-23.1,12.3c-0.4,0.4-0.7,0-1.2,0.3
	c2.6-8,10.1-11.4,15.6-12.8C326.6,26.1,334.6,25.8,341.5,32L341.5,32z"/>
<path class="st24" d="M382.8,143.2c0.8-1.4,1.2-2.8,0.7-4.4c-3-9.6-4.9-19.6-9.1-28.8c2.1-0.3,2.3,1.7,2.7,3c3.2,8.8,5.4,18,8,27
	C385.7,142.3,384.8,143.1,382.8,143.2L382.8,143.2z"/>
<path class="st25" d="M302.8,69.9l-0.4,0l-0.4,0c-0.4-2.5-0.7-5-1.1-7.5c0.3-0.3,0.5-0.3,0.8,0c6.1,2.2,7.1,1.6,7.1-4.7
	c0-0.6,0-1.2,0-1.8c0.1-2,2.8-2.1,3.1-0.2c0.3,1.6,0.3,3.9,1.4,5.3c-1.8,0.1-2.5-1.9-2.7-3c-0.2,2.1,0.7,4.3-0.2,6.5
	c-0.9,2.2-3.4,3.1-5.4,1.8c-1.2-0.7-0.9,0.1-1,0.6C303.7,68.1,303.7,69.2,302.8,69.9L302.8,69.9z"/>
<path class="st26" d="M400.1,164c2.1-1.7-0.9-5.5,2.4-6.6c0.1,7.9-0.9-5.9-0.8,2.1c-0.6,0.5-1.1,0.6-1.7-0.1
	C399.6,153.7,401.1,169.7,400.1,164L400.1,164z"/>
<path class="st27" d="M401.9,129.9c0.1-4.4-0.9-5.9-4.8-6.6c-2.8-0.6-6.2-0.4-7.4-4.4c3.6,2.4,3,2.9,7,4.1c0,0,0.8,2.5,0.8,2.5
	c6.6,2.1,5.7,1.8,1.7,6.5"/>
<path class="st28" d="M24.2,196c7.5,2.7,8.9,6,16,9.6c2.2,1.1,5.1,1.5,6.2,4.5c-7.8-4.1-10.5-6.7-18.2-11
	C26.8,198.3,24.9,198.1,24.2,196L24.2,196z"/>
<path class="st29" d="M400,159.4l0.8,0c2.7,6.8,3,11.4,5.8,18.2c-1.1,1.3-2.1-1.2-3.2,0C402.2,171.6,401.1,165.5,400,159.4
	L400,159.4z"/>
<path class="st30" d="M48.1,212.3c2.6,2.6,5.5,3.2,8.8,1.4c1.8-0.9,3.7-1,5.2,0.7c-3.3,1.9-6.8,3.1-10.6,2.8
	c-1.6-0.1-3.1,0.2-4.7,0.6c-0.5,0-0.9-0.1-1.2-0.5C46.4,215.6,48.3,214.5,48.1,212.3L48.1,212.3z"/>
<path class="st31" d="M301.8,62.5H301c-1.9-7.3-0.9-14.4,1.8-21.2c0.3-0.6,0.8-0.9,1.4-0.7C301.4,47.6,300.4,54.9,301.8,62.5
	L301.8,62.5z"/>
<path class="st32" d="M501,119.3l-0.4-0.1l-0.4,0.1c-0.9-0.4-1.4-1.2-1.6-2.2c-0.9-3.9-0.7-13.8-4-14.7c-1.6-0.4-3.6-0.4-4-2.8
	c0.9-0.3,1.9-0.7,2.8-1c0.5,1.4,0.5,1.1,1.6,1.4C501,101.6,501,112.4,501,119.3L501,119.3z"/>
<path class="st2" d="M497.7,241.9c-1.6-6.8-5.5-12.6-7.4-19.2c4.2,5.2,6.3,11.6,8.1,18.1C498.9,241.6,498.6,242,497.7,241.9
	L497.7,241.9z"/>
<path class="st33" d="M8.5,162.7c-0.6,4.1-3,7.4-4.6,11.1c-1.1,2.7-1.9,5.2-0.7,8c-2.5-0.6-2.2-2.9-1.7-4.5
	C3.2,172.1,4.9,166.9,8.5,162.7z"/>
<path class="st34" d="M282.4,124.9c0.4-0.7,0.6-1.5,1.1-2c3.2-3.5,3.8-7.4,1.5-11.7c0.2-0.2,0.4-0.4,0.6-0.5c2.4,1.2,2.7,4.2,4.4,6
	c0.4,1.2,0,2.2-0.9,2.9c-0.4,0.7-1.4-0.7-1.8,0.8c-0.6,2.1-1.8,4.1-3.9,5.1C283,125.5,282.6,125.3,282.4,124.9L282.4,124.9z"/>
<path class="st35" d="M213.1,76.8c-0.3-0.5-0.5-1-0.8-1.4c2.1-4.7,5.5-9.3,5.7-14.7c1-0.6-0.8-2.5,0.6-2.8
	C218.2,66.4,219,63.8,213.1,76.8L213.1,76.8z"/>
<path class="st36" d="M69.9,94c-1.3,0.5-2.2-0.6-2.4-1.5c-1.3-5.6-19,2.3-22,3.7c-0.5-1.9,15.8-8.1,16.5-8.1c4.8-0.2,5.5-3.5,5-7.9
	c1.7-0.2,1,1.1,1,2C68.5,86.2,66.5,90.6,69.9,94L69.9,94z"/>
<path class="st37" d="M3.2,181.7c4.4,3.2,9.3,5.6,13.2,9.6C11.3,189.3,6.4,186.8,3.2,181.7z"/>
<path class="st38" d="M244.9,221.4c0.3,0,0.7,0,1,0c2.4,8.3,2.9,16.9,3.3,25.5C246.8,238.7,245.6,230.1,244.9,221.4L244.9,221.4z"/>
<path class="st39" d="M122.9,215.9c2.9,1.2-4.7,15.7-1.7,16.2c-2.2,0.1-2.3-2.3-2.1-4c0.1-1.1,0.1-2.2-0.9-2.9
	c-2.7-1.9,2.4-6.4,2.9-10.2c0-0.3,0.1-0.5,0.4-0.7"/>
<path class="st40" d="M163.3,224c0.3,0,0.6,0,0.9,0c-0.7,5.3-1.3,10.7-2,16c-2.1-0.3-0.9-1.8-0.8-2.8
	C162,232.8,162.6,228.4,163.3,224L163.3,224z"/>
<path class="st41" d="M68.1,82.2l-1-2c-0.3-5.1,0.8-10.4-0.9-15.4c0.5,0.3,1,0.6,1.6,0.9C68,71.2,69.3,76.7,68.1,82.2L68.1,82.2z"/>
<path class="st42" d="M287.8,133.9c-2.7-2-2,2.1-3.5,2.2c0.5-2.8,0.4-5.2-2.2-7.1c-1.6-1.2-1.6-2.8,0.2-4.1c0.2,0.2,0.4,0.4,0.6,0.6
	c1.2,2.9,4.2,4.3,5.4,7.3C288.3,133.2,288.1,133.6,287.8,133.9z"/>
<path class="st43" d="M108,53.7c0.1,0.4,0.1,0.8,0.2,1.2c5.6,3.4,2.5,8.5-1.7,13.2C109.2,62.5,109.7,57.7,108,53.7z"/>
<path class="st44" d="M17.3,144.5c0.6-0.3,1.2-0.6,1.8-0.9c-1.7,4.7-4.1,8.9-7.2,12.6C12.4,151.5,16.4,148.8,17.3,144.5L17.3,144.5z
	"/>
<path class="st2" d="M391.1,237.2c0.6,3.4-1.9,6.2-1.5,9.5c-0.2,0.2-0.3,0.5-0.3,0.8c-0.9,0-2.1-0.4-1.7-1.4
	C389.1,243.3,388.7,239.6,391.1,237.2L391.1,237.2z"/>
<path class="st45" d="M161.3,237.2c0.2,1-0.1,2.1,0.8,2.8c-0.5,2.4-0.1,5.1-1.9,7.2C160.2,243.8,160.1,240.4,161.3,237.2
	L161.3,237.2z"/>
<path class="st42" d="M281.8,142c-0.6,4.7-2.4,9-4.5,13.1C277.6,150.3,279.3,146,281.8,142z"/>
<path class="st46" d="M121.7,181c-0.2,0.2,3.4,23.6,1.1,35c-1,0.7-2.1-0.6-1.4-1.6c1.8-2.7-2.1-37.9-2-39.3c0.7-1.7,3.5,2.7,5.2,1.4
	c0.2,0.1-3.1-3.1-2.9-3C121.7,176.6,121.8,177.8,121.7,181L121.7,181z"/>
<path class="st4" d="M184.4,234.2c-3,0.6-1.3,3.5-2.1,5.1c-1-4.5-0.8-9-0.6-13.5c0.3,0,0.6,0,0.8,0.1
	C184.1,228.4,183.7,231.5,184.4,234.2L184.4,234.2z"/>
<path class="st2" d="M497.7,241.9c0.3-0.4,2.3-0.7,2.5-1.1c1,1,1.1,4.2,2.2,5.4c1,1.2-0.1,1.9-3.1,2.2c0-0.3-0.1-0.5-0.3-0.7
	C499.3,245.6,498,243.9,497.7,241.9L497.7,241.9z"/>
<path class="st47" d="M16.3,191.2c3.1,0.7,5.8,2.3,8,4.8C21.1,195.4,18.5,193.8,16.3,191.2z"/>
<path class="st48" d="M45.7,217.3l1,0.1c2.6,1.7,3.2,4.2,2.4,7.3v0.3l-0.2,0C45.7,223.4,46.4,220.1,45.7,217.3z"/>
<path class="st49" d="M488,174.9c1,0.7,0.4,2.4,1.6,2.9c-1,2.2-0.6,5-2.4,7c-0.1-0.2-0.3-0.4-0.6-0.5C486,181,486.2,177.9,488,174.9
	L488,174.9z"/>
<path class="st50" d="M100.5,80.5l-0.9,0.1c1.6-2.3,5.3-10.2,6.9-12.5C106.6,71.4,102.5,78.7,100.5,80.5z"/>
<path class="st51" d="M346.7,197.2c0-0.2,0-0.4,0-0.6c3.6-1.4-1.4-2.2-0.2-3.5c2.9-0.6,4.2,1.2,4.9,4c-0.2,0.1-0.4,0.3-0.5,0.5
	C349.5,197.5,348.1,197.3,346.7,197.2z"/>
<path class="st52" d="M176.6,38c-0.6,1.4,0.4,3.3-1.1,4.4c-0.1-3.1-0.2-6.1-0.2-9.2c0.4,0,0.9,0,1.3,0
	C177.6,34.8,177.6,36.4,176.6,38L176.6,38z"/>
<path class="st53" d="M12,156.1c-0.5,2.7-1.4,5.1-3.6,6.7C8.8,160,9.8,157.7,12,156.1z"/>
<path class="st54" d="M351.4,197.1c-1.5-1.5-2.8-3.3-4.9-4c-0.5-0.4-1-0.8-1.5-1.2c-4.7-4.7-9.1-9.7-13.6-14.6l-0.9-1.8
	c-2.2-2.1-4-4.6-6.1-6.7c-0.2-0.2-0.3-0.4-0.4-0.6c-0.7-2.6-3.5-3-4.5-5.3l-1.7-1.5c-2.8-4.1-6.8-2.7-10.3-2.3
	c-3.2,0.4-6.2,0.6-9.4,0.3c-0.6-0.1,0.1,0.2-0.4-0.1c-1.9-1-5.7,0.2-5.4-3c0.2-3,3.9-1.6,5.9-2.4c1.3-0.5,2.6,0,4.5,0.5
	c-4.7-1.6-9-1.7-12.9-3.5c-2.1-2.9-1.8-3.4,2.6-4.1c2.9,0,5.7,0,9.3,0.1c-4.1-0.9-7.5-1.6-10.9-2.4c-1.7-0.1-2.7-1.8-4.3-2.2
	c-0.1-1.1,0.9-0.9,1.4-1.4c2.4-2.9,5.3,0,7.9-0.8c2.4-0.2,4.9,0.7,7.2-0.4c-0.7-0.8-1.6-1.1-2.4-1.6c-2.1-0.6-4.2-1-6.4-1.3
	c-1.2-0.2-3-0.2-3-2c0-2.1,1.9-2,3.3-2.1c2.2-0.2,4.3-0.1,6.5-0.1c4.7,0.3,9.1,1.6,12.7,5.1l2.2,2.4c1.5,3.2,3.9,5.3,6.6,7.1
	c0.6,1.5,1.5,2.8,2.8,3.7c4.1,2.5,7.9,5.5,12.2,7.7c2,1.6,4,3.1,6,4.7c4,2,7.4,5,11.1,7.6l-0.1-0.1c3.6,1.1,5.8,4.1,8.2,7
	c-0.4-6.3-3.8-11.5-5-17.5c0.8-3.3,0.1-7.3,2-9.9c2-2.8,5.9-1.2,8.9-2.1c1.8-0.6,3.6-0.8,5.5-1.1c1.3-0.3,2.5-0.5,4.2-0.8
	c-3,17.8-3.3,35.9-9.9,52.7c-4.4,5-6.5,5.3-12,1.7C354.8,199.6,353.1,198.3,351.4,197.1L351.4,197.1z"/>
<path class="st55" d="M308.2,195.6c-3,15.7-3.9,31.6-3.4,47.6c0.1,3.2-0.5,4.3-3.7,4.3c-11.5-0.1-11.4,0.1-9.3-12.4
	c2.1-12.4,3.8-24.9,7.4-37c1.3-4.5,2.8-6.7,7.2-4.5C306.9,194.4,308.6,193.6,308.2,195.6z"/>
<path class="st4" d="M297.8,158.3c5.1,0,10.2,0,15.3,0.1c2,0.1,4.2,0.1,4.6,3.1c-2.3-2.1-5-2.2-7.8-2.1c-0.9,0-2.2-0.1-2.2,0.9
	c-0.3,6.1-4.6,3.4-7.4,4.1c-1.6,0.4-4-1.5-4.7,1.7c-0.4,0.6,0,2-1.3,1.9c-0.7-0.1-0.7-0.7-0.5-1.4l0.1-3.3c0.3-0.4,0.6-0.7,1-0.9
	c2.3-0.5,4.7,0,7,0.3c-2-0.3-4.1-0.2-6-1.1c-0.5-0.8-0.1-1.3,0.5-1.6c2-0.1,4-0.1,5.8,0.4c-1.7-1.2-4,0.5-5.8-1.3
	C296.7,158.2,297.1,157.8,297.8,158.3L297.8,158.3z"/>
<path class="st56" d="M293.8,166.5c1.1,1.9,1.2-0.5,1.8-0.5c-0.2,7.9-0.5,15.8-0.7,23.7c-0.5,0-1,0.1-1.6,0.1
	c-1.4-1.2-1-2.8-0.9-4.4c0.4-5.3,0.2-10.7,0.4-16.1C292.9,168.3,293.1,167.4,293.8,166.5L293.8,166.5z"/>
<path class="st51" d="M345,196.6c-1.8,1.8-4.5-0.1-6.3,1.5c-2.6,0-5.2,0.1-7.8,0.1c-1.4-1.7-3.8,0-5.2-1.7
	C332.1,196.6,338.5,196.6,345,196.6L345,196.6z"/>
<path class="st57" d="M331.4,177.4c5.3,4,9.6,9.1,13.6,14.6C339.6,188,335.3,182.9,331.4,177.4z"/>
<path class="st58" d="M308.2,195.6c-0.6-0.6-1.3-1.3-1.9-1.9c4.8,0.6,9.5,1.2,14.2,2.6c-0.8,0.3-1.7,0.1-2,1.3
	C315.1,196.1,311.6,196,308.2,195.6L308.2,195.6z"/>
<path class="st59" d="M324.4,168.8c3.1,1.1,4.3,4.2,6.1,6.7C327.3,174.6,326.1,171.4,324.4,168.8z"/>
<path class="st60" d="M319.5,162.9c1.9,1.4,4.4,2.1,4.5,5.3C322.6,166.3,319.4,166.2,319.5,162.9z"/>
<path class="st2" d="M427.4,246.7c0.5-4.1,3.1-3.2,5.7-3.2c-0.5,2.4-2.9,1.6-3.6,3.1C428.8,246.6,428.1,246.6,427.4,246.7
	L427.4,246.7z"/>
<path class="st2" d="M401.4,246.6c2.3-2.8,4.6-2.9,6.8,0.2C405.9,247.1,403.6,247.1,401.4,246.6z"/>
<path class="st0" d="M488,174.9c-0.2,3.1,0,6.4-1.3,9.3c-7.4,9-15.6,7.7-20.7-2.9c-3.5-7.5-4.8-15.5-5.2-23.7
	c-0.6-14-2.5-12.3-3.4-26.3c-0.4-5.4-1.7-10.1-5-14.1c-4.4-5.9-6.2-13.6-11.8-18.6c-3.9-3.5-2.6-9.1-4.2-13.5c0-1.2,0-2.4,0-3.5
	c0.4-1.9,1.2-3,2.8-1.1c1.1,1.3,1.5,3,2,4.6c0.4,1.5,0.9,3,1.2,4.5c0.6,2.8,1.6,5.3,3.9,7c1,0.7,1.9,1.6,2.8,2.3
	c1.5,0.9,2.5,2.5,3.8,3.9c-1.5-1.9-3-3.6-4-5.8c-0.2-0.4-0.3-0.9-0.4-1.3c-0.1-2.6-1.1-5.2-0.7-7.8c0.4-1.5,0.3-3.1,0.7-4.6
	c0.4-1.6,1.1-2.7,2.7-1.3c1.5,1.9,1.6,4.3,2.3,6.5c0.6,1.8,1.2,3.6,2.4,5c1.3,1.4,2,4.3,4.7,2.4c1.7-4.2-0.1-8.9,1.4-13.1
	c0.5-0.9,1.1-1.6,2.3-1.3c1.6,3.2,1.3,6.9,1.9,10.4c2.5,3,1.6,6.9,2.4,10.4c1.9,9.2,3.5,18.4,4.5,27.8
	C478.6,149.9,484.4,154.5,488,174.9L488,174.9z"/>
<path class="st3" d="M494.1,154.3c-3.9,0.3-2,0.6-5.9,1.4c-1.3,0.2-2.6-0.1-3.6-1.4c-1.5-10.3-6.1-12.7-6.9-23.5
	c-3,1.6-2.4-4.8-3.7-2.8c-2.3-0.4-2.2-2.8-2.5-4.3c-2.4-10.2-1.5-20.2,2.6-29.7c1.3-0.8,2.3,4.9,3.6,4.2c1.3-0.7,0.4-1.5,0,0
	c-0.8,3.4,4,3.9,6.1,3.1c1.5-0.6,1.4-7,1.7-4.1c0.3,2.8,3.2,1.8,5,2.5c1.1,0.6,0.7,2.6,1.9,2.7c5.6,0.5,7.2,11.1,7.8,16.9
	c0,10.2-5.6,23-4,33.1"/>
<path class="st61" d="M474.2,94c0.1,3.5-0.3,6.9-1.6,10.1c-3.5,8.3-1.3,16.2,1.5,24c-0.3,0.7-0.6,1.3-1,2c-3.7-7.7-2.9-16.5-5-24.7
	c-1.1-4.3-1.2-9-1.8-13.5l1,0.3c2.9,3.9,2.2,8.7,2.9,12.6c0.9-3.3,1.1-7.2,2.1-11L474.2,94L474.2,94z"/>
<path class="st62" d="M472.3,93.8c1.5,4.6-0.7,8.4-2.7,12.5c-0.8-4.7-1.6-9.5-2.4-14.2C468.9,92.7,470.6,93.3,472.3,93.8z"/>
<path class="st63" d="M471.5,69.2c-0.4-3.5,1.8-6,3.1-8.8c0.4-0.8,1.1-1.1,1.8-0.4c0.5,0.5,0.1,1-0.2,1.6c-1.1,2.2-2,4.5-3,6.7
	L471.5,69.2z"/>
<path class="st6" d="M302.8,69.9c0-1.3,0.1-2.5,0.1-3.8c0-1.3,0.6-1.7,1.6-1.5c0.6,0.1,1.9-0.6,1.7,0.4c-0.4,1.8-0.5,2.4,1.4,1.8
	c1.2-0.4,2.5-0.5,2.4-2.6c-0.1-1.9-0.1-3.9-0.1-5.9c0-1.1,1.5-1.2,1.6-0.1c0.1,1,0.1,1.9,1,2.4l-0.1-0.1c1.7,3.6,4.8,2.5,7.3,2.3
	c1.8-0.1,1.1-1.7,0.6-2.9c-0.5-1.2-0.9-2.6,0.4-3.3c1.5-0.8,1.9,1,2.5,1.9c1.6,2.6,3.5,5,5.9,6.9l0,0c3.4,2,6.2,5.4,10.6,4.7l0,0.1
	c1.1-0.1,1.3-1.1,1.7-1.9c1.4-2.1,3.2-4.1,5.4-2c1.8,1.7,2,4.1,1,6.6c-0.9,2.3-2.7,3.6-4.5,4.9c-1.8,3.2-3.1,9-2.5,12.3
	c0.7,3.5-0.1,4.2,0.6,7.7c0.9,4.1,2.5,7,7,6.4c1.7-0.2,6,1.3,5.9,2.7c-2.1,3-2,6.3-4.7,8.6c-8,4.5-19.1,6.1-28.1,4.4
	c-2.7-0.5-6.5-0.3-6.4-5.2c0.9-3,3.4-4.2,5.6-5.6c5.8-3.7,9.3-9.6,11.5-13c-1.4,3-11.2,7.3-18.2,5.9c-2.5-4.1-1.8-7.7,2.6-10.6
	c-2.4,0.5-4.1,0.5-5.6,2.4c-1,1.3-1.3,1-3-0.8C305.1,85.5,304.4,77.6,302.8,69.9L302.8,69.9z"/>
<path class="st64" d="M358.3,161c3.4,6,5.4,12.6,5.8,19.7c-2.9-3.8-6.5-6.7-9.6-10c2.5-2.6,1.7-6.3,2.8-9.4
	C357.6,160.8,357.9,160.7,358.3,161L358.3,161z"/>
<path class="st4" d="M313.7,137.5c-4.1-1.8-8.2-3.6-12.6-3.9c-0.2-0.5-0.2-0.9,0.2-1.2c1.9-1.2,4-1.1,5.9-0.5c3.9,1.4,4-1.1,4.3-4
	c0.3-3,1.2-6.2-3.3-6.3c-3,0-6.1-0.1-8.8-1.9c-0.2-0.4-0.3-0.8-0.2-1.3c3.7-0.7,3.1,2.7,5.2-0.1c1.8,1.4,3-3.5,2.9-1.9
	c0.7-0.8-2.7,3.9-0.9,3.9c1.4,1.4,3.1-0.7,7-3.1c0.7,0.1,1.2,0.4,0.9,1.3c1.7,4.9-1,9.4-1.1,14.2C313.1,134.4,312.7,136,313.7,137.5
	L313.7,137.5z"/>
<path class="st65" d="M314.2,118.5l-0.6-0.9c-0.8-1.3-0.9-2.6-0.3-4c0.5-0.5,1-0.6,1.7-0.6c0.4,0.1,0.8,0.3,1,0.7
	c-0.4,2.8,0.6,4.3,3.4,4.9c8.2,1.8,16.1,1,23.8-2.7c1.2-0.6,12.8-9.1,11.4-9.9c-9,6.8-26.3,16.1-36.6,13.6
	C316.6,119.4,315.6,118.2,314.2,118.5L314.2,118.5z"/>
<path class="st66" d="M358.3,161l-1,0.3c0.3-3.4,0.6-6.8,1-10.2c0.2-2.5,1.9-2.9,3.8-2.9c3.8-0.1,7.4-1.1,11.1-1.9l1,0.9
	c-3.3,1.9-7,2.3-10.5,2.5c-3.4,0.2-4,2.1-4.4,4.9C359,156.7,358.6,158.9,358.3,161L358.3,161z"/>
<path class="st67" d="M337.6,158.4c-4.8-1.2-8.5-4.4-12.2-7.7C330,152.3,333.8,155.3,337.6,158.4z"/>
<path class="st28" d="M354.7,170.8c-4.1-1.8-7.6-4.7-11.1-7.6C348.2,164.2,351.6,167.2,354.7,170.8z"/>
<path class="st68" d="M322.6,147.1c-4-0.5-5.4-3.7-6.6-7.1C318.2,142.3,320.4,144.7,322.6,147.1z"/>
<path class="st2" d="M482.2,222.4c-2.7-1.8,1.6-0.9,1.6-5.2C486.2,218.7,481.6,220.3,482.2,222.4z"/>
<path class="st2" d="M442.3,220.8c-2.9,0.3-4.6-1-6.5-3.3C438.9,217.3,439.1,220.4,442.3,220.8z"/>
<path class="st2" d="M488.2,224.9c2.2,2.7,2.6,4.6,2,7.2C488.1,230.3,488,228.3,488.2,224.9z"/>
<path class="st2" d="M440.9,230.5c0.5-2.9,1.4-4.4,3-5.7C444.1,226.8,443.1,228.7,440.9,230.5z"/>
<path class="st2" d="M469.6,223.2c1.5,3,6.4,5.8,5.7,8.4C473.4,229.7,468.6,226.9,469.6,223.2z"/>
<path class="st2" d="M416.2,245.3c-2.1-0.7-3.9-1.8-4.6-4.2C413.8,241.5,415.4,242.8,416.2,245.3z"/>
<path class="st2" d="M410.1,230.5c2.8,0.4,4.5,0.8,5.9,2.6C414,233.6,412.1,232.7,410.1,230.5z"/>
<path class="st2" d="M417,227.6c-2.5-2.1-3.1-3.7-2.2-6.3C416.5,222.8,416.9,224.6,417,227.6z"/>
<path class="st2" d="M464.3,235.6c-2.2-0.8-2-3-3.5-5C463,231.5,464.2,233.1,464.3,235.6z"/>
<path class="st2" d="M481.5,237.7c0.5-1.9,1-3.8,1.7-6.6C484,233.6,483.4,235.8,481.5,237.7z"/>
<path class="st2" d="M443,240.5c-2.2-0.4-3.2-1.9-3.9-4.3C441.9,236.6,442.4,238.6,443,240.5z"/>
<path class="st2" d="M450.3,243.7c-0.3-2.4,0.7-3.9,2.6-5.3C453.4,241.4,451.8,242.5,450.3,243.7z"/>
<path class="st2" d="M450.4,227.3c-1-3.9-0.4-6.2,1.2-8.1C453,224,451.6,225.6,450.4,227.3z"/>
<path class="st2" d="M489.4,242.3c-2.4,1.9-3.9,2.3-5.6,1.8c-0.1,0-0.3-1-0.1-1.1C485.1,241.7,486.7,241.7,489.4,242.3L489.4,242.3z
	"/>
<path class="st2" d="M429.1,233.4l4.8,2.1c-2.4,1.3-4.1,0.7-5.4-1.1L429.1,233.4L429.1,233.4z"/>
<path class="st2" d="M425.4,225.7c0.2,0.7,0.3,0.9,0.2,1c-0.8,1.6-1.2,3.4-3.1,4c-0.2,0.1-0.6-0.4-0.6-0.5
	C422.5,228.3,423.3,226.6,425.4,225.7L425.4,225.7z"/>
<path class="st2" d="M495.1,241.2c0,2-0.2,3.9-2.6,5.2C492.8,243.8,493.1,242.1,495.1,241.2z"/>
<path class="st2" d="M476.4,245.5c-1.4-2.9-0.7-4.5,0.6-6.9C478,241.2,477.6,242.9,476.4,245.5z"/>
<path class="st2" d="M464.8,219.4c1.3-2.8,6.8-2.2,9.3-1.8C472.5,219.7,467,219.1,464.8,219.4z"/>
<path class="st2" d="M402.5,232.1c0.5-3.1,2.1-4,4.2-5.7C406.1,229.5,405,230.9,402.5,232.1z"/>
<path class="st2" d="M456.8,228.9c1.3-2.7,2.4-3.9,4.8-4.3C460.9,227.1,459.4,227.9,456.8,228.9z"/>
<path class="st2" d="M423.9,235.6c1.6,1.7,1.1,3.1-0.2,4.7C422.4,238.4,423.3,237,423.9,235.6z"/>
<path class="st2" d="M402.3,236.4c0.9,1.7,2.1,3.3,1.3,5.6C401.4,240.5,401.7,238.5,402.3,236.4z"/>
<path class="st2" d="M435.1,224.7c-0.7,1.7-1.8,2.6-3.7,1.8C432.2,224.5,433.7,224.8,435.1,224.7z"/>
<path class="st4" d="M222,85.2c-1.2-1.5-2.8-0.8-4.3-1c-3.6,1-7.2-8.6-3.6-10.4c0.2-0.1,14.7,2.5,14.8,2.7
	c10.9,14.6-36.8-11.6,0.1-0.2c1.6,0.5,2.1,3.9,2,5.2c-0.3,0.3-0.7,0.5-1.1,0.5c-3.6,0.4,5.2,1.4,1.5,2.8c-0.4,0.2-1,0.1-1.2-0.3
	c-2.9-4.5-5-1.3-7.2,0.9C222.6,85.7,222.3,85.6,222,85.2L222,85.2z"/>
<path class="st4" d="M230.1,81.5c0.3,0,0.6,0,0.9,0c0.4,0.9,0.9,1.6,1.9,1.7c8.8,0.9,25.8,10.3,27.8,19.3c0.3,1.8,0.5,3.6,0.8,5.4
	c-0.3,0-0.6,0.1-0.9,0.1c-1.4-0.8-1.8-2.4-2.1-3.9c-1.7-8.5-6.3-13.6-14.4-14.7c-0.9-0.1-13.9-4-14.5-4.6
	C228.4,83.5,228,82.3,230.1,81.5L230.1,81.5z"/>
<path class="st69" d="M292.9,169.4c1.9,0.1,1.1,1.7,1.1,2.7c-0.2,5.9-0.4,11.8-0.7,17.7c-1.4,1.8-2.7,3.5-4,5.3
	c0.5-6,0.4-11.9-0.5-17.8l-0.1,0.1c1.5-2.2,2.5-4.7,3.6-7.2L292.9,169.4L292.9,169.4z"/>
<path class="st70" d="M43.1,186.5c-0.1-0.1-0.2-0.3-0.4-0.4c-2-2.2-3.9-4.6-6.4-6.3c-1.6-1.5-3.2-3.1-4.9-4.7
	c-1.4-3.8,0.9-5.2,3.5-6.4c4.5,2,4.3,0.1,8.9,1.8c0.4,1.2,0.5,2.5,0.7,3.8c0,3.9,2.2,10.3,2.5,14.2c0.1,0.3,0.2,0.6,0.1,0.9
	c-0.2,1.3,0.7,3.1-0.6,3.8c-1.4,0.7-3.4-3.8-4.3-4.6C40.9,187.4,45,187.1,43.1,186.5L43.1,186.5z"/>
<path class="st71" d="M43.1,186.5c3.5,0,0.6,5.4,3.5,6.5v-4.1c-0.1-0.9-0.8-2.2,1-2.1c0.3,2.7,0.2,5.4,1,7.9c0.9,2.8,1,2.8,4.6,0.1
	c2.9-2.1,6.3-3.3,9.8-3.6c3.7-0.4,4.4-2.6,4.3-6c-0.1-3.1,1.3-5.2,3.6-6.8c0.1,0.7,4.8,8.8,5.5,9.7c0.8,1,2,1.9,1.4,3.6
	c-2.6,1.3-3.8-1.6-5.6-2.4c-0.9-0.4-1.9-1.2-2.6,0.1c-0.5,1.1,0.6,1.5,1.2,2.2c1.2,1.3,4,1.8,2.6,4.8c-6.4-6.4-13-4-19.3-0.3
	c-3.2,1.9-3.7,4.2-6,1.4C45.4,194,46.1,189.7,43.1,186.5L43.1,186.5z"/>
<path class="st15" d="M77,196.5c0.1,0.9,0,2.4,0.4,2.7c6.2,3.8,0.5,4.1-1.2,6.1c-2.5,2.9-6.2,4.8-7.2,9.3c-0.2,1-1.1,2-2.3,0.9
	c1.4-1.5,1.2-2.7-0.7-3.6c-1.7-0.8-3.4-1.6-5.7-2.8c3.2-0.9,4.9,1.4,7.1,1.6c1.2,0.1,2.6,0.2,2.9-1.2c0.3-1.3-1-1.7-1.9-2.2
	c-1.6-1-3.7-0.8-5.6-3.7c3,1.3,5.1,2.1,7.2,3.1c1.8,0.9,3.3,0.6,4.1-1.2c0.8-1.9-1.2-2.1-2.2-2.7c-1.4-0.9-2.9-1.6-4-3.3
	c1,0.4,2,1,3,1.3c1.5,0.4,3.1,2.7,4.7,0.5c1.7-2.3-1-3.2-1.5-4.8C75,195.5,76,195.5,77,196.5L77,196.5z"/>
<path class="st72" d="M38.6,102.2c-4.2,8.2-11.1,18.1-15.7,26.1c-2.6,4.5-2.3,7.7,1.8,10.5c0.7,0.5,1.2,1.4,1.7,2
	c-1.9-0.2-4-2.8-5.7,0.5c0.2-2.2,0.8-4.5-0.9-6.5c-0.7-0.8-0.8-1.9-0.2-3c4.7-9.4,11.9-20.6,17.8-29.3
	C37.7,102.4,38.2,102.4,38.6,102.2z"/>
<path class="st73" d="M77,196.5c-1,0-2-0.1-2.9-0.1l-0.3,0l-0.3,0c0.4-3-2.2-3.3-3.7-4.1c-1.9-1-2.1-2.1-1.4-3.9
	c0.9-2.5,2.3-1.3,3.4-0.6c2.1,1.2,4.1,2.7,6.1,4.1c0.2,0.1,0.4,0.2,0.6,0.3c1.3,1.7,1.4,3.2-0.7,4.3C77.5,196.5,77.2,196.5,77,196.5
	L77,196.5z"/>
<path class="st74" d="M34.4,168.4c1.1,0.3,0.1,0.3,0,0.9c-1.3,1.7-2.7,3.5-3,5.9c-3.9-1.2-6.4-5.3-10.5-6.4c2.9-1.1,5.8-0.3,8.7-0.3
	C31.2,168.5,33.3,170.5,34.4,168.4L34.4,168.4z"/>
<path class="st75" d="M42,153.7c-2.6-1.3-5.6,13.5-7.5,14.7c1.2-2.7,10.6-13.2,4.3-16.8c-3.5-2-7.1-4.1-9.4-7.8
	c4.8,2.1,8.4,6.2,12.9,8.8c1.5,0.9-2.7-0.1-1.6-1.8C43.2,150.7,42.7,152.1,42,153.7L42,153.7z"/>
<path class="st76" d="M36.4,179.8c2.9,1.2,5.3,2.9,6.4,6.3C40.3,184.3,38,182.6,36.4,179.8z"/>
<path class="st4" d="M212.6,109.6c-6.7,5.3-11.8-2.1-18-1.7c-0.4-0.1-1.1-1-1.4-1.2c-1.8-2.6-3.3-0.3-4.9,0.3
	c-0.6,0.2-1.3,0.3-1.9,0.3c-1.8,0-3.7,0.2-5.5-0.4c-1.8-0.6-1.2-2.5-1.8-3.8c-0.1-1.8-0.4-7.6-0.4-9.4c-0.1-1.7,1.9-4.8,3-4.8
	c3.2,1.4-4.2,7.5,25.4,2.7c6.6-2.7,0.8-8.6,13.6-9.4c2.4,0.4,1.5,16.8,1.7,18.1c0.2,2-0.9,20.8-0.9,22.9"/>
<path class="st4" d="M165.8,159.5c-0.3,0.1,3-0.3,6.4,0.7c2,0.6,3.3,3,2.4,5c-1.1,2.6,6.6,1.8,4.2,4.6c-7.4,3-3.6,3.6-1,5.2
	c1,0.6,1.1,2.2,0.2,3c-2.5,2.3-4.2,3.2-4.5,6.9c0,0.1-0.1,0.2-0.1,0.3c-0.5,0.8-1.1,1.3-2,1c-0.1,0-0.2-0.1-0.3-0.2
	c-1.1-1.3-0.1,0.4-0.2-1.4c-0.1-2.7,1.2,0.4-0.5-1.7c-0.3-0.4,4.9-3.9,5.1-4.4c0.1,0,0.2-0.1,0.3-0.1c1.6-0.4,1.7-2.9,0.1-3.5
	c-1-0.4-2.1-0.7-3-1.3c-0.6-1.1,0.3-1.4,0.9-1.8c1.4-1,2.1-1,2.9-1.3c1.5-0.5,2.3-2.2,0.8-2.6c-10.3-3.3-11.9,1.2-12.3,0.6
	c-0.4-1.3,4.6-2.5,7-3.2c1.9-0.6,1.8-3.4,0-4c-2.2-0.6-4-0.5-6.9-0.7c-0.4,0-0.6-0.4-0.5-0.8c0.5-1.8,2.6-3.6,3.7-5.1
	c1.2-1.6,0.1-1.9-0.7-1.9c-4.1,0.3-3.9,1.4-7.3,2.6c0.1-0.4,0.2-1.2,0.3-1.2c5.5-2.2,12.9-4.6,4.9,5.2"/>
<path class="st2" d="M145.6,132.7c-0.2,2,0.5,4.3-1,6c-1.1,0.4-2.1,0.9-3.2,1.3c-2.6,0.9-4.4,0.2-4.5-3c-0.1-3.7-0.1-7.4-0.9-11.1
	c-0.8-3.7-2.9-18.6-0.8-19.8c1.8-1,8.7,13.5,10.6,13.6"/>
<path class="st77" d="M120.4,174.8c-0.1-4.4,1.4,0.9,1.8-3.5c0.5-6-3.7,1.6-8.7-1.5c-0.9-0.5-2.1-1.2-2.2-2.7
	c2.1-1.3,3.3,0.5,4.6,1.6c3.1,2.7,16.5,10.8,19.8,13.1c3,2,4.4,1.3,5.3-2.5c0.5-2.3,1.1-4.6,0.8-7c-0.6-5.5-0.7-11-1-16.5
	c-0.4-6.6,0.4-9.9-5.5-8.8c-0.9,0.2-4.9,0.4-4.1,3.1c-1-0.6-1.1-1.6-0.8-2.7c1.3-2,3.3-1.8,5.1-1.8c3.5,0.1,4.5-1.8,4.5-5.2
	c0-4.6-4.1-16.6-3.8-21.2c0.1-2-2.3-11-1.4-12.9c0.3-0.5,0.8-0.7,1.3-0.4c0.9,17.2,6.9,48.9,7.9,66.1c0,0.8,0,1.6,0,2.4
	c-0.1,12.1-3,13.9-12.8,7.8c-23.1-10.8-6.4-10.6-6.5-5.7C119.8,167.3,121.6,173.3,120.4,174.8L120.4,174.8z"/>
<path class="st4" d="M180.8,128.9l-0.2-4.6c-0.3-1.7-1.3-20.6-0.3-22.2c3.9-1.6,8.2-0.3,12.1-1.2c0.4,0,11.5-1.5,11.9-1.4
	c1.5,0.7-7.6,21.1-6.6,22.6c0.3,1.1-0.6,1.7-1,2.5c-0.1,0.9,0.5,1.9-0.1,2.7c-0.8,0.8-1.8,0.9-2.8,1c-2.4,0.1-4.9,0-7.3-0.5
	c-1.6-0.3-3.2-0.5-4.3,1.2C181.6,129.2,181.2,129.2,180.8,128.9L180.8,128.9z"/>
<path class="st78" d="M172.8,129.7c-2,1.1-2.8,5-6.1,3c1.5-1.3,1.7-3,1.7-4.9c-0.1-5.6,0-11.1,0.5-16.7c2.5,5.8,2.1,12.2,3.9,18.1
	C172.8,129.3,172.8,129.5,172.8,129.7L172.8,129.7z"/>
<path class="st79" d="M160.6,155.5c-0.1,1.3-0.1,2.5-0.2,3.8c-1.1,1.6-0.8,3.5-0.6,5.3c0.1,1.9-0.5,3.1-1.9,4.1
	c-1.1,0.3-1.9,1.5-3.7,0.8C155.8,164.6,158,160,160.6,155.5L160.6,155.5z"/>
<path class="st80" d="M156.7,118.3c0.1-1.6,1.4-4.9,1.5-6.5c0.2-1.6,0.8-2.4,1.1-4c0.2,0,0.5-0.1,0.8,0c0,8-4.5,17.2-5.4,25.1
	c0,0.2-0.4,0.5-0.6,0.5c-0.2,0-0.4-0.3-0.6-0.5l0.3-6.4C154.7,123.9,154.9,120.8,156.7,118.3L156.7,118.3z"/>
<path class="st2" d="M146.2,136.9c1.1,1.7,2.9,3,2.7,5.4c-0.1,1.3-0.7,3.5-2,3.1c-2.7-0.8-2.1-3.6-2.1-5.9
	C144.8,138.4,144.6,137.3,146.2,136.9L146.2,136.9z"/>
<path class="st81" d="M153.3,185.3c-3.7-6.5-2.6-13.4-1.6-20.3c0.3-0.4,0.6-0.4,0.9,0c-0.1,6.6-1.3,13.3,1.4,19.7
	C153.7,184.9,153.5,185.1,153.3,185.3L153.3,185.3z"/>
<path class="st82" d="M152.5,165.1c-0.3,0-0.6,0-0.9,0c0.2-4.7-0.2-9.5,1-14.2c0.3-0.4,0.5-0.4,0.8,0L152.5,165.1L152.5,165.1z"/>
<path class="st83" d="M153.4,150.8c-0.3,0-0.5,0-0.8,0c-0.1-4.7,0-9.3,1.7-13.8C154,141.6,153.7,146.2,153.4,150.8L153.4,150.8z"/>
<path class="st2" d="M148.9,157.2c-0.1,1.2-0.7,2.1-1.7,2.4c-1.1,0.3-1.5-0.8-1.4-1.8c0.1-1,0.2-2.4,1.4-2.5
	C148.1,155.3,148.5,156.3,148.9,157.2z"/>
<path class="st84" d="M109.8,46.2c1.7,2.5,0.2,4.7-0.5,7c-0.2-0.5,0.1-1.8-0.6-1.5c-1.6,0.8-3.7,0.6-3.8-2.3c-0.1-2.5,1.4-3.1,4-2.1
	C109.7,47.6,109.7,46.7,109.8,46.2z"/>
<path class="st85" d="M100.2,70.5c0,3.8-1.3,5.4-3.4,5.4c-2.5,0-6.7-4.9-6.7-4.9c0.1-2.1,4.7-0.9,6.7-1.1
	C98.4,69.7,99.9,68.8,100.2,70.5L100.2,70.5z"/>
<path class="st86" d="M92.4,39.4c1.4,0,2.9-0.5,3.1,1.3c0.2,1.6-1.2,1.4-2.2,1.5c-0.3,0-0.6,0.1-0.9,0.1c-1.4-0.1-3.6,2.4-4-0.2
	C88,39.5,91.2,40.3,92.4,39.4z"/>
<path class="st87" d="M94.2,47.4c-0.3,1.6-1.6,2.6-3.4,3c-1.2,0.2-1.9-0.8-1.9-2.1c0.1-1.8,0.8-3.3,2.5-3.6
	C92.4,44.4,94,46.3,94.2,47.4L94.2,47.4z"/>
<path class="st88" d="M101,49.8c1.2,9.8,2.6,15.8-2.4,15.8C105.2,64.1,98.1,53.1,101,49.8z"/>
<path class="st89" d="M68.8,48.1c0,1.5,0.3,3.2-1.3,3.8c-0.9,0.4-1.7-0.5-1.6-1.7c0-0.5-0.7-3.8,1.1-0.7c0.1,0.2,0.4,0.1,0.6,0.2
	c-0.1-1.1-0.2-2.3-0.3-3.4c-0.1-1.3-2.3,0.1-1.8-1.8c0.1-0.3,0.7-0.8,0.9-0.8c1.3,0.3,1.9,1.4,2.1,2.8
	C68.6,47.1,68.7,47.6,68.8,48.1L68.8,48.1z"/>
<path class="st90" d="M95.4,82.4c0.9-0.6,0.6-1.6,0.7-2.5c3.4,3,9.2,8.9-6.3,22.8c-0.2-0.1-0.5-0.2-0.7-0.4
	C103.1,87.7,97.3,85.9,95.4,82.4L95.4,82.4z"/>
<path class="st91" d="M424.3,160.5c-0.2,0.4-0.3,1-0.8,1.1c-3.8-15-5.3-8.5-7.8-23.8c-1.4-8.6,5.2-17.4,1.3-25.4
	c-0.2-0.5-0.1-1.2-0.1-1.8c4.6,5.4-2.1,12.4-1.1,19.2c2.3,15.2,5.5,12.8,8.5,27.8"/>
<path class="st92" d="M402.9,92.1c0.3-0.8,0.6-0.8,1,0c0.4,3.9-0.9,7.8,0.5,11.7c0.7,1.8-0.3,2.4-2,2.5c-4.4,0.3-7.1,4.2-10.7,6.2
	c-0.2,0.1-0.2,0.9-0.2,1.3l0-0.1c-1.2-1.6-2.4-3.1-3.6-4.7c1-0.3,2-0.6,2.9-0.8c3.3,0.6,5.7-0.8,7.6-3.6c0.9-1.4,1.7-2.8,3.3-3.4
	c1.8-0.9,1-2.6,1-4C402.8,95.5,402.9,93.8,402.9,92.1L402.9,92.1z"/>
<path class="st93" d="M391.5,113.8c6-0.5,12.1-1.9,17.8,1.6c0.6,0.4,1.4,0.5,1.4,1.7c-2.3,0.4-4-1.3-6-1.9c-2.9-0.8-5.8-0.9-8.6-0.1
	C394.2,115.7,392.6,115.7,391.5,113.8L391.5,113.8L391.5,113.8z"/>
<path class="st94" d="M422.9,104.3c-0.5,0.5-11.6-2.1-10.5-0.5c1,1.5,2.2,2.9,3.3,4.3c-5.6-3.8-10.2-8.4-11.1-16
	c0.1-0.5,0.1-1,0.2-1.5c1.7,1.5,1.8,3.9,2.3,5.9c1,3.6,12.9,7.3,16.3,6.8C423.4,103.7,422.9,104,422.9,104.3L422.9,104.3z"/>
<path class="st95" d="M424.3,157.5c0.3-0.4-1.1,4.4-0.9,4c1.2,6.5-3.2,11.4-11.9,16.1C425.9,177.6,426.1,165.8,424.3,157.5z"/>
<path class="st96" d="M401.4,131.9c0.3,4.3,2.2,25.3,0.6,29.6l-1.9-1.1c-0.3-18.1,3.5-30.9-0.9-28.3"/>
<path class="st97" d="M493.2,171.3c-2.7-5.5-3.1-11.8-5.3-17.4c-1.8-4.7-0.9,7.3-2.7,2.6c0-1.3,0.8-1.4,1.7-1.5
	c4.3-0.2,2.7-0.8,7-1.4c3.5-0.5,1.7,10.4,0.8,13.5c-0.1,9.2,1.7-8.1-0.7,0.5C493.8,168.9,493.5,170.1,493.2,171.3L493.2,171.3z"/>
<path class="st4" d="M329.1,65.4c-4.1-1.2-6.8-7.6-7.1-6.7c-2,2.3,3.4,3.6-1.5,4.6c-2.5,0.5-8.5,3.1-8.5-3.2c1,0.6,2.3,1.8,3.4,2.1
	c3.8,1,4.6,0,3.8-4.1c-0.2-1-0.4-1.9-0.5-2.9c-0.2-1.5,1.5-2.3,2.4-1.1L329.1,65.4L329.1,65.4z"/>
<path class="st98" d="M339.8,70.1c-4.7,1.5-7.7-1.5-10.6-4.7C332.9,66.3,335.8,69.4,339.8,70.1z"/>
<path class="st99" d="M206.3,66.6c0.3,0.7,2.2,0.5,0.9,2c-2,2.5-4.3,2.8-6.9,1.3c-2.7-1.6-4.7-3.6-3.7-7.4c1,0.2,2-1.2,3.1-0.1
	C201.8,63.8,204.4,64.6,206.3,66.6L206.3,66.6z"/>
<path class="st100" d="M196.5,62.5c1.4,7.2,4.9,9.2,10.6,6.1c-1.3,4.3-4.4,3.5-6.9,2.2C197.4,69.2,194.2,67.1,196.5,62.5z"/>
<path class="st101" d="M179.8,58.8c0.4-2.4-0.1-4.5-1.7-7.1c2.9,2.1,4.1,5.2,3.3,7.2c-0.3,0.9-0.8,1.8-1.8,1.8
	c-0.8,0-1.4-0.5-1.6-1.3c-0.2-0.8-1.1-1.9,0.2-2.3C179.3,56.7,178.5,58.9,179.8,58.8L179.8,58.8z"/>
<path class="st102" d="M207.8,51.2c0.3-0.2,0.1-2,1-0.5c0.4,0.7,0.2,1.8,1.1,2.4c-0.3,2,0.7,3.6,1.1,5.4c0.4,1.6,0.9,3.1-1.6,3.5
	C210.3,58,208,54.8,207.8,51.2z"/>
<path class="st103" d="M206.3,66.6c-2.3-1.2-4.9-2-6.7-4.2C202.3,62.9,204.9,63.6,206.3,66.6z"/>
<path class="st104" d="M43.9,97.3c-1.8,1.7-3.5,3.3-5.3,5c0.7-3.1,2.9-4.7,5.2-6.2C43.8,96.5,43.8,96.9,43.9,97.3z"/>
<path class="st4" d="M301.1,132.7l-0.3,0.9c-3,0-6.1-0.5-9.8,0.5c4,2.3,8.4,0.7,11.6,3.5c-3.3,2.3-6.7-0.3-10.2,0.2
	c1.4,0.9,3.2,0.7,4.2,2.1c0.4,0.6,0.2,1.3-0.6,2c-3.8-2-3.5-0.1-7.3-2.1c0-1.2-0.9-4.7-0.9-5.9l0.2-1.7c0.2-0.6,0.1-1.4,0.9-1.7
	c0.6,0,1.1,0.3,1.6,0.6C294,131.6,297.9,129.3,301.1,132.7L301.1,132.7z"/>
<path class="st105" d="M292.3,170.2c-0.2,3-1.1,5.5-3.6,7.2C289.3,174.7,290.6,172.3,292.3,170.2z"/>
<path class="st4" d="M216.5,210.8c-1.4-0.1-2.8-0.1-4.2-0.2c-0.2-0.2-0.5-0.6-0.7-0.6c-7.3,0.7-14.2-2.8-21.5-2.3
	c-1.2,0.1-3.4,1.6-3.3-1.8c0.1-2.5,1-5.1,3.3-4.6c5.1,1.1,9.6-2.3,14.6-1.3c3.5-1.8,6.9-2.1,10.3,0.3c0.5,0.2,1,0.6,1.5,0.7
	c4.1,0.5,6,3.9,4.5,8.1C220.1,211.6,218,210.2,216.5,210.8L216.5,210.8z"/>
<path class="st106" d="M218.6,57.8c0.3-13,2.7-18.8-8.6-13c-0.4,0.2,5.7-3.6,6.4-3.4c3.2,0.7,2-2,2.3-3.5c0.2,0.1,0.5,0.1,0.7,0
	C220.7,42.2,218.4,53.4,218.6,57.8L218.6,57.8z"/>
<path class="st4" d="M220.2,172.9c-4-0.1-8,0-12-0.3c-2.6-0.2-3.4,0.7-2.9,3.4c-0.9,0.4-1.4-0.3-1.5-1.1c-0.6-5.2-1.3-10.5,1.8-15.3
	c0.1,4.4,2.5,5.3,6,5.2c2.9-0.1,5.8,0.1,8.8,0.2C220.2,167.7,220.2,170.3,220.2,172.9L220.2,172.9z"/>
<path class="st56" d="M88.7,102.4c-4.7-8.6-18.4-6.6-24-3.5c-2.6,1.5-2.3-1.5-2.6-3.2l0.8-1c0.2,2.5,1.1,2.9,3.4,2
	C71.5,94.8,84.8,91.9,88.7,102.4L88.7,102.4z"/>
<path class="st107" d="M438.8,110c-0.4-3-1.1-6-0.3-9.6c5.1,5.6,9,11.7,13.3,17.5c0,0.9,7.4,11.4,1.2,10.7c-2.3-0.3-2.7-1.7-4.9-2.3
	l0,0.1C445.6,124,438.6,114.3,438.8,110L438.8,110z"/>
<path class="st108" d="M401.8,101.2c-2.1,4-5,7.1-9.1,8.6c-0.6,0.2-3.7,2.1-1.8-1.6c2.9-1.8,7.1-1.6,8-6.5
	C398.9,101.1,400.6,100,401.8,101.2L401.8,101.2z"/>
<path class="st109" d="M92,110.4c12.3-11.4,10.4-17.7,7.6-22.7c0.1-1.3-0.9-2.5-0.3-3.9c5.7,3.7,11.4,7.3,11.4,16.2
	C93.7,93.4,100.4,105.4,92,110.4C90.8,111.1,91.7,112,92,110.4L92,110.4z"/>
<path class="st110" d="M221.5,120.5c-0.3-3.6,1.6-20.4-0.4-23.9c1.7-3.7,0.2-7.6,0.9-11.4c0.3,0,0.6,0,0.8,0c0,10.2,0.1,25.6,0,35.9
	c0,3.3,2.6,6.2,8,7.4c-7-2.2-6.6,2.2-7.1,3.7c-1.6,5.2-3.3,5.2-5,10.4c-0.6,1.9-0.5,3.7,0.6,5.3c-1.5,1.1-2.9,1.6-4.5,0.2
	c1.9-2,1.6-3.8-0.5-5.3c-0.9-0.7-2.4-0.8-2.2-2.5c4.9-0.1,6.3-4,7.4-8.1c1-3.8,3.6-2.3,0.8-6.5c-0.7-1-1-2.3-0.6-3.6
	C221.7,119.1,219.6,123.3,221.5,120.5L221.5,120.5z"/>
<path class="st111" d="M209.7,147.9c-2-2.2-1.3-6.8,1.2-8.4c0.6-0.2,1,0.1,1.2,0.7c0.8,1.6,2.4,1.6,3.7,1.9c3.4,0.9-0.2,3.4,1.1,5.1
	c0.7,0.9-1.4,0.2-2.1,0.9C213.2,148,211.5,148,209.7,147.9L209.7,147.9z"/>
<path class="st50" d="M438.8,110c0.5,3.8,7.4,13.6,9.3,16.4c-4.2-1-9.6-12.2-10.2-16.3C438.2,110,438.5,110,438.8,110z"/>
<path class="st112" d="M289.6,116.3c-3.3-0.2-2.1-4.2-4-5.6c-3.3-5.8-3-12-1.5-18.7c1.6,1.3,1.4,3.2,2,4.7c0.8,0.9-0.5,2.1,0.3,2.8
	c0,0.9,0.8,0.1,0.2,0.3c-0.1,0-0.2-0.5-0.3-0.8c-0.1-0.8,0.2-1.5,0.5-2.2c-1.5-6.4,2.3-8.4,6.9-9.9c0.8,2.8-1.1,4.3-2.5,6.1
	c0.1,1.5,0,3,0.1,4.6c0,0.6,0.8,0.2,0.2,0.3c-0.1,0-0.1-0.1-0.1-0.3c0-1.2-0.2-2.5,0.9-3.3c2.3-3.2,3-8.3,8.4-7.4
	c0.2,3.2-3.6,2.7-4.1,5.3c-1.9,2-1.9,4.3-0.2,6.1c1.8,1.8,3-0.8,4.3-1.7c1.2-0.9,2.3-1.8,3.8-1.8c2.5-0.2,5.1-1.3,7.3,0.9
	c0.1,0.5,0,1-0.2,1.4c-1.5,1.4-3.4,1.5-5.2,1.9c-4.9,1.3-9.3,3.2-10.8,9.2c-0.7,2.9-4.2,3.9-4.5,7.2
	C290.8,115.9,290.3,116.3,289.6,116.3L289.6,116.3z"/>
<path class="st113" d="M292.4,94.1v5.9c-2-2.3-2.5-4.6-1.1-7.1L292.4,94.1z"/>
<path class="st114" d="M286.9,96.7c0.3,2,0.7,3.9,1,5.9c-1.9-1.6-3.2-3.4-1.8-6C286.3,96.7,286.6,96.7,286.9,96.7z"/>
<path class="st115" d="M311.6,96.7c-1.4-4-4.7-0.9-6.9-2.1c1.1-0.6,2.3-1.1,3.5-1.7c0.5,0.6,1.8,1,1.9,0.7c1.7-5.9,1.3,1.7,8.9-1.8
	c-2.8,2.2-6.4,4.7-4.6,9.4c0.3,0.4,0.4,0.9,0.1,1.4c-0.8,0.7-1.7,0.7-2.6,0.3C310,100.8,311.4,98.7,311.6,96.7L311.6,96.7z"/>
<path class="st109" d="M288.9,130.9c-0.3,0.6-0.7,1.2-1,1.7c-1.6-2.4-5.9-2.7-5-7.1c1.3-1.8,2.6-3.6,3.8-5.5c0.6-1,1.1-1.2,1.9-0.3
	C291.6,123.3,290,127.1,288.9,130.9L288.9,130.9z"/>
<path class="st4" d="M290.5,151.1c0-0.4,0-0.7,0-1.1c4.3,1.4,9,1.3,13.1,4.3c-3.7,0.6-7.3,1.2-11,1.8l-0.1,0.9
	c1.8,0.5,3.6,0.9,5.4,1.4c-0.4,0.4-0.8,0.7-1.2,1.1c0.3,0.2,0.4,0.4,0.3,0.6c-0.1,0.2-0.1,0.3-0.2,0.3c-0.3,0.3-0.6,0.5-0.9,0.8
	c-1.1,0.9-2.1,1.3-2.7-0.6l0-1.1c-1-1-3.6-0.8-3-3.2c1-3.8,4.5-2.2,6.8-3.2C294.6,153.2,292,154.1,290.5,151.1L290.5,151.1z"/>
<path class="st4" d="M291.4,144.2c0-0.3,0-0.5,0-0.8c4.6,1,9.2,2,13.8,2.9l0,1.5c-4,0-8,0-12.1,0c0-0.3,0-0.6,0.1-0.8
	C293.7,145.2,290.7,146,291.4,144.2L291.4,144.2z"/>
<path class="st116" d="M293.1,160.5c0.8,0.7,1.8,0.7,2.7,0.6c2.4,0.2,4.8,0.5,7.8,2c-3.4,0-5.9,0-8.4,0c-1.5-1-3.5-0.4-4.8-2.3
	C291.4,160.7,292.2,160.6,293.1,160.5L293.1,160.5z"/>
<path class="st117" d="M462.6,82.4c-0.4,5.2,1.2,10.6-1.8,15.4c-1.2-2.1-3.8-2.1-5.2-3.8c-2.6-0.5-2-3.1-2.7-4.9
	c-0.4-0.6-0.4-1.3-0.2-2c1.3-1.4,3.1-1.3,4.6-1.9c1.4-0.1,2.4-1.1,3.2-2.3C461.2,82.5,461.8,81.8,462.6,82.4L462.6,82.4L462.6,82.4z
	"/>
<path class="st118" d="M447.9,87.2c0.3,0.4,0.6,0.8,0.9,1.2c0.2,2.8,0.4,5.6,0.6,8.4c-2.4-1.8-3.7-5.1-6.9-5.9
	c-0.3-0.3-0.6-0.6-0.8-0.9c-0.4-1.6-1.3-3-1.1-4.7c0.3,0,0.5,0,0.8,0C443.6,85.8,445.8,86.5,447.9,87.2L447.9,87.2z"/>
<path class="st119" d="M442.8,90.3c3.7,0.4,5.6,3,6.7,6.5v-0.1c0.3,1.4,1.5,3.1-1.3,2.9c-0.6-0.6-1.2-1.2-1.8-1.8
	C444.5,95.6,442.5,93.5,442.8,90.3z"/>
<path class="st120" d="M461,83.5c-0.1,1.9-1.1,2.7-2.8,2.6c-1.9-0.7-3.6-0.1-5.2,0.9l-0.1,2.1c-0.7-2.2-1.4-4.3-2-6.5
	c0.2-0.2,0.4-0.3,0.5-0.5C454.5,83.7,457.9,81.9,461,83.5z"/>
<path class="st121" d="M455.6,94c2,0.9,5.8-1.2,5.2,3.8C458,98.2,456.3,96.9,455.6,94z"/>
<path class="st37" d="M448.2,99.5c1.6-0.4,1.1-1.8,1.3-2.9c2.3,2.4,3.7,5.5,4.9,8.7C452.3,103.3,450.7,100.9,448.2,99.5L448.2,99.5z
	"/>
<path class="st122" d="M442.8,90.3c0.6,2.8,2.4,4.9,3.6,7.4c-3.5-1.2-4-4.5-4.6-7.7L442.8,90.3L442.8,90.3z"/>
<path class="st123" d="M445.3,71.2c-3.2-4.8,0.5-3,2.5-2.9c3.1,1.7,7,2.2,10.5,0.2c3-1.7,4.6-0.6,0.5,5.1c-0.7,0-0.7-1.4-1.3-1.7
	c-3.4-0.8-6.7,0.4-10.1,0.8C446.6,72.7,445.8,71.7,445.3,71.2L445.3,71.2z"/>
<path class="st124" d="M454.7,52.1c2,0.9,0.3,6.1,1.5,7.5c0.2,1.1,0.1,2.2-1.8,3C455.5,59.6,454.5,54.7,454.7,52.1L454.7,52.1z"/>
<path class="st125" d="M461,83.5c-3.2-0.3-6.8,2.9-9.5-1.4c0.1-1.1-1.5-1.8-0.9-2.9c0.5-0.8,1.7-0.7,2.3-0.1c2.4,2.8,4.8,1,7.1,0.2
	c1.6,0.4,3.5,0.4,2.7,3.1C462.1,82.8,461.5,83.2,461,83.5L461,83.5z"/>
<path class="st126" d="M445.3,83.6c-2.1-0.4-5.1,0.2-5.1-2.9c0-1.9,2.9-1.9,4.6-1.8c1.5,0,3.1,0.7,3,3.1
	C447.8,84.1,446.8,84.2,445.3,83.6L445.3,83.6z"/>
<path class="st127" d="M447.9,87.2c-2.5,0.8-4.6-0.1-6.5-1.9C443.8,85,446.5,83.8,447.9,87.2z"/>
<path class="st128" d="M314.1,102.6c0.1-0.5,0.1-1,0.2-1.5c8-0.1,15.2-2.4,20.8-9.1c-3.8,9.9-10.6,16.7-19,21.8l-1,0
	C313.6,110.1,312.2,106.5,314.1,102.6L314.1,102.6z"/>
<path class="st129" d="M346.5,71.4c-2-3.8-2.8-1.7-3.6,0.8c-0.2,0.6-0.5,1.4,0.5,1.3c0.7-0.1,1.8-2.3,1.5,0.5
	c-0.1,0.9-0.9,1.8-1.9,1.5c-1.3-0.4-1.8-1.6-1.5-3c0.4-2.2,1.1-4.4,3.4-5c1.4-0.4,2,1,2.3,2.3C347.3,70.6,347,71,346.5,71.4
	L346.5,71.4z"/>
<path class="st130" d="M313.2,71.4c0.5,3.8-1.5,6.5-4,9C309.8,77.1,312.4,74.7,313.2,71.4z"/>
<path class="st131" d="M320.8,71.8c0,1.9-0.4,0.4-1.6,0.3c-1.1-0.1-1.5,1.4-1.6-0.3c0-2.2,0.5-3.7,1.9-3.5
	C320.8,68.5,320.7,70.5,320.8,71.8z"/>
<path class="st131" d="M309.5,72.7c0,1.9-0.4,0.4-1.6,0.3c-1.1-0.1-1.5,1.4-1.6-0.3c0-2.2,0.5-3.7,1.9-3.5
	C309.5,69.4,309.4,71.4,309.5,72.7z"/>
<path class="st132" d="M321.4,64.5c2.2-1.8,3.3,0,5.4,1.3C324.2,66.6,323,64.8,321.4,64.5z"/>
<path class="st112" d="M299.4,118.3c-2.6-0.9-5.3-1.8-8-2.7c-1.3-2.2,0-4.2,1.5-4.5c2.5-0.6,2.4-1.8,2.5-4c0.2-3.5,2-4.5,5-3.1
	c1.6,0.7,3.3,1.3,4.8,2.1c2,1,0.8,9.2-0.1,11.8c-0.1,0.2-0.3,0.4-0.5,0.6c-0.3,0.5-0.9,0.9-0.9,1.4
	C303.4,124.5,303.4,119.3,299.4,118.3L299.4,118.3z"/>
<path class="st133" d="M313.3,113.8c-0.1,1.3,1,2.5,0.2,3.9c-1.1,1.8-2.9,2.7-4.3,1.6c-1.6-1.3-2.2,3-2.7,1.1l0,0.1
	c1.1-2,5-7.9,6.5-7.1C313.1,113.4,313.2,113.6,313.3,113.8z"/>
<path class="st134" d="M239.7,100.9v34.7c-3-2.3-5.4-4.2-7.5-5.9C236.8,121.2,236.1,111,239.7,100.9z"/>
<path class="st135" d="M263.8,164.3c-3.4-7.2-7.2-12.4-11.9-16.9C258.9,147.3,264.8,154.9,263.8,164.3z"/>
<path class="st136" d="M244.1,139.8c1.9,0.7,3.8,2.3,5.8,4.6C246.9,143.4,245.6,141.4,244.1,139.8z"/>
<path class="st137" d="M119.4,155.7l0.7,0.8c3.1-0.3,6,0.8,8.9,2.1c-1-2.3-3.6-3.6-3.7-6.4c1.9-2.8,4.9-2.9,7.5-3.9
	c1-0.4,1.6,0.2,1.9,1.3c2.9,9.4,6.6,18.5,7.4,28.5c0.5,5.8-1.3,7.5-6.3,5.3c-15.1-6.6-17.8-9-21.5-10.7c-1.3-0.6-2.3-2-4-1.3
	c-4.5-2.8,0.9,0.8-3.3-2.6c-3.1-1.2-6-2.4-9.5-1.9c-2,0.3-4.2-1.1-4.9-3.7l0.1,0.1c-1.4-1.8-3.4-1.6-5.2-2c-1.7-0.4-3.8-0.8-3.6-3.3
	c0.3-2.6,2.4-1.5,3.9-1.6c0.8,0,1.7-0.1,2.1,0c-1.1-0.1-2.7,0.1-4.2-0.3c-1.3-0.4-2.7-1.1-2.7-2.7c-0.1-1.9,1.5-2.1,2.8-2.2
	c0.8-0.1,1.7-0.3,2.2-0.1c-0.8-0.2-2,0-3.2,0.1c-1.1,0-2-0.6-2.6-1.5c-2.1-3.2,0.8-10.7,4.4-11.5c4.6-1.1,8.8-0.1,12.2,3.5
	c2.6,2.8,5.1,5.7,6.6,9.4c1.3,1.4,3.1,1.8,4.7,2.4C113.1,154.2,116.3,154.9,119.4,155.7L119.4,155.7z"/>
<path class="st138" d="M105.3,150.8c-2-2.6-4.1-5.3-6.1-7.9c-3.9-5-8.9-4.8-14-3.3c-2.2,0.6-4.4,2.2-1.2,4.7c1.4,1,0.2,1-0.2,1.2
	c-1.2,0.5-2.1,1.3-1.5,2.8c0.5,1.2,1.4,1.7,2.8,1.9c2.2,0.3,4.7-0.4,7,1.5c-2.9,1-6-1.4-8.6,1.1c1.9,4.4,6.1,1.9,9.9,4.2
	c-2.8,0-4.5,0-6.2,0c-1.1,0-2.6-0.6-2.9,1.1c-0.2,1.8,1.4,2.2,2.7,2.5c1.4,0.3,2.9,0.3,4.3,0.6c1,0.2,1.3,1.1,1.3,2.1
	c-2.1-0.5-4.1-1.1-6.2-1.4c-5.2-0.8-3-5.8-4-8.7c-1-2.9-1.5-6.1-3.3-8.7c-1.6-2.3-1.2-4.9-0.9-7.5c0.2,0.1,0.4,0.1,0.6,0.2
	c5.8-1.8,11.5-4.9,17.8-3c0,1.8-1,2.6-2.9,2.7C98.9,140.8,103.8,144.2,105.3,150.8L105.3,150.8z"/>
<path class="st139" d="M42,153.7c0.2-1.3,0.1-2.5-1.3-3c3.2-6.2,6.5-12.4,9.7-18.7l0.9,0.4c-2.5,9.6-5,19.2-7.5,28.7
	c-0.2,0.5-0.6,0.6-1,0.4C41.1,159.1,42.4,156.3,42,153.7L42,153.7z"/>
<path class="st140" d="M92.6,163.1c2.7,1.8,5.3,3.4,8.8,2.8c2.2-0.4,4,1.3,5.7,2.8c-0.7,0.5-1.4,0.5-2,0c-3.6-2.6-6.2-1.5-7.9,2.6
	c-0.7-0.5-0.7-1.5-1.2-2.2c0.3,0.8,0.5,1.6,1.2,2.1c0.5,1.3-0.3,2.7-1.1,1.5C94.1,170,91.5,167.2,92.6,163.1L92.6,163.1z"/>
<path class="st141" d="M47.6,186.8c-0.3,0.7-0.7,1.4-1,2.1c-1.2-3.9-2.4-10.6-2.8-14.6c0.5-0.5,0.1-1.6,0.9-2
	C46,176.2,46.9,183,47.6,186.8L47.6,186.8z"/>
<path class="st142" d="M44.8,172.4c-0.3,0.7-0.6,1.3-0.9,2c-0.2-1.3-0.4-2.5-0.6-3.8c-0.2-3-0.4-6-0.6-9.1c0.3-0.1,0.7-0.2,1-0.4
	C44.1,164.9,44.4,168.7,44.8,172.4L44.8,172.4z"/>
<path class="st6" d="M213.5,141.3c-0.4-0.2-0.8-0.5-1.2-0.7c-0.8-1.1-1.7-2.1-3.1-2.1c-1.3,0.5-1.9-0.6-2.4-1.5c-1-2.3-1.4-5-4-6
	c-1.8-1-3.9-1.5-4.9-3.7c-0.5-0.6-1-1.1-1.5-1.7c3.2-2.2,6.4-0.4,9.8,0.4c-2.7-1.1-5.3-0.9-7.5-2.4c-1.4-0.6-2.7-1.4-3.4-2.9
	c2.6-3.9,6.2-3,9.8-2.7c0.6,0.1-0.1,0.3,0.4,0.1c0.2-0.1-0.4-0.2-0.5-0.4c-0.4-0.2-0.7-0.4-1-0.6c-3.1-1.9-3.4-1-6.6-2.1
	c-0.4-0.2-1.3-0.8-1.6-1.1c2.7-4.3,1.6-0.6,1.6-0.8c5.3-1.1,8.5-1.3,11.6,0.2c-3.4-1.3-5.2-0.9-10.7,0.9c-1.8-0.1-1.2-1.4-0.2-3.3
	c7.9-1.3,0.9-4,16.5-0.6c3.6,0.8,5.4,8.9,7,12.2c0,0.2,0.1,0.4,0.1,0.7c0,0.2-0.1,0.4-0.1,0.5c5.7,8.1-0.4,10-1.9,17.5
	c-0.3,1.4-1.2,1.4-2.4,1.1C216,141.5,214.7,141.4,213.5,141.3L213.5,141.3z"/>
<path class="st143" d="M196.2,113.6c4.6,3.7-5.9-2.4,5.6,2.7c1.8-0.2,4.4,0.7,5.5,1.9c-4.6-0.3-5-0.6-8.9-0.4c-0.3,0,0.8-2,0.5-2
	c15.2-0.1-1.7,1.8,0.9,0.2c-4.7-1.3-4.1-2.4-4.1-2.4"/>
<path class="st144" d="M173.7,171.8c-0.3,0.6-0.6,1.2-0.9,1.8c-1.2,0.1-2.5,0.4-3.9-0.4C170.2,171.1,172,171.6,173.7,171.8
	L173.7,171.8z"/>
<path class="st6" d="M156.7,118.3c0,2.7-2,5.6-3.1,8.1C154.3,123.8,152.9,120.6,156.7,118.3z"/>
<path class="st145" d="M131.4,149.9l4.7,9.1l-0.6,0.6c-3.4-2.3-6.8-4.6-10.1-6.9c2.2-1.9,0.4-4.5,0.9-6.7c0.3-0.3,0.5-0.3,0.7,0.1
	c0.4,2.8,2.4,1.1,3.6,1.6C130.7,148.6,130.5,149.5,131.4,149.9L131.4,149.9z"/>
<path class="st146" d="M197.4,122.4c3.5,0.5,7,1,11.2,3.4c-5.3,0.1-9.2-2.8-13.5-1.4C195.2,122.9,196.9,123.5,197.4,122.4
	L197.4,122.4z"/>
<path class="st147" d="M99.1,70.3c1-0.4,0.3,0.1,0.4,0.9c0.1,1.2-0.7,2.6-1.9,3c-0.8,0.3-6-2.9-6-3.7C91.5,69.2,99.4,71.8,99.1,70.3
	z"/>
<path class="st148" d="M127,146.2c-0.2,0-0.5,0-0.7-0.1c-2.4-9.8,1.2-13.9,0.7-23.9l1.1-0.1C129,132.1,126.2,136.2,127,146.2
	L127,146.2z"/>
<path class="st149" d="M119.4,155.7c-3.4,0.4-6.5-0.8-9.4-2.5C113.4,152.7,116.5,153.8,119.4,155.7z"/>
<path class="st150" d="M201.7,47.8c0,1.5-0.3,2.9-1.9,3.1c-1.5,0.1-7.4,0.4-7.4-0.9c0-1.4,4.6-4.2,6.3-4.3
	C200.2,45.6,201.6,46.6,201.7,47.8z"/>
<path class="st151" d="M196.8,41.7c1.1-0.2,5.5,1,5.1,1.8c-4.6-0.8-6.4,1.4-8.1,2.1c-0.6,0.3-3.2,3-3,2
	C191.4,45.1,195.5,42.8,196.8,41.7z"/>
<path class="st152" d="M214.7,45.7c1.7,0.4,2,3.1,2.1,4.3c0.1,1.4-0.6,1.8-2.3,1.8c-1.4,0-4.1-0.5-4.1-1.8
	C210.5,45.7,213.1,46.2,214.7,45.7L214.7,45.7z"/>
<path class="st153" d="M304.7,118.5c0.3-3.2,1.2,3.3-1.7,2.8c-0.7-0.1-5.5-15.1-6.2-15.2c-1.4-0.1,2.4-3.7,0.5-1.8
	c-2,2.1-2.2,4.6,0,7.6c-3.8-1.4-6.1-0.8-5.9,3.7c-0.4,0-0.8,0-1.3-0.1c0.1-2.4,0.5-4.7,2.9-5.8c0.5-0.2,1.1-0.7,1.2-1.2
	c2.1-10.2,10-10.5,17.2-12c-0.7,1.2-12,3.9-13.4,4.8"/>
<path class="st154" d="M453,87.1c1.3-3.1,3.2-2,5.2-0.9C456.5,86.5,454.8,87.5,453,87.1z"/>
<path class="st2" d="M457.8,71.6c-1.6,1.9-3.3,1.9-5,2.8c-0.1,0.1-0.3,0.1-0.4,0c-1.5-0.6-3.5-1.6-5-2.8c-0.4-0.3-0.3-1,0.2-1.1
	c3.4-1.1,6.7-1.1,10,0.1C458,70.8,458.1,71.3,457.8,71.6L457.8,71.6z"/>
<path class="st155" d="M446.4,44.3c-0.4,1.4-4.9,1.9-6.5,2.5c-1,0.4-2.5,0.8-2.8,0c-0.3-1.2,2.1-1.4,3.6-1.9
	C441.9,44.4,445.3,43.7,446.4,44.3z"/>
<path class="st155" d="M449.5,44.8c-5.1,0.9-4.2,0.8-5.8,1c-1.1,0.1-1.6,0.3-1.6-0.6c-0.1-1.3,2.4-0.9,3.9-1.1
	C447.1,44,447.8,44.1,449.5,44.8L449.5,44.8z"/>
<path class="st155" d="M462.7,44.6c0.4,1.4,2.9,1.6,4.6,2.2c1.1,0.4,2.6,0.8,2.9,0c0.4-1.2-2.2-1.4-3.7-1.9
	C465.2,44.4,463.8,43.9,462.7,44.6L462.7,44.6z"/>
<path class="st155" d="M456.6,44.6c6,1,4.3,0.8,6,1c1.1,0.1,1.6,0.3,1.7-0.6c0.1-1.3-1.6-0.8-3.2-1
	C459.8,43.9,460.2,43.9,456.6,44.6L456.6,44.6z"/>
<path class="st156" d="M466.8,51.2c-0.5,1.3-1.8,2-4.7,2c-3-0.1-3.9-0.9-4.5-2.2C460.7,52.1,463.7,52.2,466.8,51.2L466.8,51.2z"/>
<path class="st156" d="M450.4,51.5c-0.5,1.1-2,1.7-5.2,1.6c-3.3,0-4.4-0.7-5-1.8C443.6,52.3,447,52.3,450.4,51.5z"/>
<path class="st157" d="M302.6,116.3c-0.8,3.3,10.6-4.8,10.8-2.5c-1.5,0-5.4,6.6-6.9,6.6C306.3,118.8,301.4,117.5,302.6,116.3
	L302.6,116.3z"/>
<path class="st158" d="M100,161.3c-1.4-1.4-1.8-3.1-1.6-5.1C99.8,157.1,100.3,158.8,100,161.3L100,161.3L100,161.3z"/>
<path class="st143" d="M195.9,113c2.9-5.5,6.3-4.3,14.6,0.3c-6.5-1.5-10.3-6-14.1-0.3L195.9,113L195.9,113z"/>
<path class="st159" d="M206.3,135.8c-0.5-0.4-1.1-0.8-1.6-1.3c-0.7-1.8-1.1-3.7-2.8-4.7c0-0.3,0-0.6,0-0.9
	C205.5,129.6,205.4,133.1,206.3,135.8z"/>
<path class="st4" d="M498,152.4c-0.3,1.9-2.4,6.8-3.2,14.8c2.7-9.1-0.9-17.6-13.5-19.6"/>
</svg>
