<svg id="Layer_3" data-name="Layer 3" xmlns="http://www.w3.org/2000/svg" viewBox="0 0 64 64"><defs><style>.cls-1,.cls-2{fill:none;stroke:#000;stroke-miterlimit:10;stroke-width:2px;}.cls-2{stroke-dasharray:3.03 2.02;}</style></defs><g id="xcslSb"><path d="M22.25,18.31c1.57,0,2.44.86,2.94,2.45.64,2,1.28,4,1.83,6A7,7,0,0,0,30.3,31c1.55.93,3.05,1.91,4.59,2.84,1,.64,1.73,1.44.91,2.53a1.63,1.63,0,0,1-1.35.74,2.93,2.93,0,0,1-1.58-.58c-3.11-2-6.44-3.86-8.68-6.86a12.43,12.43,0,0,0,1.66,11.83c3.06,4.25,5.86,8.65,8.8,13,1,1.53,1,2.6-.21,3.34a2.36,2.36,0,0,1-1.22.36,2.89,2.89,0,0,1-2.29-1.45c-3.87-5.46-7.68-11-11.52-16.44-2.6-3.71-3-7.77-2.48-12,.16-1.2.23-2.41.35-3.74-4.28,2-4.77,5.59-5.51,9.08-.14.64-.07,1.42-.45,1.9a3.2,3.2,0,0,1-2,1.22h-.1A1.36,1.36,0,0,1,7.9,35.06c.9-5.94,2.9-11.42,8.67-15a13.21,13.21,0,0,1,4.94-1.67,6.73,6.73,0,0,1,.74-.05m0-2a6.28,6.28,0,0,0-1,.08,15.09,15.09,0,0,0-5.71,1.94C8.57,22.68,6.74,29.39,5.92,34.76a3.52,3.52,0,0,0,.78,2.85,3.27,3.27,0,0,0,2.54,1.14h.21a5.12,5.12,0,0,0,3.43-2,4.25,4.25,0,0,0,.79-2.31,3.67,3.67,0,0,1,.05-.43l.15-.69a21.22,21.22,0,0,1,.9-3.42,17.52,17.52,0,0,0,3,11.52q2,2.84,4,5.68c2.47,3.53,5,7.18,7.56,10.77a4.86,4.86,0,0,0,3.92,2.29,4.3,4.3,0,0,0,2.27-.66,3.8,3.8,0,0,0,1.82-2.42,4.81,4.81,0,0,0-1-3.74c-1-1.43-1.92-2.87-2.88-4.3-1.91-2.88-3.88-5.85-5.94-8.72a10.06,10.06,0,0,1-2.06-6.5,45,45,0,0,0,4.84,3.4l1.51,1a4.84,4.84,0,0,0,2.68.91,3.68,3.68,0,0,0,3-1.54,3.4,3.4,0,0,0,.7-2.71,4.31,4.31,0,0,0-2.18-2.72l-2.07-1.3c-.84-.52-1.68-1.05-2.52-1.56A4.94,4.94,0,0,1,29,26.23c-.58-2.12-1.26-4.23-1.85-6.08-1-3.18-3.2-3.84-4.85-3.84Z"/><path d="M16.66,40.37c.9,1.59,2.14,2.64,2.66,3.85.28.64-.44,1.93-.72,2.53a29.65,29.65,0,0,1-2.75,5,65.21,65.21,0,0,1-4.64,5.78,2.25,2.25,0,0,1-1.7.87,2.46,2.46,0,0,1-1.42-.49,1.74,1.74,0,0,1-.37-2.71c.76-1,1.56-2,2.36-3,3.11-3.76,5.49-6.78,6.58-11.82m-.84-5.55L14.71,40c-1,4.42-3,7.09-6.17,11-.79,1-1.63,2-2.42,3a3.94,3.94,0,0,0-.84,3,3.8,3.8,0,0,0,1.66,2.52,4.45,4.45,0,0,0,2.57.86,4.21,4.21,0,0,0,3.22-1.57l.77-.9a54,54,0,0,0,4-5.06,32.25,32.25,0,0,0,2.91-5.23l.1-.22c.5-1,1.24-2.54.64-3.94a10.67,10.67,0,0,0-1.53-2.33,14,14,0,0,1-1.23-1.71l-2.58-4.57Z"/><path class="cls-1" d="M25.08,15.13A4.32,4.32,0,0,1,20.45,11,4.29,4.29,0,0,1,25,6.84a4.44,4.44,0,0,1,4.7,4.1A4.44,4.44,0,0,1,25.08,15.13Z"/></g><path class="cls-1" d="M36.17,54.13,37.66,54"/><path class="cls-2" d="M39.68,53.81c23.65-2.54,16.6-10.62,16.6-10.62C53,34.4,31.55,35.75,43.47,27.92"/><path class="cls-1" d="M44.31,27.38c.4-.25.83-.5,1.3-.77"/><path class="cls-1" d="M53.78,9.22c0,3.32-6,15.1-6,15.1s-6-11.78-6-15.1a6,6,0,0,1,12,0Z"/><path class="cls-1" d="M47.78,11.76a2.54,2.54,0,0,1-2.71-2.39,2.51,2.51,0,0,1,2.65-2.44,2.56,2.56,0,0,1,2.73,2.38A2.58,2.58,0,0,1,47.78,11.76Z"/></svg>