<svg xmlns="http://www.w3.org/2000/svg" viewBox="0 0 64 64"><defs><style>.cls-1,.cls-2,.cls-3{fill:none;stroke:#000;}.cls-1,.cls-2,.cls-3,.cls-4{stroke-miterlimit:10;}.cls-1,.cls-2{stroke-width:2px;}.cls-2{stroke-linecap:round;}.cls-3{stroke-width:3px;}.cls-4{stroke:#fff;}</style></defs><g id="pencil"><path class="cls-1" d="M25.94,49.74l1.49.68a7.17,7.17,0,0,0,9.5-3.54L50.71,17.46,49.36,3.79s-14.43,8.14-14.58,9.36L22.4,40.24A7.17,7.17,0,0,0,25.94,49.74Z"/><line class="cls-1" x1="25.72" y1="32.13" x2="40.26" y2="39.59"/><line class="cls-1" x1="23.73" y1="36.91" x2="38.27" y2="44.37"/><polyline class="cls-1" points="34.78 13.15 41.84 13.84 43.23 16.6 33.93 35.39"/><polyline class="cls-2" points="43.23 16.6 47.07 15.58 49.22 19.76"/><polyline class="cls-3" points="46.84 5.24 47.58 7.2 49.64 6.66"/></g><g id="page"><polygon class="cls-4" points="55.22 38.71 42.45 38.66 41.37 41.66 52.95 41.71 57.65 58.44 6.57 58.44 13.62 41.67 20.26 41.66 21.29 38.66 11.62 38.66 2.05 61.44 61.61 61.44 55.22 38.71"/><line class="cls-1" x1="10.73" y1="54.6" x2="54.25" y2="54.6"/><line class="cls-1" x1="11.91" y1="50.05" x2="26.22" y2="50.05"/><line class="cls-1" x1="13.48" y1="45.42" x2="22.1" y2="45.42"/></g></svg>