<?xml version="1.0" encoding="utf-8"?>
<svg viewBox="0 0 500 500" xmlns="http://www.w3.org/2000/svg">
  <path d="M 176.997 414.079 C 172.753 414.079 168.627 413.249 164.618 411.592 C 160.61 409.934 156.956 407.446 153.654 404.13 L 25.627 275.51 C 19.025 268.876 15.724 260.824 15.724 251.35 C 15.724 241.875 19.025 233.821 25.627 227.189 C 32.228 220.555 40.127 217.24 49.322 217.24 C 58.518 217.24 66.652 220.555 73.726 227.189 L 176.997 330.938 L 424.564 82.935 C 431.166 76.301 439.064 72.868 448.26 72.631 C 457.455 72.394 465.354 75.829 471.956 82.935 C 478.557 89.567 481.858 97.621 481.858 107.096 C 481.858 116.571 478.557 124.624 471.956 131.256 L 200.339 404.13 C 197.037 407.446 193.383 409.934 189.375 411.592 C 185.366 413.249 181.241 414.079 176.997 414.079 Z" style="fill: rgb(112, 250, 175);"/>
</svg>