<svg id="Layer_3" data-name="Layer 3" xmlns="http://www.w3.org/2000/svg" viewBox="0 0 64 64"><defs><style>.cls-1{fill:none;}.cls-1,.cls-2,.cls-3,.cls-4,.cls-5{stroke:#000;stroke-miterlimit:10;}.cls-1,.cls-4,.cls-5{stroke-linecap:round;}.cls-1,.cls-3,.cls-4{stroke-width:2px;}</style></defs><path class="cls-1" d="M52.79,18l-19-11.75a5.59,5.59,0,0,0-6.05.1L10.09,17.94a6.2,6.2,0,0,0-2.73,5.19V53.58a6,6,0,0,0,5.82,6.12H49.84a6,6,0,0,0,5.82-6.12V23.25A6.19,6.19,0,0,0,52.79,18Z"/><path class="cls-2" d="M41,30.84a.81.81,0,0,1-.61.28.85.85,0,0,1-.63-.29c-.33-.38-.1-.6.24-1l6.4-7.66a.93.93,0,0,0-.1-1.34h0a.75.75,0,0,0-1,.11l-6.6,7.26a1.09,1.09,0,0,1-.7.36c-.22,0-.11,0-.28-.2a1,1,0,0,1,0-1.36l6.06-6.94a.25.25,0,0,0-.19-.42,10.77,10.77,0,0,0-6.1,3.7,13.89,13.89,0,0,0-3.12,5.43,7.91,7.91,0,0,0-.29,1.9,6.41,6.41,0,0,1-1.51,4.21L17.72,48.81a2.2,2.2,0,0,0-.56,2.29,4.27,4.27,0,0,0,.68,1.34,4.94,4.94,0,0,0,1.75.72,1.78,1.78,0,0,0,1.85-.68l12-15.9a5.45,5.45,0,0,1,4.08-1.86h0a5.89,5.89,0,0,0,1.85-.33A12.21,12.21,0,0,0,44.28,31a12.58,12.58,0,0,0,3.34-6.64.23.23,0,0,0-.39-.22Z"/><path class="cls-3" d="M15.76,25.32a20.38,20.38,0,0,0,4.64,7.06,12.1,12.1,0,0,0,5,3.21,5.74,5.74,0,0,0,1.73.25A5.15,5.15,0,0,1,31,37.33l13.2,15.72a1.75,1.75,0,0,0,2.1.52,3.68,3.68,0,0,0,1.18-.8,6.23,6.23,0,0,0,.58-2,2.14,2.14,0,0,0-.69-2L32.52,36.21a6.67,6.67,0,0,1-1.85-4.42h0a7.88,7.88,0,0,0-.37-2A13.58,13.58,0,0,0,27,24.49a10.69,10.69,0,0,0-6.14-3.42C20.62,21.05,13.8,18.64,15.76,25.32Z"/><line class="cls-4" x1="16.02" y1="13.82" x2="2.43" y2="22.86"/><line class="cls-4" x1="30.95" y1="3.37" x2="2.41" y2="20.7"/><line class="cls-4" x1="43.72" y1="12.25" x2="60.6" y2="23.5"/><line class="cls-4" x1="30.95" y1="3.37" x2="60.6" y2="21.12"/><rect class="cls-5" x="1.92" y="20.93" width="0.73" height="1.51"/><rect class="cls-5" x="59.99" y="21.57" width="1.11" height="1.41"/></svg>