<svg id="Layer_2" data-name="Layer 2" xmlns="http://www.w3.org/2000/svg" viewBox="0 0 64 64"><defs><style>.cls-1{fill:#fff;}.cls-2,.cls-3{stroke:#000;stroke-linecap:round;stroke-miterlimit:10;stroke-width:2px;}.cls-2{fill-rule:evenodd;}.cls-3{fill:none;}</style></defs><circle class="cls-1" cx="26.48" cy="25.89" r="21.52"/><path d="M26.48,5.36A20.53,20.53,0,1,1,6,25.89,20.55,20.55,0,0,1,26.48,5.36m0-2A22.53,22.53,0,1,0,49,25.89,22.53,22.53,0,0,0,26.48,3.36Z"/><path class="cls-2" d="M52.75,59.87,40.44,46.55a4.73,4.73,0,0,0-.86-.75c-2.8-1.87-.42-2.12,1-3.43l2-1.94c1.39-1.29,1.43-3.34,3-.48a6,6,0,0,0,.86,1.18L58.71,54.37a3.66,3.66,0,0,1-.2,5.17l-.59.54A3.67,3.67,0,0,1,52.75,59.87Z"/><circle class="cls-3" cx="26.48" cy="25.89" r="18.06"/><path d="M13.86,35.88a21.19,21.19,0,0,1-2.07-5.05,19,19,0,0,1-.57-5.71,16.34,16.34,0,0,1,1.38-5.85,14.88,14.88,0,0,1,3.56-5,15.26,15.26,0,0,1,20.33-.1,20.63,20.63,0,0,0-9.17.42,12.55,12.55,0,0,0-6.41,4.24,12.06,12.06,0,0,0-2.32,6.67,22.67,22.67,0,0,0,.13,3.92c.15,1.36.46,2.74.71,4.2l0,.18a3,3,0,0,1-5.6,2Z"/></svg>