<svg id="Layer_3" data-name="Layer 3" xmlns="http://www.w3.org/2000/svg" viewBox="0 0 64 64"><defs><style>.cls-1{fill:#fff;stroke:#000;stroke-miterlimit:10;stroke-width:2px;}</style></defs><g id="PKKFRv"><path class="cls-1" d="M23.12,26.22c-.87-.87-1.75-1.68-2.57-2.54a10.29,10.29,0,0,1-2.58-6c-.11-.81-.24-1.63-.28-2.45a13.81,13.81,0,0,0-1.21-4.08,6.33,6.33,0,0,1-.36-1.27.94.94,0,0,1,.16-.75c.16-.11.53,0,.75.13a3.24,3.24,0,0,1,.8.62,15.88,15.88,0,0,0,5,3.56,11.62,11.62,0,0,1,6.41,7.66.89.89,0,0,0,.32.51c0-.33-.06-.66-.1-1a11.68,11.68,0,0,1,2.74-9.08,16,16,0,0,0,3.13-5.15v0c.83-2.36,2-2.13,1.86.37v0a16,16,0,0,0,1,5.77,10.42,10.42,0,0,1,.65,5.57c-.33,1.42-.9,2.78-1.36,4.17-.07.19-.16.38-.25.58l.13.09c.28-.32.58-.62.84-.95A10.73,10.73,0,0,1,45.86,18a16.29,16.29,0,0,0,6.06-1.43,4.48,4.48,0,0,1,1.54-.39c.57-.07.74.21.47.73A4.84,4.84,0,0,1,53.18,18a15.75,15.75,0,0,0-3.44,4.94A11.57,11.57,0,0,1,42,29.41c-.3.09-.6.2-1,.35.84-.06,1.6-.13,2.33-.17a11.55,11.55,0,0,1,7.87,2.51c.65.53,1.33,1,2,1.58,1.14,1,2.6,1.37,3.9,2a5,5,0,0,1,.91.57c.49.4.42.79-.2.92a9.44,9.44,0,0,1-2.36.26,12.39,12.39,0,0,0-4.3.82,14.78,14.78,0,0,1-5.19.92A13.58,13.58,0,0,1,41,37.75l-1-.49c1,1,1.85,1.78,2.68,2.66a10.3,10.3,0,0,1,2.55,6c.11.82.22,1.64.27,2.46a12.66,12.66,0,0,0,1.1,3.67,12.7,12.7,0,0,1,.49,1.67.77.77,0,0,1-.19.64.64.64,0,0,1-.59-.07,11.6,11.6,0,0,1-1.77-1.42,12.9,12.9,0,0,0-3.61-2.52,31.68,31.68,0,0,1-3.15-1.94,10.7,10.7,0,0,1-3.58-5.37,8.55,8.55,0,0,0-.57-1.34l0,.49a14.47,14.47,0,0,1-3.12,10.33A13.7,13.7,0,0,0,27.94,57a5.84,5.84,0,0,1-.7,1.33,2.53,2.53,0,0,1-.63.47,2.61,2.61,0,0,1-.46-.71A3.8,3.8,0,0,1,26,56.79,14.68,14.68,0,0,0,25,51,11.51,11.51,0,0,1,25.3,42,11.84,11.84,0,0,0,26,40.41c-.35.39-.7.77-1,1.17A11,11,0,0,1,17,45.63,15.41,15.41,0,0,0,11.32,47l-.26.11c-1.86.72-2.39.06-1.1-1.47a3.11,3.11,0,0,1,.31-.32,15.82,15.82,0,0,0,3.28-4.84A10.09,10.09,0,0,1,17,36.17a41.16,41.16,0,0,1,4.28-2.07,2.87,2.87,0,0,1,.45-.15c-.91,0-1.91,0-2.91,0a9.72,9.72,0,0,1-6.28-2.08c-.85-.64-1.63-1.36-2.51-1.94s-1.85-1.07-2.8-1.58c-.5-.27-1.07-.45-1.55-.76a4.47,4.47,0,0,1-.79-.88A6,6,0,0,1,6,26.2a4.45,4.45,0,0,1,1.36-.12,12.08,12.08,0,0,0,5.18-1,11.73,11.73,0,0,1,10.22,1l.22.11Z"/></g></svg>