<svg id="Layer_1" data-name="Layer 1" xmlns="http://www.w3.org/2000/svg" viewBox="0 0 128 128"><defs><style>.cls-1,.cls-2{fill:none;stroke:#000;stroke-miterlimit:10;stroke-width:2px;}.cls-2{stroke-linecap:round;}</style></defs><path class="cls-1" d="M63.68,6h0C31.74,6,5.85,30.83,5.85,61.46l6.14,52a10.68,10.68,0,0,0,10.76,9.22H105a10.69,10.69,0,0,0,10.77-9.29l5.77-51.92C121.51,30.83,95.61,6,63.68,6Z"/><ellipse class="cls-1" cx="63.68" cy="64.33" rx="47.57" ry="45.63"/><path class="cls-2" d="M22.15,102.74c6.09,6.73,16.76,13.46,41.76,13.46,16.42,0,33.83-2.43,42.86-13.12"/><line class="cls-2" x1="63.68" y1="25.57" x2="63.68" y2="40.42"/><line class="cls-2" x1="43.47" y1="30.76" x2="51.21" y2="43.62"/><line class="cls-2" x1="28.67" y1="44.95" x2="42.08" y2="52.38"/><line class="cls-2" x1="23.25" y1="64.33" x2="38.74" y2="64.33"/><line class="cls-2" x1="28.67" y1="83.72" x2="42.08" y2="76.29"/><line class="cls-2" x1="43.47" y1="97.91" x2="51.21" y2="85.04"/><line class="cls-2" x1="63.68" y1="103.1" x2="63.68" y2="88.25"/><line class="cls-2" x1="83.89" y1="97.91" x2="76.14" y2="85.04"/><line class="cls-2" x1="98.68" y1="83.72" x2="85.27" y2="76.29"/><line class="cls-2" x1="104.1" y1="64.33" x2="88.61" y2="64.33"/><line class="cls-2" x1="98.68" y1="44.95" x2="85.27" y2="52.38"/><line class="cls-2" x1="83.89" y1="30.76" x2="76.14" y2="43.62"/><path class="cls-2" d="M70.66,64.33C66.35,52,65.06,49.62,64,47.32c-.17-.39-.52-.4-.7,0-1,2.18-2.53,4.44-6.61,17-4.24,13.09,5.18,13.75,6.69,18.52.18.57.57.62.8.1C66,78.9,74.93,76.58,70.66,64.33Z"/></svg>