<?xml version="1.0" encoding="utf-8"?>
<!-- Generator: Adobe Illustrator 26.3.1, SVG Export Plug-In . SVG Version: 6.00 Build 0)  -->
<svg version="1.1" id="Layer_1" xmlns="http://www.w3.org/2000/svg" xmlns:xlink="http://www.w3.org/1999/xlink" x="0px" y="0px"
	 viewBox="0 0 229 668.3" style="enable-background:new 0 0 229 668.3;" xml:space="preserve">
<style type="text/css">
	.st0{fill:url(#SVGID_1_);}
	.st1{fill:#4C495A;}
	.st2{opacity:0.1;enable-background:new    ;}
	.st3{fill:#5F5D7E;}
	.st4{fill:#FDC2CC;}
	.st5{fill:#6C63FF;}
	.st6{fill:#DFE6F5;}
	.st7{fill:#53526B;}
	.st8{fill:#FFFFFF;}
	.st9{fill:#865A61;}
	.st10{opacity:0.1;}
</style>
<linearGradient id="SVGID_1_" gradientUnits="userSpaceOnUse" x1="274.947" y1="-122.9807" x2="274.947" y2="512.5797" gradientTransform="matrix(1 0 0 -1 -154.9654 539.4742)">
	<stop  offset="0" style="stop-color:#808080;stop-opacity:0.25"/>
	<stop  offset="0.5351" style="stop-color:#808080;stop-opacity:0.12"/>
	<stop  offset="1" style="stop-color:#808080;stop-opacity:0.1"/>
</linearGradient>
<path class="st0" d="M218.9,236.5c-1.4-2.7-8.9-19.7-8.9-19.7l-12.5-32.4c0,0-8.9-13.7-8.9-16.2s-16.1-12.7-16.1-12.7
	s-13.1-3.9-14.1-4.3s-16.5-5.5-16.5-5.5s-6.1-8-7-5.9l0,0c0-0.1-0.1-0.1-0.1-0.2c-1.2-2.3-2-4.9-2.3-7.5c0-0.2-0.1-0.5-0.1-0.7
	c8.2-5.5,13.1-14.8,13.1-24.6c0-1.3-0.1-2.6-0.3-3.8c0.1-0.1,0.2-0.1,0.3-0.2c0.3-0.1,0.2-0.2,0-0.3c0.1,0,0.1-0.1,0.2-0.1
	c0.3-0.1,0.1-0.3-0.2-0.4l0,0c0.5-0.2-0.1-0.3-0.6-0.5c0-0.1,0-0.3-0.1-0.4c0.1-0.3,0.2-0.5,0.2-0.8c0,0,0.1,0,0.1,0.1
	c0.1-0.5,0.1-1,0-1.5c0,0.1-0.1,0.2-0.1,0.3c0.1-0.9-0.4-1.8-1.2-2.3c0,0,0,0-0.1-0.1l0.9-8.8c12.6-0.6,14.8-22,11.9-23.2
	s0-3.8,0-8.9s-9.5-10.9-9.5-10.9s-4,2-10.2-7.9s-29-11.5-30.5-8.9s-11.7,6-25,9.7s-10.8,19.5-8.6,22.8c1.8,2.8,2.9,6,3.1,9.3
	c0,2,4.2,10.3,4.2,10.3c-1.3,2.9,2,18.7,3,23.2c0,0.1,0,0.3,0,0.4c0,0,0,0,0,0c0,0.1-0.1,0.1-0.1,0.2c-0.2,0.5-0.3,1-0.2,1.5
	c-0.1,0.6,0,1.1,0.2,1.6c0.2,8.6,4,16.7,10.6,22.2c0,0.3,0,0.5,0,0.8c0.2,3.7,0.3,8,0.1,12.2c0,0.2,0,0.4,0,0.6
	c-1.5,0.3-2.7,1.3-3.4,2.7c-1.2,2.4-8.5,6.1-8.5,6.1s-12.7,0.6-13.9,2.9s-19.6,10.1-19.6,10.1s-9.7,5.7-8.3,12.1
	c0.7,3.4-1.3,8.6-3.5,12.8c-4.5-1.7-9.2-2.9-13.9-3.5l10.3,9.8c-0.2,0.3-0.3,0.5-0.3,0.5l-5.8,20.7c0,0-2,7.2-4,9s1.8,17.8,1.8,17.8
	s-2.2,11.3-4,14.2c-1.8,2.9,2.8,10.1,2.8,10.1l9.3,21.1l24.6,6.2c0,0,1.6,0.3,4.3,0.9c-0.1,0.5-0.2,1-0.3,1.5
	c-1.2,6.7-2.7,12.9-4.6,14.6c-4.6,4.1-4.4,22.4-4.4,22.4l0.2,25.9c0,0,1.6,32,0.8,33.2c-0.5,0.7,0.5,1.9,3.2,3
	c-0.1,0.5-0.2,1-0.2,1.5c-0.8,5.3-1.1,11.4,0.6,14c0.8,1.4,1.2,3,1.2,4.7c0,2.5,3.8,7.8,3.8,7.8s-3,21.7,2,29.1s9.3,20.9,6.9,24
	c0,0-4.2,9.2-2.2,13.3s0,6.4-2.6,7.4s-2.4,9-2.4,9l4.8,38c0,0,2.6,7.8,0.4,10.5S66.6,573,70,577.7s-4.8,13.3-4.8,13.3s-5,7.2,3,9.6
	c0,0,1.6,0.4-1.4,3.5s-3.6,7-1.6,8.4c0.4,0.3,0.9,0.5,1.3,0.6c-0.1,0.5-0.2,0.9-0.3,1.4c-0.8,4.1-2.2,9.4-4.9,11.9
	c-5.1,5.3-9.6,11.2-13.2,17.6c-2.8,5.2-4,10.2-0.9,12.5c7.3,5.5,16.5,7.2,22,5.1s13.1-8.8,13.1-8.8l1.8-7.6c0,0-1.2-4.7,4.8-6.4
	s11.7-8,11.7-8v-10.1c1.5-0.8,2.9-1.8,4.2-2.8c0,0,2.8-9.9,0-13.3s-3.8-4.5-0.2-6.6s4.1-6.8,1.5-10.9c-2.7-4.1-6.9-10.1-3.3-18.7
	s5-34.9,5-34.9s-1.7-17.9,0-22s-1.9-12.3-1.9-12.3s1.2-10.1,3.4-14.8s4-29.5,4-29.5s4-10.5,4-17.4s-6.2-23.2,3-27.5
	c0,0,4,3.5,2.4,17.6c0,0,4.6,16.4,4.6,21.5s3.4,23.4,3.4,23.4s0.4,5.9,1.8,8s0,8,0,8s5.2,4.9,3.8,8s0.2,10.2,0.2,10.2l-1.2,43.7
	c0,0-3.6,18.7,4.8,30c0,0-3,16.6-4.8,17.8s6.7,11.3,6.7,11.3s-2.3,6.6,2.4,6.9V627c1.7,2.9,3.9,5.5,6.7,7.4
	c4.4,3.1,2.6,13.9,2.6,13.9s5.6,13.7,20.6,10.7s16.9-4.3,16.1-9.2c-0.3-1.8-0.9-5-1.9-8.6c-1.6-6.3-4.1-13.8-7-17.6
	c-4.6-5.9-8.5-18.2-8.5-18.2s-1.8-4.1,0-5.5s1-3.9,1-3.9s1.8-5.1,0.2-8.2s3-9.6,3-9.6l-1.4-30l1.4-43.7c0,0-6.2-7.2-3.6-11.5
	s-3-10.3-3-10.3s-0.6-0.2,1-5.1c1-2.9,0.8-6-0.4-8.8c0,0-3.4-12.1,2.6-21.3c0,0,2.6-12.1,3.4-18.3c0.6-4.3,4-20.5,6.1-30
	c0.1-0.5,0.2-1,0.3-1.5c3,0.2,5.2,0.4,5.2,0.4s-4.6-32.2,0-38.8s-3.6-57.4-3.6-57.4s-2-8.9-3.2-17.9c-0.1-0.5-0.1-1-0.2-1.5
	c3.7-0.3,7.5-0.4,11.3-0.2c9.7,0.6,19.1-3.1,19.4-6.8c0.2-3.7,5.4-18.3,6.2-21.7C219.7,250.5,220.3,239.2,218.9,236.5z"/>
<path class="st1" d="M101.3,612.8v18.1c0,0-5.4,6.2-11.3,8s-4.7,6.4-4.7,6.4l-1.7,7.6c0,0-7.4,6.6-12.6,8.7s-14.2,0.4-21.2-5
	c-3-2.3-1.8-7.2,0.9-12.4c3.5-6.4,7.7-12.2,12.7-17.5c2.6-2.6,4-7.8,4.7-11.9c0.6-3,0.7-5.4,0.7-5.4L101.3,612.8z"/>
<path class="st2" d="M101.3,626.3v4.6c0,0-5.4,6.2-11.3,8s-4.7,6.4-4.7,6.4l-1.7,7.6c0,0-7.4,6.6-12.6,8.7s-14.2,0.4-21.2-5
	c-3-2.3-1.8-7.2,0.9-12.4c-0.1,5.5,1.5,11.6,9.4,11.4c8.5-0.3,16.8-3.3,23.5-8.5c0,0-0.2-12.8,8.7-15.7
	C95.7,630.2,98.7,628.5,101.3,626.3z"/>
<path class="st1" d="M172.4,659c-14.4,2.9-19.8-10.7-19.8-10.7s1.7-10.7-2.5-13.8c-2.6-2-4.8-4.5-6.4-7.4v-17.9l17.5-12.4l9.5,8.4
	l0.6,0.6c0,0,3.7,12.2,8.2,18.1c2.8,3.7,5.2,11.2,6.8,17.5c0.9,3.6,1.5,6.8,1.8,8.5C188.7,654.8,186.8,656.1,172.4,659z"/>
<path class="st2" d="M172.4,659c-14.4,2.9-19.8-10.7-19.8-10.7s1.7-10.7-2.5-13.8c-2.6-2-4.8-4.5-6.4-7.4v-6.9c2.8,2.9,8,8.6,9.1,11
	c1.6,3.3,1.7,15.3,8.9,17.5s21.2,4.1,22.3-1.4c0.5-2.1,1.2-4.1,2.1-6c0.9,3.6,1.5,6.8,1.8,8.5C188.7,654.8,186.8,656.1,172.4,659z"
	/>
<path class="st2" d="M68.9,609.3l32.4,3.5v9.5c-3.7,2.2-8.9,4.5-11.8,2.1c-4.4-3.5-17.3-7.9-21.3-9.8
	C68.7,611.7,68.9,609.3,68.9,609.3z"/>
<path class="st2" d="M171.2,607.4c-4.5-1.6-12.4,5.2-22.9,9.5c-1.5,0.7-3,1-4.7,1v-8.6l17.5-12.4l9.5,8.4
	C170.8,606,171,606.7,171.2,607.4z"/>
<path class="st3" d="M182.7,393.5c0,0-0.6,2.9-1.5,7c-2,9.4-5.4,25.6-5.9,29.9c-0.8,6.2-3.3,18.3-3.3,18.3
	c-5.8,9.1-2.5,21.2-2.5,21.2c1.2,2.8,1.3,5.9,0.4,8.7c-1.6,4.9-1,5-1,5s5.4,6,2.9,10.3s3.5,11.5,3.5,11.5l-1.4,43.5l1.4,29.9
	c0,0-4.5,6.4-2.9,9.5s-0.2,8.2-0.2,8.2s0.8,2.5-1,3.9s0,5.4,0,5.4c-4.5-1.6-12.4,5.2-22.9,9.5s-7-5.8-7-5.8s-8.2-10.1-6.4-11.3
	s4.7-17.7,4.7-17.7c-8.2-11.3-4.7-29.9-4.7-29.9l1.2-43.5c0,0-1.6-7-0.2-10.1s-3.7-8-3.7-8s1.4-5.8,0-8s-1.7-8-1.7-8
	s-3.3-18.3-3.3-23.3s-4.5-21.4-4.5-21.4c1.6-14-2.3-17.5-2.3-17.5c-8.9,4.3-2.9,20.6-2.9,27.4s-3.9,17.3-3.9,17.3
	s-1.7,24.7-3.9,29.3s-3.3,14.8-3.3,14.8s3.5,8.2,1.9,12.2s0,21.9,0,21.9s-1.3,26.2-4.8,34.8s0.6,14.6,3.2,18.6
	c2.6,4.1,2.1,8.7-1.4,10.9s-2.5,3.3,0.2,6.6s0,13.2,0,13.2s-11.1,8.7-15.9,4.9s-20.4-8.9-22.3-10.3s-1.4-5.2,1.6-8.4
	s1.4-3.5,1.4-3.5c-7.8-2.3-2.9-9.5-2.9-9.5s8-8.5,4.7-13.2s-3.3-18.3-1.2-21s-0.4-10.5-0.4-10.5l-4.6-37.9c0,0-0.2-8,2.3-8.9
	s4.5-3.3,2.5-7.4s2.1-13.2,2.1-13.2c2.3-3.1-1.7-16.5-6.6-23.9S64,426.4,64,426.4s-3.7-5.2-3.7-7.8c0-1.6-0.4-3.2-1.2-4.7
	c-1.7-2.7-1.4-8.7-0.6-14c0.7-5.1,1.8-9.5,1.8-9.5L182.7,393.5z"/>
<path class="st4" d="M144.6,173.5l-38.3,8.9c0,0-18.8-15.9-14.2-24.5c1.6-2.9,2.3-7.9,2.5-13.2c0.2-4.1,0.1-8.5-0.1-12.1
	c-0.3-5.3-0.7-9.2-0.7-9.2s39.2-22.1,37.9,0c-0.3,3.7-0.2,7.4,0.3,11.1c0.3,2.6,1,5.1,2.2,7.5c2.1,3.7,4.7,3.8,4.7,3.8L144.6,173.5z
	"/>
<path class="st2" d="M132.1,134.4c-11.4,8.2-26.9,7.4-37.4-1.9c-0.3-5.3-0.7-9.2-0.7-9.2s39.2-22.1,37.9,0
	C131.5,127.1,131.6,130.8,132.1,134.4z"/>
<circle class="st4" cx="114.5" cy="109.2" r="30.1"/>
<path class="st2" d="M144.6,173.5l-38.3,8.9c0,0-18.8-15.9-14.2-24.5c1.6-2.9,2.3-7.9,2.5-13.2c0.8,4.6,3.3,8.8,7,11.7
	c8.7,5.8,7.4,13,7.4,13l15.7-0.6c-1-6.4,4.9-9.9,6.8-10.7s1-4.3,1-4.3l1.7-11.9c2.1,3.7,4.7,3.8,4.7,3.8L144.6,173.5z"/>
<path class="st2" d="M182.7,393.5c0,0-0.6,2.9-1.5,7c-4.2-0.2-9.8-0.4-12.3,0.2c-4.3,1-21.4,1.4-21.4,1.4l-42.3,1.5v-1.3
	c-4.9,0-9.7,0.4-14.6,1c-7.2,1-18.5-0.4-25.6-1.6c-2.2-0.3-4.4-0.9-6.4-1.7c0.7-5.1,1.8-9.5,1.8-9.5L182.7,393.5z"/>
<path class="st5" d="M179.4,270.2c-0.6,3.6-0.2,9.6,0.6,15.6c1.2,9,3.1,17.8,3.1,17.8s8,50.5,3.5,57.1s0,38.7,0,38.7
	s-13.4-1.2-17.7-0.2s-21.4,1.4-21.4,1.4l-42.3,1.5v-1.3c-4.9,0-9.7,0.4-14.6,1c-7.2,1-18.5-0.4-25.6-1.6s-10.1-3.5-9.3-4.7
	s-0.8-33-0.8-33l-0.2-25.8c0,0-0.2-18.3,4.3-22.3c1.8-1.7,3.3-7.8,4.5-14.5c1.6-9.7,2.5-20.5,2.5-20.5l-29.5-79l-0.6-1.6
	c0,0,8.5-13.2,7.2-19.6s8-12,8-12s17.7-7.8,18.8-10.1s13.4-2.9,13.4-2.9s7-3.7,8.2-6.1c0.6-1.4,1.8-2.3,3.3-2.6
	c0.8,4.7,3.3,8.9,7,11.8c8.7,5.8,7.4,13,7.4,13l15.7-0.6c-1-6.4,4.9-9.9,6.8-10.7s1-4.3,1-4.3l1.8-12.6c0.8-2.1,6.7,5.9,6.7,5.9
	s15,5.1,15.9,5.5s13.6,4.3,13.6,4.3s15.5,10.1,15.5,12.6s8.5,16.1,8.5,16.1s-0.1,0.5-0.3,1.5C192.5,198.7,180.8,261.9,179.4,270.2z"
	/>
<path class="st4" d="M117.3,238.7c0,0-33.6-8.9-36.9-11.1s-22.7,10.3,1,27.2c0,0,29,6,36.7,0C125.8,248.8,117.3,238.7,117.3,238.7z"
	/>
<path class="st2" d="M189.9,185.5l4.1,0.2l12,32.2c0,0,7.2,16.9,8.5,19.6s0.8,14,0,17.3c-0.8,3.3-5.8,17.9-6,21.6
	c-0.2,3.7-9.3,7.4-18.6,6.8s-31.1,2.3-31.1,2.3s-23.2-2.4-37.5,4.9c0,0-9.1-18.8-8.2-54c0,0,16.1-1,20.2,0.6s23.9,6,26.4,3.7
	s14,4.3,14,4.3c1.2-2.6,1.2-5.6,0-8.2c-1.9-4.7-5.2-19.2-1-23.9S189.9,185.5,189.9,185.5z"/>
<path class="st2" d="M180,285.8c-9.6,0.7-20.4,2.1-20.4,2.1s-23.2-2.4-37.5,4.9c0,0-9.1-18.8-8.2-54c0,0,16.1-1,20.2,0.6
	s23.9,6,26.4,3.7s14,4.3,14,4.3c1.2-2.6,1.2-5.6,0-8.2c-1.9-4.7-5.2-19.2-1-23.9s17.1-27.4,17.1-27.4l3.8,0.2
	c-2,10.7-13.6,73.8-15.1,82.2C178.8,273.8,179.2,279.9,180,285.8z"/>
<path class="st5" d="M190.7,186.3l4.1,0.2l12,32.2c0,0,7.2,16.9,8.5,19.6s0.8,14,0,17.3c-0.8,3.3-5.8,17.9-6,21.6
	c-0.2,3.7-9.3,7.4-18.6,6.8c-9.3-0.6-31.1,2.3-31.1,2.3s-23.2-2.4-37.5,4.9c0,0-9.1-18.8-8.2-54c0,0,16.1-1,20.2,0.6
	s23.9,6,26.4,3.7s14,4.3,14,4.3c1.2-2.6,1.2-5.6,0-8.2c-1.9-4.7-5.2-19.2-1-23.9S190.7,186.3,190.7,186.3z"/>
<rect x="139.9" y="234.5" transform="matrix(0.5264 -0.8502 0.8502 0.5264 -123.3885 253.1575)" class="st6" width="51.3" height="5.7"/>
<ellipse transform="matrix(0.5264 -0.8502 0.8502 0.5264 -86.4831 254.8641)" class="st6" cx="185.5" cy="205.1" rx="16.4" ry="11.5"/>
<ellipse transform="matrix(0.5264 -0.8502 0.8502 0.5264 -86.4831 254.8641)" class="st2" cx="185.5" cy="205.1" rx="11.8" ry="8.3"/>
<rect x="130.7" y="265" transform="matrix(0.5264 -0.8502 0.8502 0.5264 -158.299 251.5431)" class="st7" width="31.9" height="5.7"/>
<path class="st4" d="M107.3,281.9l11.8-3.3c0,0,58.5,1.6,38.8-22.5c0,0-10.3-9.9-31.9-1.9c-21.6,8-27.6,8.9-27.6,8.9L107.3,281.9z"
	/>
<circle class="st2" cx="98.6" cy="178" r="2.3"/>
<circle class="st2" cx="138.6" cy="176.6" r="2.3"/>
<circle class="st8" cx="98.6" cy="177.2" r="2.3"/>
<circle class="st2" cx="101.9" cy="210.2" r="2.3"/>
<circle class="st2" cx="139.8" cy="207.9" r="2.3"/>
<circle class="st8" cx="101.9" cy="209.4" r="2.3"/>
<circle class="st2" cx="138.8" cy="320.3" r="2.3"/>
<circle class="st2" cx="108.1" cy="320.3" r="2.3"/>
<circle class="st8" cx="138.8" cy="319.6" r="2.3"/>
<circle class="st2" cx="110.5" cy="359.4" r="2.3"/>
<circle class="st2" cx="139.8" cy="357" r="2.3"/>
<circle class="st8" cx="110.5" cy="358.6" r="2.3"/>
<circle class="st8" cx="108.1" cy="319.6" r="2.3"/>
<circle class="st8" cx="139.8" cy="356.3" r="2.3"/>
<circle class="st8" cx="138.6" cy="175.8" r="2.3"/>
<circle class="st8" cx="139.8" cy="207.1" r="2.3"/>
<path class="st2" d="M143.3,288.9c0,0,0.4,53.2,1.6,62.7C144.8,351.6,145.3,291.4,143.3,288.9z"/>
<path class="st2" d="M153.2,313.5c-0.8,0,15.9,62.3,16.7,66.8S157.8,313.5,153.2,313.5z"/>
<path class="st2" d="M166.4,303.4c0,0.6,9.3,33.8,14,35.5C185,340.7,166.4,303.4,166.4,303.4z"/>
<path class="st2" d="M203.1,238.7c0,0-19.8,0.9-20.4,3.7S203.1,238.7,203.1,238.7z"/>
<path class="st2" d="M168.1,492c0,0-14.2,6-12,6.4S168.1,492,168.1,492z"/>
<path class="st2" d="M138.8,483.1c-0.6-1.2,9.5,5,9.5,5.8S139.6,484.8,138.8,483.1z"/>
<path class="st2" d="M152,503.5c0,0,11.1-0.6,11.8,3.7S152,503.5,152,503.5z"/>
<path class="st2" d="M72.4,503.4c0,0,12-2.4,13,0S72.4,503.4,72.4,503.4z"/>
<path class="st2" d="M76.9,576.7c0,0,0.8,9.9-2.1,12.2S76.9,576.7,76.9,576.7z"/>
<path class="st2" d="M75.4,597.7c3.8,0.4,23.8-3.1,23.6,0S75.4,597.7,75.4,597.7z"/>
<path class="st2" d="M167.2,585.6c0,0-6.8-1-5.2,3.6L167.2,585.6z"/>
<path class="st2" d="M40.3,198h-3.7L31,218.6c0,0-1.9,7.2-3.9,8.9s1.7,17.7,1.7,17.7s-2.1,11.3-3.9,14.2s2.7,10.1,2.7,10.1l8.9,21
	l23.7,6.2c0,0,41.8,9.1,43.7,10.5c1.9,1.4,3.7-0.6,5-13.2s5-37.1,8-38.3c0,0-23.3,2.5-25.2,2.1S80.5,258,80.5,258
	s-12.2-0.8-14.2,0.4c-1.9,1.2,2.5-5.6,2.5-5.6c0.8-3.1,0.8-6.4,0-9.5C67.5,238,66.8,178.5,40.3,198z"/>
<path class="st2" d="M116.3,258c-2.9,1.2-6.6,25.6-8,38.3s-3.1,14.6-5,13.2c-1.6-1.1-29.4-7.3-39.8-9.6c1.6-9.7,2.5-20.5,2.5-20.5
	l-29.5-79h3.1c26.4-19.4,27.2,40,28.6,45.3c0.8,3.1,0.8,6.4,0,9.5c0,0-4.5,6.8-2.5,5.6s14.2-0.4,14.2-0.4s9.3-0.6,11.3-0.2
	C93,260.5,116.3,258,116.3,258z"/>
<path class="st5" d="M39.6,198.7h-3.7l-5.6,20.6c0,0-1.9,7.2-3.9,8.9s1.7,17.7,1.7,17.7s-2.1,11.3-3.9,14.2
	c-1.7,2.9,2.7,10.1,2.7,10.1l8.9,21l23.7,6.2c0,0,41.8,9.1,43.7,10.5s3.7-0.6,5-13.2s5-37.1,8-38.3c0,0-23.3,2.5-25.2,2.1
	s-11.3,0.2-11.3,0.2s-12.2-0.8-14.2,0.4c-1.9,1.2,2.5-5.6,2.5-5.6c0.8-3.1,0.8-6.4,0-9.5C66.8,238.7,66,179.3,39.6,198.7z"/>
<path class="st2" d="M52.2,269c0,0-10.7,20.2-12.6,17.9S52.2,269,52.2,269z"/>
<path class="st2" d="M41.1,257.5c0,0-9.9,8.2-5.2,10.3C40.5,270,41.1,257.5,41.1,257.5z"/>
<path class="st2" d="M50.4,247.5c0.8,0.2,14.4,2.9,14.6,4.1S50.4,247.5,50.4,247.5z"/>
<path class="st2" d="M144.7,105.2c-0.9,0.3-1.4,1.2-1.3,2.1c-0.8,0.7-1.9-0.1-2.5-1c-0.7-0.9-1.4-2-2.4-1.9
	c-0.5,0.1-0.9,0.3-1.4,0.6c-1.6,0.5-2.9-1.3-3.7-2.9c-1.5-2.8-3-5.6-4.5-8.4c-3,1.8-6.6-0.1-9.6-1.9s-6.6-3.7-9.6-1.9
	c-4.5,2.6-4.6,11.2-9.3,13.3c-1.5,0.7-3.2,0.5-4.6,1.5c-1.4,0.9-2.1,2.7-2.7,4.4c-0.2,1-0.8,1.9-1.5,2.5c-0.5,0.3-1,0.4-1.6,0.4
	c-1.4,0.2-2.8,0-4-0.6c-1.4-0.9-1.9-2.5-1.4-4c0-0.1,0.1-0.2,0.1-0.2c0.5-0.6,0.9-1.2,1.3-1.9c0.5-1.2-0.2-2.7-0.1-4
	c0.2-2.3,2.7-3.5,3.1-5.7c0.2-0.9,0-1.8,0.2-2.7c0-0.1,0.1-0.2,0.1-0.3l-1.4,1c1.6-1.9,2.4-4.4,3.6-6.7c2.6-5,7.2-8.7,12.6-10.2
	c5.1-1.5,10.4-1.1,15.5,0.2c4.9,1.2,9.5,3.1,13.8,5.7c1.5,0.8,2.9,1.9,4,3.3c0.9,1.4,1.7,2.9,2.4,4.4c1.5,3.1,5.6,6,2.3,6.4
	c-2.7,0.4-0.2,2.3,1.2,3.6c0.3,0.3,0.6,0.6,0.8,0.9c0.5,1,0.4,2.2-0.2,3.1C143.2,104.7,145.5,104.9,144.7,105.2z"/>
<path class="st9" d="M144.7,104.4c-0.9,0.3-1.4,1.2-1.3,2.1c-0.8,0.7-1.9-0.1-2.5-1c-0.7-0.9-1.4-2-2.4-1.9
	c-0.5,0.1-0.9,0.3-1.4,0.6c-1.6,0.5-2.9-1.3-3.7-2.9c-1.5-2.8-3-5.6-4.5-8.4c-3,1.8-6.6-0.1-9.6-1.9s-6.6-3.7-9.6-1.9
	c-4.5,2.6-4.6,11.2-9.3,13.3c-1.5,0.7-3.2,0.5-4.6,1.5c-1.4,0.9-2.1,2.7-2.7,4.4c-0.2,1-0.8,1.9-1.5,2.5c-0.5,0.3-1,0.4-1.6,0.4
	c-1.4,0.2-2.8,0-4-0.6c-1.4-0.9-1.9-2.5-1.4-4c0-0.1,0.1-0.2,0.1-0.2c0.5-0.6,0.9-1.2,1.3-1.9c0.5-1.2-0.2-2.7-0.1-4
	c0.2-2.3,2.7-3.5,3.1-5.7c0.2-0.9,0-1.8,0.2-2.7c0-0.1,0.1-0.2,0.1-0.3l-1.4,1c1.6-1.9,2.4-4.4,3.6-6.7c2.6-5,7.2-8.7,12.6-10.2
	c5.1-1.5,10.4-1.1,15.5,0.2c4.9,1.2,9.5,3.1,13.8,5.7c1.5,0.8,2.9,1.9,4,3.3c0.9,1.4,1.7,2.9,2.4,4.4c1.5,3.1,5.6,6,2.3,6.4
	c-2.7,0.4-0.2,2.3,1.2,3.6c0.3,0.3,0.6,0.6,0.8,0.9c0.5,1,0.4,2.2-0.2,3.1C143.2,104,145.5,104.1,144.7,104.4z"/>
<path class="st2" d="M143.1,99.2l-0.3,3.3c0,0-32.6-41.3-58,5.3c0,0-0.1-0.6-0.3-1.5c0.5-0.6,0.9-1.2,1.3-1.9c0.5-1.2-0.2-2.7-0.1-4
	c0.2-2.3,2.7-3.5,3.1-5.7c0.2-0.9,0-1.8,0.2-2.7c0-0.1,0.1-0.2,0.1-0.3l-1.4,1c1.6-1.9,2.4-4.4,3.6-6.7c2.6-5,7.2-8.7,12.6-10.2
	c5.1-1.5,10.4-1.1,15.5,0.2c4.9,1.2,9.5,3.1,13.8,5.7c1.5,0.8,2.9,1.9,4,3.3c0.9,1.4,1.7,2.9,2.4,4.4c1.5,3.1,5.6,6,2.3,6.4
	C139.2,96,141.7,97.9,143.1,99.2z"/>
<g class="st10">
	<path d="M143.9,104c-0.3,0.4-0.5,0.9-0.4,1.3c-0.8,0.7-1.9-0.1-2.5-1c-0.7-0.9-1.4-2-2.4-1.9c-0.5,0.1-0.9,0.3-1.4,0.6
		c-1.6,0.5-2.9-1.3-3.7-2.9c-1.5-2.8-3-5.6-4.5-8.4c-3,1.8-6.6-0.1-9.6-1.9s-6.6-3.7-9.6-1.9c-4.5,2.6-4.6,11.2-9.3,13.3
		c-1.5,0.7-3.2,0.5-4.6,1.5c-1.4,0.9-2.1,2.7-2.7,4.4c-0.2,1-0.8,1.9-1.5,2.5c-0.5,0.3-1,0.4-1.6,0.4c-1.4,0.2-2.8,0-4-0.6
		c-0.8-0.5-1.3-1.3-1.5-2.1c-0.3,1.4,0.3,2.9,1.5,3.7c1.3,0.6,2.7,0.8,4,0.6c0.5,0,1.1-0.1,1.6-0.4c0.8-0.7,1.3-1.5,1.5-2.5
		c0.6-1.7,1.4-3.5,2.7-4.4c1.4-0.9,3.1-0.8,4.6-1.5c4.6-2.1,4.8-10.7,9.3-13.3c3-1.8,6.6,0.1,9.6,1.9s6.6,3.7,9.6,1.9
		c1.5,2.8,3,5.6,4.5,8.4c0.9,1.6,2.2,3.4,3.7,2.9c0.4-0.2,0.9-0.4,1.4-0.6c1-0.1,1.7,1,2.4,1.9c0.6,0.9,1.8,1.7,2.5,1
		c-0.1-0.9,0.5-1.8,1.3-2.1C145.5,104.6,144.2,104.4,143.9,104z"/>
	<path d="M141.4,96.2c0.2-0.1,0.5-0.2,0.7-0.2c1.4-0.2,1.5-0.9,0.9-1.8c-0.3,0.1-0.6,0.2-0.9,0.3C140.6,94.7,140.7,95.4,141.4,96.2z
		"/>
	<path d="M144.4,102.8c0.1-0.5,0.1-1,0-1.5c-0.1,0.3-0.2,0.6-0.4,0.9C143.7,102.4,144,102.6,144.4,102.8z"/>
	<path d="M86.1,100.5c0,0.1,0,0.2,0,0.3c0,0.7,0,1.4,0.2,2.1C86.3,102.1,86.2,101.3,86.1,100.5z"/>
	<path d="M89.2,91c-0.4,0.7-0.8,1.3-1.3,1.9l1.3-0.9C89.2,91.8,89.2,91.4,89.2,91z"/>
</g>
<path class="st5" d="M84.9,107.1c0,0-4.7-21-3.2-24.3c0,0-4-8.3-4-10.3c-0.2-3.3-1.2-6.5-3-9.3c-2.1-3.4-4.5-19,8.3-22.7
	s22.6-7.1,24.1-9.7s23.4-1,29.4,8.9s9.8,7.9,9.8,7.9s9.2,5.7,9.2,10.9s-2.8,7.7,0,8.9s0.6,22.5-11.5,23.1l-1.1,11.3
	C142.8,101.7,110.2,60.4,84.9,107.1z"/>
<path class="st2" d="M86.3,44.5c0,0-2.8,16.5,2.3,22L86.3,44.5z"/>
<path class="st2" d="M99.5,40.7c0,0-7.2,17.7-5.4,21.1L99.5,40.7z"/>
<path class="st2" d="M105.7,35.1c0,0-4.9,23-2.5,24.9L105.7,35.1z"/>
<path class="st2" d="M114,41.3c0,0-6,14.8-3.6,16.8L114,41.3z"/>
<path class="st2" d="M125.4,43.1c0,0-7.1,12-5.6,14.2L125.4,43.1z"/>
<path class="st2" d="M140,54.8c0,0-7.6,2-6,4.5L140,54.8z"/>
<path class="st2" d="M147.2,67.3c0,0-6.8,3.3-5.5,5L147.2,67.3z"/>
<path class="st2" d="M81.7,82.8c0,0,43.4-17.6,62.2,7.7C143.9,90.5,121.1,71.1,81.7,82.8z"/>
<polygon class="st7" points="66,227.7 72,221.5 89.1,238.5 83.1,244.6 67.4,229 "/>
<path class="st6" d="M26.3,188.4c0,0,26.5,2.3,51.1,30l-10.3,10.4L26.3,188.4z"/>
<path class="st4" d="M105.7,238c0,0-25.5-9.3-28-11.5s-17.2,10.7,0.7,28.2c0,0,21.9,6.3,27.8,0C112.2,248.5,105.7,238,105.7,238z"/>
</svg>
