<?xml version="1.0" encoding="UTF-8"?><svg id="Layer_1_copy" xmlns="http://www.w3.org/2000/svg" viewBox="0 0 1366 768"><defs><style>.cls-1{fill:#fff;}</style></defs><path class="cls-1" d="M275.28,164.88c0-41.76,0-83.52,0-125.28,214.72,0,429.44,0,644.16,0-.76,.12-1.52,.3-2.28,.35-3.83,.26-7.69,.23-11.48,.77-10.14,1.44-20.14,3.58-29.92,6.62-11.66,3.63-22.79,8.41-32.83,15.48-13.99,9.84-23.54,22.82-27.94,39.46-2.59,9.78-2.92,19.74-2.62,29.76,.19,6.18-.17,12.33-1.21,18.4-1.44,8.43-3.08,16.82-4.75,25.2-1.86,9.34-3.55,18.7-3.98,28.22-.87,19.26,1.43,38.14,7.39,56.52,.19,.57,.3,1.17,.48,1.91-5.88,1.1-11.56,2.19-17.52,2.47,.24-1.12,.41-1.98,.61-2.83,1.7-7.27,2.52-14.65,2.58-22.1,.08-10.44-1.29-20.72-4.06-30.8-2.18-7.97-4.73-15.85-9.16-22.85-8.16-12.88-18.27-24.05-30.76-32.93-4.86-3.45-10.11-6.16-16.02-7.33-3.98-.78-7.96-.79-11.84,.52-2.47,.83-3.01,2.53-1.55,4.63,.27,.39,.62,.74,.88,1.14,1.69,2.62,3.53,5.15,5,7.89,3.28,6.13,5,12.68,3.75,19.64-.67,3.75-1.98,7.39-2.99,11.08-.44,1.61-1.04,3.22-1.23,4.86-.4,3.67,1.73,6.19,5.4,6.54,1.1,.1,2.26,.05,3.33-.17,1.87-.39,3.7-.98,5.54-1.49,.47-.13,.96-.23,1.36-.33-3.32,5.81-6.59,11.53-9.83,17.2-.01-.02-.15-.12-.21-.26-1.05-2.33-2.11-4.66-3.12-7.01-9.33-21.58-24.26-38.05-45.19-48.78-13.04-6.69-26.7-11.93-40.95-15.48-8.73-2.17-17.56-3.49-26.6-2.64-3.36,.32-6.62,1.06-9.76,2.33-1.22,.5-2.36,1.04-2.51,2.58-.15,1.53,.75,2.35,1.94,3.01,.21,.11,.42,.24,.62,.37,4.26,2.73,8.25,5.76,11.78,9.41,7.68,7.94,11,17.44,10.33,28.4-.19,3.03-.5,6.05-.72,9.08-.35,5,2.11,7.78,7.16,7.65,2.68-.07,5.41-.57,8.01-1.24,6.99-1.81,13.5-4.92,20.03-7.95,.54-.25,1.09-.46,1.75-.74-.06,.41-.04,.59-.11,.71-.35,.63-.72,1.24-1.09,1.86-3.81,6.49-7.34,13.12-9.79,20.26-1.62,4.72-2.72,9.53-2.34,14.57,.51,6.77,4.86,11.65,11.5,12.92,3.33,.64,6.68,.6,10.03,.24,8.24-.88,16.14-3.15,23.95-5.79,.73-.25,1.48-.45,2.76-.84-3.01,4.86-4.68,9.69-5.6,14.81-.93-.18-1.56-.28-2.18-.43-7.54-1.79-15.06-3.68-22.62-5.37-22.81-5.1-45.79-9-69.25-9.39-13.14-.22-26.21,.53-39.17,2.78-8.67,1.5-17.38,2.63-26.17,3.12-6.62,.37-13.24,.8-19.86,1.27-4.96,.36-9.88,.29-14.8-.66-9.47-1.82-18.23-5.4-26.29-10.62-4.63-2.99-9.05-6.31-13.48-9.6-16.83-12.48-33.62-25.02-50.44-37.52-5.64-4.19-11.03-8.74-17.29-12.07-8.78-4.69-18.03-8.2-27.54-11.04-17.3-5.16-34.96-8.32-52.99-9.38-9.76-.58-19.48-.37-29.18,1.07-3.77,.56-6.08,2.48-7.76,5.61-.41,.76-.92,1.47-1.38,2.2Z"/><path class="cls-1" d="M1090.8,250.8v473.76h-432.96c2.32-1.22,4.39-2.72,5.46-5.39,.61,.56,.96,.87,1.31,1.2,3.18,2.99,6.87,3.74,10.85,2.06,4.01-1.7,5.49-5.1,5.5-9.29,.01-3.81-1.2-7.21-3.46-10.26,2.47-4.45,3.51-9.2,3.42-14.13-.12-6.47-.42-12.94-.83-19.4-.5-7.98-1.16-15.95-.18-23.94,.75-6.11,2.45-11.89,6.07-16.98,.95-1.34,1.88-2.71,2.75-3.96,5.92,.61,11.79,1.25,17.67,1.8,11.48,1.07,22.99,1.17,34.5,.61,16.58-.8,32.91-3.24,49.02-7.22,26.09-6.45,50.59-16.83,74.04-29.86,18.12-10.07,34.28-22.6,48.36-37.81,10.75-11.61,19.95-24.36,28.14-37.87,6.6-10.89,12.25-22.28,17.59-33.81,2.74-5.91,4.38-12.33,6.5-18.52,.43-1.26,.78-2.55,1.04-3.39,3.33-.85,6.32-1.43,9.17-2.4,2.64-.9,5.15-2.17,7.68-3.36,5.42-2.56,10.78-5.23,16.22-7.75,5.8-2.68,11.72-5.13,17.48-7.88,7.44-3.54,14.65-7.53,21.23-12.55,3.83-2.93,7.43-6.14,9.87-10.36,1.02-1.76,2.2-2.38,4.15-2.47,4.57-.19,8.77-1.67,12.55-4.25,2.97-2.03,5.31-4.61,6.69-7.97,2.58-6.29-.39-12.12-7-13.63-1.39-.32-2.84-.39-4.28-.48-1.24-.08-2.49-.02-4.02-.02,.53-.89,.92-1.56,1.32-2.22,1.48-2.49,2.67-5.1,3.24-7.96,1.35-6.81-2.76-11.72-9.72-11.56-1.03,.02-2.08,.15-3.08,.38-4.8,1.11-8.56,3.82-11.56,7.66-.46,.59-.91,1.18-1.47,1.89-.72-1.12-1.22-1.94-1.75-2.73-1.66-2.43-3.8-4.32-6.49-5.54-6.45-2.94-12.67-.09-14.35,6.81-.57,2.36-.65,4.93-.42,7.36,.29,3.15,1.12,6.25,1.74,9.52-3.19,2.39-6.73,4.38-10.86,4.97-2.52,.36-5.09,.47-7.64,.52-3.91,.08-7.82,.02-12.01,.02,5.91-18.93,9.52-38.17,14.21-57.14,.42-.16,.78-.33,1.16-.44,15.28-4.34,29.86-10.41,44.01-17.58,10.13-5.13,19.53-11.26,27.4-19.54,12.58-13.22,19.88-28.82,21.31-47.08,.05-.61,.27-1.21,.41-1.82Z"/><path class="cls-1" d="M654.48,724.56H275.28V166.32c6.62,7.11,12.29,14.92,17.29,23.23,7.69,12.8,13.59,26.43,18.74,40.4,7.65,20.77,14.65,41.78,23.04,62.28,4.09,9.99,8.13,19.99,13.81,29.23,7.39,12.03,16.87,22.29,26.95,32.05,.85,.82,1.68,1.67,2.49,2.48-.7,1.89-1.38,3.6-1.96,5.33-4.49,13.19-4.77,26.71-2.62,40.28,1.39,8.75,3.49,17.38,5.22,26.08,1.15,5.8,2.16,11.62,3.29,17.42,.28,1.42-.08,2.49-1.18,3.38-.43,.35-.77,.81-1.14,1.23-7.94,8.65-14.08,18.4-17.68,29.63-3.91,12.18-4.61,24.44-.82,36.8,1.75,5.71,4.72,10.84,7.72,15.93,4.15,7.02,8.48,13.93,12.7,20.91,6.92,11.45,9.23,23.86,7.82,37.08-1.2,11.29-2.32,22.58-3.33,33.89-1.24,13.95-1.87,27.92-.87,41.91,.78,10.89,2.12,21.67,8.18,31.23-.35,.67-.7,1.3-1.01,1.94-3.15,6.53-1.53,15.39,3.68,20.14,3.55,3.23,8.36,3.55,12,.44,1.73-1.47,3-3.48,4.42-5.3,.49-.63,.8-1.4,1.39-2.45,.35,1.07,.47,1.7,.75,2.26,1.05,2.14,1.87,4.46,3.27,6.35,3.12,4.22,7.89,4.62,11.95,1.27,2.01-1.67,3.36-3.84,4.46-6.17,.32-.68,.66-1.36,1.08-2.22,.88,1.14,1.54,2.13,2.33,3.01,4.73,5.26,11.28,4.07,13.89-2.5,1-2.51,1.34-5.16,.92-7.78-.52-3.21-1.42-6.35-2.21-9.78,3.74-3.27,6.1-7.91,8.17-12.68,1.66-3.81,3.24-7.67,4.47-11.63,3.14-10.06,6.07-20.2,9.08-30.3,6.82-22.87,9.37-46.17,6.69-69.93-.93-8.27-2.42-16.48-8.22-23.36,1.05-.35,1.94-.68,2.84-.94,10.18-2.97,20.63-3.39,31.13-3.13,9.83,.24,19.65,.71,29.38-.64,.85,1.14,1.6,2.26,2.46,3.29,5.27,6.26,11.06,11.99,17.33,17.23,12.92,10.79,27.33,19.18,42.55,26.23,1.94,.9,3.55,2.06,4.98,3.62,7.59,8.31,12.54,18.08,15.82,28.76,3.83,12.46,5.18,25.33,6.29,38.25,.72,8.36,1.45,16.72,2.42,25.05,.63,5.41,1.68,10.84,4.68,15.49,1.74,2.69,2.54,5.4,2.48,8.49,0,.16,.01,.32,.03,.48,.41,3.27,1.02,6.49,2.65,9.4,2.6,4.64,7.04,5.11,10.59,1.15,.68-.76,1.3-1.57,2.2-2.67,1.4,3.12,3.71,4.96,6.62,6.08Z"/><path d="M654.48,724.56c-2.91-1.13-5.22-2.96-6.62-6.08-.91,1.1-1.52,1.91-2.2,2.67-3.54,3.95-7.98,3.49-10.59-1.15-1.63-2.91-2.24-6.13-2.65-9.4-.02-.16-.04-.32-.03-.48,.07-3.09-.74-5.8-2.48-8.49-3-4.65-4.05-10.08-4.68-15.49-.97-8.33-1.7-16.69-2.42-25.05-1.11-12.92-2.46-25.78-6.29-38.25-3.28-10.68-8.23-20.44-15.82-28.76-1.43-1.56-3.04-2.73-4.98-3.62-15.22-7.05-29.63-15.44-42.55-26.23-6.28-5.24-12.07-10.97-17.33-17.23-.86-1.03-1.61-2.15-2.46-3.29-9.73,1.36-19.55,.88-29.38,.64-10.5-.26-20.95,.17-31.13,3.13-.9,.26-1.79,.59-2.84,.94,5.79,6.88,7.28,15.09,8.22,23.36,2.68,23.76,.13,47.06-6.69,69.93-3.01,10.1-5.94,20.24-9.08,30.3-1.23,3.96-2.82,7.82-4.47,11.63-2.08,4.77-4.43,9.41-8.17,12.68,.79,3.43,1.69,6.57,2.21,9.78,.42,2.62,.08,5.26-.92,7.78-2.6,6.57-9.16,7.77-13.89,2.5-.79-.88-1.46-1.88-2.33-3.01-.42,.86-.75,1.54-1.08,2.22-1.11,2.33-2.45,4.5-4.46,6.17-4.06,3.36-8.83,2.96-11.95-1.27-1.4-1.89-2.22-4.21-3.27-6.35-.27-.56-.4-1.19-.75-2.26-.58,1.04-.89,1.82-1.39,2.45-1.42,1.81-2.7,3.82-4.42,5.3-3.64,3.11-8.45,2.79-12-.44-5.21-4.75-6.83-13.61-3.68-20.14,.31-.64,.66-1.27,1.01-1.94-6.06-9.56-7.4-20.34-8.18-31.23-1.01-13.99-.37-27.97,.87-41.91,1.01-11.31,2.13-22.6,3.33-33.89,1.4-13.23-.9-25.64-7.82-37.08-4.22-6.98-8.55-13.89-12.7-20.91-3.01-5.09-5.97-10.22-7.72-15.93-3.8-12.36-3.09-24.62,.82-36.8,3.6-11.23,9.74-20.98,17.68-29.63,.38-.41,.71-.88,1.14-1.23,1.1-.9,1.46-1.96,1.18-3.38-1.13-5.8-2.14-11.62-3.29-17.42-1.72-8.7-3.83-17.33-5.22-26.08-2.16-13.58-1.87-27.09,2.62-40.28,.59-1.73,1.26-3.44,1.96-5.33-.81-.81-1.64-1.66-2.49-2.48-10.08-9.76-19.56-20.02-26.95-32.05-5.67-9.24-9.71-19.24-13.81-29.23-8.4-20.5-15.39-41.51-23.04-62.28-5.15-13.97-11.05-27.6-18.74-40.4-5-8.31-10.67-16.13-17.29-23.23v-1.44c.46-.73,.97-1.44,1.38-2.2,1.68-3.13,3.99-5.05,7.76-5.61,9.71-1.44,19.43-1.65,29.18-1.07,18.03,1.06,35.69,4.22,52.99,9.38,9.51,2.84,18.76,6.35,27.54,11.04,6.25,3.34,11.64,7.88,17.29,12.07,16.82,12.5,33.61,25.03,50.44,37.52,4.43,3.29,8.85,6.61,13.48,9.6,8.06,5.22,16.83,8.79,26.29,10.62,4.91,.95,9.83,1.02,14.8,.66,6.62-.48,13.24-.9,19.86-1.27,8.79-.49,17.5-1.61,26.17-3.12,12.96-2.25,26.03-3,39.17-2.78,23.46,.39,46.43,4.3,69.25,9.39,7.56,1.69,15.08,3.58,22.62,5.37,.62,.15,1.25,.25,2.18,.43,.92-5.12,2.59-9.96,5.6-14.81-1.28,.39-2.03,.6-2.76,.84-7.81,2.64-15.71,4.91-23.95,5.79-3.35,.36-6.7,.39-10.03-.24-6.64-1.27-10.99-6.15-11.5-12.92-.38-5.05,.72-9.85,2.34-14.57,2.45-7.14,5.98-13.77,9.79-20.26,.36-.62,.74-1.24,1.09-1.86,.07-.12,.05-.29,.11-.71-.66,.28-1.21,.5-1.75,.74-6.53,3.02-13.03,6.13-20.03,7.95-2.61,.68-5.33,1.17-8.01,1.24-5.05,.14-7.51-2.64-7.16-7.65,.21-3.03,.53-6.05,.72-9.08,.68-10.96-2.65-20.46-10.33-28.4-3.53-3.65-7.52-6.69-11.78-9.41-.2-.13-.41-.25-.62-.37-1.19-.65-2.09-1.48-1.94-3.01,.15-1.54,1.28-2.09,2.51-2.58,3.14-1.27,6.39-2.01,9.76-2.33,9.04-.85,17.87,.46,26.6,2.64,14.25,3.55,27.91,8.79,40.95,15.48,20.93,10.74,35.86,27.2,45.19,48.78,1.01,2.35,2.07,4.67,3.12,7.01,.06,.14,.2,.25,.21,.26,3.24-5.68,6.51-11.39,9.83-17.2-.41,.1-.89,.2-1.36,.33-1.85,.5-3.68,1.09-5.54,1.49-1.08,.23-2.23,.28-3.33,.17-3.67-.35-5.81-2.87-5.4-6.54,.18-1.65,.78-3.25,1.23-4.86,1.01-3.69,2.32-7.33,2.99-11.08,1.25-6.96-.47-13.51-3.75-19.64-1.47-2.74-3.31-5.27-5-7.89-.26-.4-.61-.74-.88-1.14-1.46-2.1-.92-3.8,1.55-4.63,3.89-1.31,7.87-1.31,11.84-.52,5.91,1.16,11.16,3.87,16.02,7.33,12.49,8.88,22.6,20.05,30.76,32.93,4.43,7,6.98,14.88,9.16,22.85,2.77,10.08,4.14,20.36,4.06,30.8-.06,7.45-.88,14.83-2.58,22.1-.2,.85-.37,1.71-.61,2.83,5.96-.28,11.64-1.38,17.52-2.47-.18-.74-.3-1.34-.48-1.91-5.96-18.38-8.26-37.25-7.39-56.52,.43-9.52,2.12-18.89,3.98-28.22,1.67-8.38,3.31-16.78,4.75-25.2,1.04-6.07,1.4-12.22,1.21-18.4-.3-10.02,.03-19.98,2.62-29.76,4.4-16.64,13.96-29.62,27.94-39.46,10.04-7.07,21.17-11.85,32.83-15.48,9.79-3.04,19.79-5.18,29.92-6.62,3.79-.54,7.65-.51,11.48-.77,.76-.05,1.52-.23,2.28-.35h7.2c.36,.12,.72,.31,1.08,.35,5.96,.53,11.96,.8,17.89,1.6,11.56,1.55,22.67,4.8,32.97,10.37,22.19,11.99,35.63,30.26,39.41,55.39,.31,2.03,.9,4.07,1.68,5.97,2.65,6.49,6.98,11.8,12.06,16.52,9.85,9.15,19.22,18.75,27.57,29.31,11.82,14.94,21.09,31.24,26.47,49.6,2.41,8.22,4.29,16.54,4.64,25.15,.02,.53,.25,1.05,.39,1.58v15.36c-.14,.61-.36,1.21-.41,1.82-1.43,18.26-8.74,33.86-21.31,47.08-7.88,8.28-17.28,14.41-27.4,19.54-14.15,7.17-28.73,13.24-44.01,17.58-.38,.11-.75,.28-1.16,.44-4.69,18.97-8.3,38.21-14.21,57.14,4.19,0,8.1,.06,12.01-.02,2.55-.05,5.12-.16,7.64-.52,4.13-.59,7.67-2.58,10.86-4.97-.62-3.27-1.45-6.37-1.74-9.52-.23-2.43-.15-5,.42-7.36,1.68-6.89,7.9-9.74,14.35-6.81,2.68,1.22,4.83,3.11,6.49,5.54,.54,.79,1.03,1.61,1.75,2.73,.56-.72,1.01-1.31,1.47-1.89,3-3.84,6.76-6.55,11.56-7.66,1-.23,2.05-.36,3.08-.38,6.96-.16,11.07,4.75,9.72,11.56-.57,2.86-1.75,5.47-3.24,7.96-.4,.67-.79,1.33-1.32,2.22,1.53,0,2.78-.06,4.02,.02,1.43,.09,2.89,.16,4.28,.48,6.61,1.51,9.59,7.35,7,13.63-1.38,3.36-3.72,5.94-6.69,7.97-3.78,2.59-7.99,4.06-12.55,4.25-1.95,.08-3.14,.71-4.15,2.47-2.44,4.22-6.03,7.43-9.87,10.36-6.58,5.02-13.79,9.01-21.23,12.55-5.77,2.75-11.68,5.19-17.48,7.88-5.44,2.52-10.8,5.19-16.22,7.75-2.53,1.19-5.04,2.47-7.68,3.36-2.85,.97-5.84,1.55-9.17,2.4-.26,.84-.61,2.13-1.04,3.39-2.12,6.19-3.77,12.61-6.5,18.52-5.34,11.52-10.99,22.92-17.59,33.81-8.19,13.51-17.39,26.26-28.14,37.87-14.08,15.21-30.24,27.74-48.36,37.81-23.45,13.04-47.95,23.41-74.04,29.86-16.11,3.98-32.44,6.42-49.02,7.22-11.51,.55-23.02,.46-34.5-.61-5.88-.55-11.75-1.19-17.67-1.8-.87,1.25-1.79,2.62-2.75,3.96-3.62,5.09-5.32,10.87-6.07,16.98-.98,7.99-.32,15.96,.18,23.94,.4,6.46,.71,12.93,.83,19.4,.09,4.93-.94,9.69-3.42,14.13,2.26,3.05,3.48,6.45,3.46,10.26-.01,4.19-1.49,7.59-5.5,9.29-3.98,1.68-7.67,.93-10.85-2.06-.35-.32-.7-.64-1.31-1.2-1.07,2.67-3.14,4.17-5.46,5.39h-3.36Zm86.81-455.13c-2.29,3.35-4.35,6.39-6.42,9.42-.32,.46-.63,.94-1.02,1.33-.97,.97-2.18,1.1-3.27,.41-1.14-.72-1.54-2.05-.94-3.36,.26-.58,.66-1.09,1.02-1.62,1.1-1.57,2.22-3.13,3.31-4.71,3.79-5.5,5.14-11.63,4.69-18.22-.41-6.02-1.63-11.92-3.78-17.52-3.26-8.5-6.62-16.98-10.39-25.26-8.48-18.65-21.71-33.09-39.78-42.79-12.78-6.86-26.3-12.01-40.35-15.7-7.37-1.94-14.83-3.29-22.49-3.08-2.35,.06-4.73,.07-7.3,.94,2.04,1.68,3.91,3.14,5.68,4.71,10.12,8.98,15.64,20.07,15.25,33.79-.09,3.27-.5,6.53-.74,9.8-.23,3.21,.15,3.56,3.43,3.26,.48-.04,.96-.1,1.42-.23,2.77-.76,5.59-1.4,8.29-2.36,8.08-2.87,15.74-6.67,23.31-10.66,.71-.37,1.4-.77,2.12-1.12,1.59-.78,2.84-.64,3.71,.38,.82,.95,.75,2.31-.2,3.75-.17,.27-.38,.51-.56,.78-2.62,4.11-5.34,8.16-7.83,12.36-3.68,6.2-6.82,12.67-8.86,19.62-.95,3.24-1.59,6.52-1.26,9.93,.42,4.3,2.83,7.26,7.07,7.9,2.89,.44,5.9,.51,8.82,.24,8-.76,15.66-3.1,23.21-5.74,3.7-1.29,7.32-2.79,10.98-4.17,1.94-.73,3.4-.18,3.95,1.41,.43,1.24-.14,2.14-.93,3.02-1.43,1.61-2.95,3.17-4.19,4.92-7.46,10.5-8.81,21.53-2.67,33.14,.19,.35,.39,.71,.51,1.08,.45,1.36-.05,2.63-1.26,3.25-1.13,.59-2.34,.35-3.22-.72-.4-.49-.71-1.07-1-1.63-2.08-4.1-3.55-8.38-3.97-12.99-.08-.86-.24-1.71-.35-2.53-.71-.21-1.24-.4-1.78-.52-9.25-2.18-18.48-4.49-27.77-6.52-21.2-4.63-42.56-8.06-64.32-8.42-11.86-.2-23.65,.49-35.38,2.27-6.95,1.05-13.89,2.3-20.88,2.93-10.19,.93-20.41,1.4-30.62,2.05-1.75,.11-3.52,.27-5.27,.18-11.14-.57-21.47-3.9-31.29-9.08-6.33-3.34-12.01-7.6-17.72-11.86-17.62-13.16-35.27-26.28-52.94-39.39-4.56-3.38-9.03-6.92-13.86-9.87-9.14-5.56-19.21-9.03-29.43-12.04-16.78-4.94-33.91-7.99-51.37-8.99-9.19-.52-18.38-.39-27.5,1.17-1.8,.31-2.93,1.06-3.64,2.76,.38,.49,.75,1,1.15,1.48,6.38,7.53,11.93,15.63,16.78,24.22,7.34,12.99,13.08,26.69,18.1,40.71,7.56,21.15,14.96,42.35,23.51,63.13,4.27,10.37,8.84,20.56,15.37,29.76,6.56,9.23,14.31,17.41,22.4,25.28,.38,.37,.86,.64,1.3,.97,.23-.28,.4-.45,.52-.66,6.2-10.94,14.88-19.53,25.12-26.66,.59-.41,1.18-.84,1.82-1.15,1.2-.58,2.49-.26,3.23,.71,.77,1.01,.69,2.57-.25,3.52-.39,.39-.89,.67-1.33,1.01-3.2,2.52-6.53,4.91-9.57,7.61-14.54,12.89-22.05,29.09-22.57,48.53-.24,8.85,.83,17.56,2.6,26.19,1.8,8.77,3.92,17.46,5.76,26.22,1.18,5.64,1.91,11.31,1.25,17.14-.4,3.55-.15,7.18-.16,10.77,0,2.64,.11,5.28,.04,7.92-.04,1.48-1.08,2.36-2.48,2.41-1.39,.05-2.42-.77-2.7-2.21-.07-.39-.05-.8-.06-1.2-.08-4.24-.15-8.47-.25-12.71-.01-.58-.13-1.16-.25-2.12-.65,.72-1.04,1.1-1.39,1.53-7.05,8.8-12.2,18.54-14.59,29.63-2.73,12.64-1.68,24.79,4.75,36.23,1.72,3.07,3.42,6.15,5.23,9.17,3.67,6.1,7.46,12.12,11.1,18.23,7.53,12.65,9.82,26.34,8.09,40.86-.96,8.1-1.77,16.21-2.53,24.33-1.06,11.38-1.86,22.79-1.98,34.22-.11,10.01,.3,19.99,2.38,29.82,1.16,5.5,2.74,10.85,6.42,15.33,1.1,1.34,.98,2.24-.28,3.89-2.99,3.9-3.1,8.11-1.3,12.45,.53,1.29,1.42,2.53,2.41,3.52,1.71,1.7,3.6,1.76,5.32,.1,1.25-1.2,2.31-2.66,3.16-4.17,1.99-3.51,3.01-7.38,3.92-11.28,.14-.62,.26-1.26,.48-1.85,.42-1.1,1.35-1.56,2.45-1.6,1.07-.04,2.17,.82,2.42,1.97,.22,1.01,.22,2.06,.35,3.09,.34,2.61,.52,5.27,1.11,7.82,.54,2.31,1.3,4.64,2.38,6.74,1.73,3.39,3.81,3.48,6.23,.56,1.61-1.94,2.71-4.2,3.2-6.64,.54-2.65,.78-5.36,1.05-8.06,.2-2.02,1.21-3.13,2.95-2.95,1.23,.13,1.91,.84,2.33,2.36,.64,2.31,1.11,4.69,2.02,6.89,.75,1.81,1.85,3.56,3.13,5.04,1.53,1.78,3.02,1.46,4.16-.61,1-1.82,1.13-3.82,.98-5.83-.26-3.41-1.43-6.53-3.03-9.52-1.22-2.3-.75-3.41,1.49-4.61,1.03-.55,2.05-1.31,2.74-2.23,1.28-1.72,2.44-3.57,3.43-5.47,3.2-6.11,5.52-12.59,7.54-19.16,2.62-8.56,4.95-17.2,7.5-25.77,6.56-22.02,9.08-44.44,6.5-67.32-.9-8.03-2.18-16.05-8.45-22.29-1.4,.63-2.93,1.3-4.44,2.01-1.01,.48-1.97,1.08-3,1.51-1.44,.6-2.83,.07-3.48-1.21-.59-1.17-.24-2.51,.93-3.39,.32-.24,.69-.41,1.04-.59,10.86-5.69,22.42-8.95,34.66-9.39,8.14-.29,16.3-.1,24.46,0,8.1,.1,16.08-.29,24-2.41,24.97-6.66,48.29-16.78,68.98-32.48,15.77-11.97,28.71-26.36,37.4-44.32,7.9-16.33,11.13-33.59,10.11-51.66-.15-2.71-.51-5.41-.69-8.12-.13-1.88,.67-2.98,2.15-3.2,1.73-.25,2.85,.72,3.11,2.79,1.27,10.13,1.27,20.26-.14,30.37-2.1,15-7.15,28.97-15.06,41.9-.36,.59-.64,1.22-1.01,1.91,8.1,3.07,15.99,6.07,24.24,8.09,12.21,2.99,24.58,4,37.11,3.57,11.38-.39,22.61-1.88,33.71-4.36,21.61-4.83,41.94-12.99,61.36-23.54,1.95-1.06,3.87-2.17,5.94-3.32-.59-1.11-1.06-2.02-1.55-2.93-6.75-12.56-12.67-25.48-16.62-39.22-.31-1.07-.69-2.15-.79-3.25-.19-2,1.63-3.37,3.47-2.71,1.19,.43,1.57,1.47,1.87,2.59,3.91,14.18,9.81,27.55,16.97,40.35,6.2,11.09,12.76,21.99,19.2,32.95,4.53,7.72,9.17,15.4,12.56,23.71,1.53,3.76,2.61,7.71,3.82,11.59,.52,1.68,.31,3.22-.86,4.72-.86,1.1-1.48,2.49-1.85,3.85-1.91,6.96,4.08,16.09,11.24,17.3,1.34,.23,2.64,.06,3.63-.82,1.72-1.53,3.44-3.1,4.9-4.86,1.43-1.72,2.45-3.72,2.35-6.13-.03-.77,.26-1.58,.55-2.31,.53-1.34,1.48-1.85,2.83-1.69,1.12,.13,2.05,.93,2.24,2.17,.14,.93,.23,1.97-.02,2.85-.8,2.8,.3,5.04,1.93,7.1,1.99,2.51,3.66,2.39,5.49-.29,.49-.72,.97-1.5,1.24-2.32,.75-2.35,1.51-4.72,2.04-7.13,.49-2.26,.65-4.59,1.04-6.87,.27-1.57,1.38-2.37,2.9-2.23,1.36,.12,2.25,1.06,2.29,2.59,.03,1.11-.22,2.24-.15,3.35,.15,2.38,.34,4.77,.71,7.12,.13,.84,.83,1.59,1.27,2.36,1.82-.68,2.88-1.82,3.54-3.18,1.22-2.5,2.38-5.05,3.27-7.68,.74-2.18,.88-4.57,1.62-6.75,2.74-8.12,2.76-16.33,1.05-24.62-2.08-10.06-6.21-19.29-11.32-28.13-8.83-15.27-20.05-28.68-32.32-41.25-14-14.34-29.27-27.22-45.3-39.22-.51-.38-1.06-.73-1.52-1.17-1.05-1.02-1.18-2.36-.4-3.47,.76-1.09,2.1-1.41,3.41-.77,.5,.24,.95,.59,1.39,.93,13.71,10.27,26.91,21.14,39.23,33.07,1.83,1.77,3.67,3.53,5.57,5.36,.78-.51,1.45-.93,2.1-1.38,10.75-7.38,21.64-14.53,32.94-21.05,9.77-5.65,19.76-10.87,30.44-14.6,6.98-2.43,14.1-4.26,21.57-3.99,8.54,.3,15.57,3.56,20,11.15,1.51,2.59,2.62,5.49,3.5,8.37,1.51,4.92,1.93,10.03,1.98,15.17,.02,2.29,0,4.58,0,6.87,.54-.67,.76-1.4,.95-2.14,1.06-4.18,2-8.4,3.18-12.54,2.08-7.3,4.54-14.5,6.4-21.85,3.57-14.09,6.83-28.27,10.21-42.41,.16-.67,.26-1.35,.43-2.24-1.03,.19-1.8,.3-2.56,.48-11.62,2.77-23.4,4.44-35.33,4.93-15.5,.64-30.84-.72-45.95-4.24-14.3-3.33-28.17-7.88-40.96-15.28-6.09-3.52-12.03-7.32-18.2-10.68-4.79-2.61-8.74-6.15-12.45-10.03-9.53-9.95-16.53-21.51-21.76-34.2-.33-.79-.7-1.56-1.12-2.49-23.65,4.69-47.3,4.75-70.9,2.06Zm204.08,69.71c9.29,.1,19.87-1,26.99-2.12,17.38-2.74,34.1-7.78,50.24-14.74,10.28-4.44,20.46-9.11,29.74-15.45,14.17-9.69,24.48-22.36,29.73-38.88,3.95-12.42,4.48-25.13,2.82-37.96-2.54-19.67-9.5-37.73-20.27-54.35-9.37-14.46-20.82-27.13-33.31-38.9-4.78-4.51-9.47-9.07-13.04-14.65-2.88-4.5-4.87-9.31-5.65-14.64-2.64-18.02-11.23-32.63-25.56-43.81-12.3-9.59-26.56-14.46-41.79-16.86-6.25-.98-12.53-1.63-18.86-1.51-6.71,.12-13.46-.03-20.1,.75-10.24,1.2-20.3,3.59-30.14,6.73-11.25,3.6-21.96,8.34-31.54,15.38-13.31,9.78-21.86,22.65-25.32,38.87-1.75,8.2-1.74,16.5-1.72,24.83,.01,5.11-.04,10.27-.75,15.31-1.28,9.01-2.95,17.97-4.71,26.9-1.94,9.89-3.93,19.77-4.42,29.85-.85,17.64,1.1,34.97,6.24,51.88,4.92,16.19,12.34,31.05,23.98,43.51,2.87,3.08,6.07,5.92,9.45,8.43,2.99,2.23,6.41,3.91,9.68,5.75,6.75,3.8,13.31,8.04,20.34,11.24,21.55,9.8,44.32,14.27,67.96,14.42Zm-304.95,139.53c-.44,.56-.69,.86-.92,1.18-9.32,12.81-20.7,23.49-33.64,32.55-18.67,13.06-39.19,22.14-61.05,28.32-1.83,.52-3.66,1.02-5.67,1.58,.36,.56,.55,.99,.86,1.33,2.69,2.96,5.28,6.01,8.13,8.82,8.98,8.87,19.05,16.34,29.92,22.72,9.45,5.55,19.24,10.38,29.49,14.36,13.7,5.32,27.2,11.18,40.81,16.76,19.11,7.83,38.69,13.7,59.49,14.86,10.95,.61,21.88,.98,32.83,.43,17.78-.89,35.27-3.66,52.48-8.25,24.01-6.4,46.6-16.21,68.29-28.23,22.85-12.66,42.18-29.38,58.21-49.97,11.55-14.83,21.01-30.93,29.12-47.85,1-2.09,2.05-4.19,2.71-6.39,4.56-15.16,8.59-30.46,10.94-46.14,1.41-9.43,2.34-18.89,1.22-28.43-.51-4.4-1.47-8.67-3.51-12.64-2.75-5.33-7.06-8.52-13-9.56-4.83-.84-9.57-.27-14.27,.8-9.34,2.14-18.03,6-26.52,10.32-15.43,7.85-29.86,17.34-44.11,27.1-.49,.34-.91,.78-1.43,1.23,.71,.79,1.29,1.45,1.89,2.09,9.91,10.6,19.02,21.82,26.63,34.21,5.67,9.24,10.38,18.92,13.1,29.47,2.16,8.38,3.01,16.85,1.17,25.4-1.01,4.68-2.22,9.32-3.51,13.93-.93,3.33-2.36,6.5-4.68,9.1-1.09,1.23-2.42,2.36-3.85,3.15-2.31,1.27-4.63,.93-6.68-.83-.38-.33-.79-.63-1.22-.98-.6,1.1-1,2.08-1.62,2.89-.91,1.2-1.85,2.45-3.02,3.36-3.34,2.61-7.76,1.87-10.9-1.67-.66-.74-1.26-1.54-1.69-2.07-1.73,1.59-3.22,3.04-4.81,4.38-3.47,2.95-7.39,3.68-11.65,2-6.99-2.76-11.25-7.94-13.06-15.17-1.04-4.14-.52-8.18,1.65-11.81,1.02-1.71,1.13-3.19,.52-4.92-.5-1.43-.82-2.94-1.44-4.32-2.28-5.02-4.35-10.16-7.06-14.94-7.02-12.38-14.34-24.59-21.55-36.85-.15-.25-.44-.41-.69-.64-.98,.55-1.88,1.05-2.79,1.56-15.4,8.59-31.43,15.77-48.28,21-20.76,6.45-41.96,9.91-63.77,9.14-15.25-.54-29.94-3.66-44.17-9.09-2.91-1.11-5.83-2.16-8.88-3.29Zm42.55,144.66c-.44-.23-.64-.39-.86-.43-13.91-3.17-27.23-8.1-40.38-13.54-9.74-4.03-19.45-8.14-29.18-12.2-.84-.35-1.71-.63-2.97-1.09,.36,.77,.45,1.08,.62,1.33,7,9.97,11.16,21.14,13.8,32.94,2.71,12.13,3.55,24.48,4.6,36.82,.61,7.16,1.39,14.31,2.44,21.42,.74,5,2.26,9.8,5.74,13.76,.54,.62,.71,1.75,.69,2.64-.07,3.47,.29,6.86,1.3,10.18,.36,1.19,.73,2.44,2.17,3.38,.92-1.27,1.95-2.39,2.65-3.69,1.17-2.18,2.13-4.47,3.17-6.71,.74-1.59,1.74-2.19,3.17-1.89,1.35,.28,2.08,1.38,2.05,3.08-.02,1.35-.1,2.71,0,4.06,.13,1.88,.76,3.6,2.19,4.92,1.43,1.32,2.87,1.24,3.75-.47,.71-1.38,1.06-2.99,1.33-4.54,.21-1.24,0-2.55,.09-3.82,.1-1.3,.86-2.08,2.05-2.32,1.28-.26,2.41,.27,2.94,1.5,.35,.8,.5,1.68,.82,2.5,.81,2.1,1.71,4.14,3.48,5.65,1.41,1.2,2.98,1.47,4.69,.77,1.6-.65,2.22-2.01,2.33-3.62,.21-3.27-.64-6.15-3.19-8.4-1.45-1.27-1.69-2.5-.57-3.98,2.92-3.83,3.79-8.28,3.75-12.88-.06-6.23-.38-12.45-.78-18.67-.53-8.22-1.17-16.42-.26-24.65,.85-7.68,3.05-14.85,7.8-21.08,.19-.25,.32-.54,.57-.96Zm103.94-357.93c.23-.57,.39-.85,.47-1.15,2.14-7.91,3.24-15.98,3.32-24.16,.11-10.86-1.45-21.5-4.54-31.92-1.96-6.61-4.13-13.17-7.81-19.01-7.21-11.46-16.16-21.44-26.89-29.73-4.77-3.68-9.92-6.75-15.87-8.18-1.99-.48-4-.79-5.98-.33-.06,.26-.13,.36-.1,.41,.54,.89,1.09,1.77,1.64,2.65,6.52,10.45,8.61,21.55,4.83,33.48-.68,2.13-1.5,4.22-2.17,6.35-.29,.93-.39,1.93-.59,2.96,1.95,.54,3.48-.04,4.99-.47,4.71-1.36,9.06-3.56,13.35-5.89,2.26-1.23,3.5-1.19,4.49,.13,.97,1.29,.7,2.26-.85,4.25-2.96,3.77-5.97,7.52-8.72,11.44-3.55,5.05-6.51,10.44-8.33,16.39-.65,2.13-.9,4.18,.22,6.26,.52,.97,.91,2.07,1.1,3.16,.48,2.72,2.24,4.09,4.72,4.79,.69,.19,1.38,.42,2.07,.59,6.63,1.57,13.32,1.29,20.03,.66,.8-.07,1.59-.24,2.38-.24,2.42-.02,3.62,2.03,2.41,4.09-.36,.62-.84,1.16-1.25,1.76-2.48,3.57-4.46,7.38-5.57,11.61-.9,3.43-1.3,6.87,.1,10.55,7.51,.2,14.98,.12,22.57-.43Zm193.38,134.56c-4.36,17.53-8.66,34.86-13.05,52.55,1.09-.2,1.89-.22,2.59-.49,3.42-1.33,6.87-2.61,10.2-4.14,5.15-2.36,10.2-4.97,15.33-7.38,7.96-3.72,16.02-7.24,23.92-11.08,6.56-3.19,12.7-7.1,18.16-11.99,2.63-2.36,5.01-4.94,6.52-8.2,1.25-2.68,1.44-2.73,4.33-2.71,5.18,.04,9.99-1.16,14.03-4.61,1.8-1.54,3.18-3.38,3.78-5.71,.54-2.1-.23-3.91-2.25-4.72-1.31-.52-2.81-.97-4.17-.86-3.17,.26-6.32,.79-9.44,1.41-1.54,.3-2.99,.84-4.12-.71-.88-1.2-.6-2.34,1.01-4.24,2.49-2.94,4.87-5.97,6.36-9.55,.66-1.59,1.12-3.34,1.26-5.05,.17-2.04-1.05-3.33-3.1-3.55-1.17-.13-2.42-.07-3.55,.22-6.37,1.59-11.73,8.38-11.94,14.94-.06,1.67-.19,3.35-.47,5-.29,1.68-1.33,2.44-2.8,2.33-1.43-.1-2.37-1.07-2.43-2.75-.05-1.43,.02-2.88,.2-4.3,.54-4.3-.74-8.06-3.34-11.42-1.19-1.54-2.73-2.68-4.63-3.28-2.56-.8-4.72,.03-5.69,2.51-.51,1.31-.72,2.79-.79,4.2-.19,3.98,.93,7.75,2.19,11.47,.84,2.49,.65,3.11-1.44,4.7-6.17,4.71-13.05,7.32-20.91,7.13-3.68-.09-7.36-.04-11.04,0-1.43,.01-2.85,.16-4.71,.27Zm-237.4-135.63c5.34,.45,10.39,.88,15.7,1.33-1.41-8.1,1.08-15.07,4.77-21.99-3.84,0-7.28,.18-10.69-.05-3.38-.23-6.72-.89-10.22-1.38,1.56,7.22,2.33,14.41,.45,22.09Z"/><path class="cls-1" d="M1090.8,235.44c-.13-.53-.37-1.05-.39-1.58-.35-8.61-2.23-16.94-4.64-25.15-5.38-18.36-14.65-34.66-26.47-49.6-8.35-10.56-17.72-20.16-27.57-29.31-5.09-4.72-9.41-10.03-12.06-16.52-.78-1.9-1.37-3.94-1.68-5.97-3.78-25.14-17.22-43.4-39.41-55.39-10.3-5.57-21.41-8.81-32.97-10.37-5.93-.8-11.92-1.07-17.89-1.6-.37-.03-.72-.23-1.08-.35,54.72,0,109.44,0,164.16,0V235.44Z"/><path class="cls-1" d="M741.29,269.43c23.59,2.68,47.25,2.62,70.9-2.06,.42,.93,.8,1.7,1.12,2.49,5.23,12.69,12.23,24.25,21.76,34.2,3.71,3.87,7.65,7.41,12.45,10.03,6.17,3.37,12.11,7.16,18.2,10.68,12.79,7.4,26.65,11.95,40.96,15.28,15.12,3.52,30.46,4.88,45.95,4.24,11.93-.49,23.71-2.16,35.33-4.93,.75-.18,1.53-.29,2.56-.48-.17,.89-.27,1.57-.43,2.24-3.38,14.14-6.64,28.31-10.21,42.41-1.86,7.35-4.33,14.55-6.4,21.85-1.18,4.15-2.12,8.36-3.18,12.54-.19,.74-.41,1.47-.95,2.14,0-2.29,.02-4.58,0-6.87-.05-5.14-.47-10.25-1.98-15.17-.88-2.88-1.99-5.78-3.5-8.37-4.43-7.59-11.46-10.85-20-11.15-7.47-.27-14.59,1.56-21.57,3.99-10.69,3.73-20.67,8.95-30.44,14.6-11.29,6.53-22.19,13.68-32.94,21.05-.65,.45-1.32,.87-2.1,1.38-1.9-1.83-3.74-3.59-5.57-5.36-12.31-11.93-25.52-22.8-39.23-33.07-.45-.33-.9-.69-1.39-.93-1.32-.64-2.65-.32-3.41,.77-.78,1.12-.65,2.45,.4,3.47,.45,.44,1.01,.79,1.52,1.17,16.03,12,31.31,24.88,45.3,39.22,12.27,12.57,23.49,25.99,32.32,41.25,5.11,8.83,9.24,18.07,11.32,28.13,1.71,8.29,1.69,16.49-1.05,24.62-.74,2.18-.88,4.57-1.62,6.75-.9,2.63-2.05,5.18-3.27,7.68-.66,1.36-1.72,2.5-3.54,3.18-.43-.77-1.13-1.52-1.27-2.36-.37-2.35-.56-4.74-.71-7.12-.07-1.11,.18-2.23,.15-3.35-.04-1.53-.94-2.47-2.29-2.59-1.51-.14-2.63,.66-2.9,2.23-.39,2.28-.54,4.61-1.04,6.87-.53,2.41-1.29,4.77-2.04,7.13-.26,.82-.75,1.6-1.24,2.32-1.82,2.68-3.49,2.81-5.49,.29-1.63-2.05-2.73-4.3-1.93-7.1,.25-.89,.16-1.92,.02-2.85-.19-1.24-1.12-2.04-2.24-2.17-1.35-.16-2.3,.36-2.83,1.69-.29,.73-.58,1.55-.55,2.31,.1,2.41-.93,4.41-2.35,6.13-1.46,1.76-3.18,3.34-4.9,4.86-.99,.88-2.29,1.04-3.63,.82-7.16-1.21-13.15-10.34-11.24-17.3,.37-1.36,.99-2.75,1.85-3.85,1.17-1.5,1.38-3.05,.86-4.72-1.21-3.89-2.29-7.83-3.82-11.59-3.39-8.31-8.03-15.99-12.56-23.71-6.43-10.96-12.99-21.86-19.2-32.95-7.15-12.8-13.06-26.17-16.97-40.35-.31-1.12-.68-2.17-1.87-2.59-1.84-.66-3.66,.72-3.47,2.71,.1,1.1,.49,2.18,.79,3.25,3.95,13.75,9.87,26.66,16.62,39.22,.49,.91,.96,1.82,1.55,2.93-2.07,1.16-3.99,2.27-5.94,3.32-19.42,10.54-39.75,18.71-61.36,23.54-11.1,2.48-22.33,3.97-33.71,4.36-12.53,.43-24.9-.58-37.11-3.57-8.25-2.02-16.14-5.02-24.24-8.09,.37-.7,.65-1.33,1.01-1.91,7.9-12.93,12.96-26.9,15.06-41.9,1.41-10.11,1.42-20.24,.14-30.37-.26-2.07-1.38-3.04-3.11-2.79-1.48,.22-2.27,1.31-2.15,3.2,.18,2.71,.54,5.41,.69,8.12,1.02,18.08-2.21,35.33-10.11,51.66-8.69,17.96-21.63,32.35-37.4,44.32-20.68,15.7-44,25.81-68.98,32.48-7.92,2.11-15.9,2.51-24,2.41-8.15-.1-16.31-.29-24.46,0-12.24,.44-23.8,3.7-34.66,9.39-.35,.19-.72,.35-1.04,.59-1.17,.87-1.52,2.22-.93,3.39,.65,1.28,2.04,1.81,3.48,1.21,1.03-.43,1.99-1.03,3-1.51,1.51-.71,3.03-1.37,4.44-2.01,6.27,6.25,7.55,14.26,8.45,22.29,2.58,22.88,.06,45.3-6.5,67.32-2.56,8.58-4.88,17.22-7.5,25.77-2.01,6.57-4.34,13.05-7.54,19.16-1,1.9-2.15,3.75-3.43,5.47-.69,.92-1.71,1.68-2.74,2.23-2.24,1.2-2.72,2.3-1.49,4.61,1.59,3,2.77,6.12,3.03,9.52,.15,2.01,.02,4.01-.98,5.83-1.14,2.07-2.63,2.39-4.16,.61-1.28-1.49-2.38-3.23-3.13-5.04-.91-2.2-1.38-4.58-2.02-6.89-.43-1.53-1.1-2.23-2.33-2.36-1.73-.18-2.75,.93-2.95,2.95-.26,2.7-.51,5.41-1.05,8.06-.49,2.44-1.59,4.7-3.2,6.64-2.43,2.92-4.5,2.82-6.23-.56-1.08-2.11-1.84-4.43-2.38-6.74-.59-2.56-.77-5.21-1.11-7.82-.13-1.03-.14-2.08-.35-3.09-.25-1.15-1.34-2.01-2.42-1.97-1.11,.04-2.03,.51-2.45,1.6-.23,.59-.34,1.23-.48,1.85-.91,3.9-1.93,7.78-3.92,11.28-.86,1.51-1.92,2.97-3.16,4.17-1.73,1.66-3.62,1.6-5.32-.1-.99-.99-1.88-2.23-2.41-3.52-1.8-4.34-1.68-8.55,1.3-12.45,1.26-1.65,1.38-2.55,.28-3.89-3.68-4.48-5.25-9.83-6.42-15.33-2.08-9.83-2.49-19.81-2.38-29.82,.12-11.44,.92-22.84,1.98-34.22,.76-8.12,1.57-16.23,2.53-24.33,1.72-14.52-.56-28.21-8.09-40.86-3.64-6.11-7.44-12.13-11.1-18.23-1.81-3.01-3.51-6.1-5.23-9.17-6.43-11.44-7.48-23.59-4.75-36.23,2.4-11.09,7.55-20.83,14.59-29.63,.34-.42,.73-.81,1.39-1.53,.12,.96,.24,1.54,.25,2.12,.09,4.24,.17,8.47,.25,12.71,0,.4-.02,.81,.06,1.2,.28,1.44,1.3,2.26,2.7,2.21,1.4-.05,2.43-.93,2.48-2.41,.07-2.64-.05-5.28-.04-7.92,0-3.59-.24-7.22,.16-10.77,.66-5.83-.07-11.5-1.25-17.14-1.83-8.76-3.95-17.46-5.76-26.22-1.77-8.63-2.84-17.34-2.6-26.19,.52-19.45,8.02-35.64,22.57-48.53,3.05-2.7,6.37-5.08,9.57-7.61,.44-.35,.95-.62,1.33-1.01,.93-.95,1.02-2.5,.25-3.52-.74-.97-2.03-1.29-3.23-.71-.64,.31-1.23,.74-1.82,1.15-10.24,7.13-18.92,15.72-25.12,26.66-.12,.2-.29,.37-.52,.66-.45-.33-.92-.6-1.3-.97-8.1-7.87-15.84-16.05-22.4-25.28-6.53-9.19-11.1-19.39-15.37-29.76-8.55-20.78-15.95-41.98-23.51-63.13-5.01-14.02-10.76-27.72-18.1-40.71-4.85-8.59-10.4-16.69-16.78-24.22-.41-.48-.78-1-1.15-1.48,.7-1.7,1.84-2.45,3.64-2.76,9.13-1.56,18.32-1.69,27.5-1.17,17.46,1,34.59,4.05,51.37,8.99,10.22,3.01,20.29,6.48,29.43,12.04,4.83,2.94,9.31,6.49,13.86,9.87,17.67,13.1,35.31,26.23,52.94,39.39,5.71,4.26,11.39,8.52,17.72,11.86,9.81,5.18,20.15,8.51,31.29,9.08,1.75,.09,3.51-.07,5.27-.18,10.21-.65,20.44-1.12,30.62-2.05,6.99-.64,13.93-1.88,20.88-2.93,11.73-1.78,23.52-2.46,35.38-2.27,21.76,.36,43.12,3.79,64.32,8.42,9.29,2.03,18.51,4.33,27.77,6.52,.54,.13,1.07,.31,1.78,.52,.12,.82,.28,1.67,.35,2.53,.42,4.61,1.89,8.89,3.97,12.99,.29,.57,.59,1.15,1,1.63,.88,1.07,2.09,1.3,3.22,.72,1.21-.63,1.71-1.89,1.26-3.25-.12-.38-.33-.73-.51-1.08-6.14-11.61-4.79-22.64,2.67-33.14,1.24-1.75,2.76-3.31,4.19-4.92,.79-.89,1.35-1.79,.93-3.02-.55-1.59-2.01-2.14-3.95-1.41-3.66,1.38-7.28,2.88-10.98,4.17-7.56,2.63-15.21,4.98-23.21,5.74-2.91,.27-5.93,.2-8.82-.24-4.24-.64-6.65-3.61-7.07-7.9-.33-3.41,.3-6.69,1.26-9.93,2.05-6.95,5.18-13.42,8.86-19.62,2.49-4.19,5.21-8.24,7.83-12.36,.17-.27,.38-.51,.56-.78,.95-1.44,1.01-2.8,.2-3.75-.87-1.02-2.13-1.16-3.71-.38-.72,.35-1.41,.75-2.12,1.12-7.57,3.99-15.23,7.8-23.31,10.66-2.7,.96-5.52,1.59-8.29,2.36-.46,.13-.94,.19-1.42,.23-3.28,.3-3.66-.06-3.43-3.26,.24-3.27,.65-6.53,.74-9.8,.4-13.72-5.12-24.81-15.25-33.79-1.77-1.57-3.64-3.03-5.68-4.71,2.57-.87,4.95-.88,7.3-.94,7.66-.21,15.12,1.14,22.49,3.08,14.05,3.69,27.57,8.84,40.35,15.7,18.07,9.7,31.31,24.14,39.78,42.79,3.77,8.29,7.13,16.76,10.39,25.26,2.15,5.61,3.37,11.5,3.78,17.52,.45,6.58-.9,12.72-4.69,18.22-1.09,1.58-2.21,3.14-3.31,4.71-.36,.52-.76,1.04-1.02,1.62-.6,1.31-.19,2.64,.94,3.36,1.09,.69,2.3,.56,3.27-.41,.39-.39,.71-.87,1.02-1.33,2.07-3.03,4.14-6.07,6.42-9.42Z"/><path class="cls-1" d="M945.37,339.15c-23.64-.15-46.41-4.62-67.96-14.42-7.03-3.2-13.59-7.44-20.34-11.24-3.27-1.84-6.69-3.52-9.68-5.75-3.37-2.52-6.57-5.36-9.45-8.43-11.64-12.46-19.06-27.32-23.98-43.51-5.14-16.92-7.1-34.25-6.24-51.88,.49-10.09,2.48-19.96,4.42-29.85,1.75-8.93,3.43-17.89,4.71-26.9,.72-5.04,.77-10.2,.75-15.31-.02-8.33-.03-16.62,1.72-24.83,3.46-16.21,12.02-29.08,25.32-38.87,9.58-7.04,20.29-11.78,31.54-15.38,9.84-3.15,19.89-5.53,30.14-6.73,6.64-.78,13.39-.63,20.1-.75,6.33-.12,12.62,.53,18.86,1.51,15.23,2.39,29.49,7.26,41.79,16.86,14.33,11.18,22.92,25.79,25.56,43.81,.78,5.33,2.77,10.14,5.65,14.64,3.57,5.58,8.26,10.14,13.04,14.65,12.49,11.77,23.94,24.44,33.31,38.9,10.77,16.62,17.72,34.68,20.27,54.35,1.66,12.83,1.12,25.53-2.82,37.96-5.25,16.52-15.56,29.19-29.73,38.88-9.28,6.35-19.46,11.02-29.74,15.45-16.14,6.97-32.86,12.01-50.24,14.74-7.13,1.12-17.71,2.22-26.99,2.12Zm-30.01-170.49c.04-13.61-10.5-26.67-26.75-26.62-16.78,.05-26.83,13.73-26.71,26.93,.13,14.56,12.06,26.53,26.66,26.55,14.87,.02,26.82-11.97,26.8-26.87Zm97.23-21.14c-.25-7.42-2.56-14.18-8.23-19.58-7.81-7.45-19.29-6.97-26.41,1.15-9.28,10.59-7.54,29.21,3.52,37.88,8.11,6.35,18.9,5.18,25.45-2.79,3.92-4.77,5.51-10.36,5.66-16.66Zm-36.24,130.4c-7.06,.02-11.39,1.54-14.72,4.51-2.75,2.46-4.25,5.49-4.28,9.26-.03,3.5,1.23,6.54,2.94,9.47,.04,.07,.07,.14,.12,.21,.7,.92,1.69,1.21,2.48,.67,.88-.6,.88-1.43,.48-2.33-.8-1.82-1.81-3.58-2.33-5.48-1-3.63,.06-6.77,2.88-9.29,5.3-4.73,15.4-5.32,20.89,.73,1.22,1.35,2.18,2.93,3.25,4.41,.75,1.03,1.6,1.32,2.41,.75,.83-.58,1.06-1.36,.56-2.29-.19-.35-.34-.72-.54-1.06-3.66-6.2-9.03-9.5-14.14-9.56Zm49.25-15.17c-3.17,0-5.89,.58-8.32,1.72-7.62,3.56-9.86,11.33-8.56,18.25,.19,.99,.75,1.59,1.79,1.55,.93-.04,1.56-.89,1.51-2.06-.03-.72-.21-1.42-.24-2.14-.18-4.28,.85-8.16,4.38-10.87,4.63-3.57,9.8-3.91,15.17-1.9,1.64,.61,2.79,1.9,3.45,3.49,.7,1.69,1.26,3.44,1.79,5.19,.44,1.45,.69,2.95,1.12,4.4,.26,.87,.97,1.26,1.87,1.1,.93-.17,1.32-.81,1.31-1.72,0-.32-.04-.64-.12-.95-.6-2.32-1.16-4.64-1.83-6.94-1.55-5.35-5.2-8.24-10.66-8.94-.95-.12-1.91-.13-2.67-.18Zm-3.54,20.26v-.05c2.47-.15,4.94-.25,7.4-.45,2.43-.2,3.54-1.65,3.23-4.07-.22-1.69-1.15-2.97-2.49-3.94-3.35-2.42-8.9-1.85-11.63,1.24-1.34,1.51-2.08,3.27-1.22,5.28,.85,1.99,2.66,2.05,4.47,2,.08,0,.16,0,.24-.01Zm-46.87,4.68c-3.18,0-6.3,1.76-7.64,4.44-1,1.99-.82,4.45,.48,5.84,1.52,1.62,3.34,1.23,5.1,.56,2.3-.87,4.58-1.82,6.83-2.81,2.45-1.08,2.99-3.01,1.49-5.22-1.43-2.1-3.53-2.86-6.26-2.81Z"/><path class="cls-1" d="M640.42,478.68c3.05,1.13,5.98,2.18,8.88,3.29,14.23,5.43,28.92,8.55,44.17,9.09,21.81,.77,43.01-2.69,63.77-9.14,16.86-5.24,32.88-12.41,48.28-21,.91-.51,1.81-1.01,2.79-1.56,.25,.23,.54,.39,.69,.64,7.21,12.27,14.53,24.48,21.55,36.85,2.71,4.78,4.78,9.93,7.06,14.94,.62,1.37,.94,2.89,1.44,4.32,.61,1.74,.5,3.22-.52,4.92-2.17,3.63-2.69,7.68-1.65,11.81,1.81,7.22,6.07,12.4,13.06,15.17,4.25,1.68,8.17,.95,11.65-2,1.58-1.34,3.07-2.79,4.81-4.38,.43,.53,1.03,1.33,1.69,2.07,3.15,3.54,7.57,4.28,10.9,1.67,1.17-.91,2.1-2.17,3.02-3.36,.62-.81,1.02-1.8,1.62-2.89,.44,.35,.84,.65,1.22,.98,2.04,1.76,4.36,2.1,6.68,.83,1.43-.79,2.76-1.92,3.85-3.15,2.32-2.61,3.75-5.78,4.68-9.1,1.29-4.61,2.51-9.25,3.51-13.93,1.84-8.55,.99-17.02-1.17-25.4-2.72-10.55-7.43-20.23-13.1-29.47-7.6-12.39-16.72-23.61-26.63-34.21-.6-.64-1.17-1.3-1.89-2.09,.52-.45,.94-.89,1.43-1.23,14.26-9.76,28.69-19.25,44.11-27.1,8.49-4.32,17.18-8.18,26.52-10.32,4.7-1.07,9.44-1.64,14.27-.8,5.95,1.03,10.26,4.22,13,9.56,2.04,3.96,3,8.24,3.51,12.64,1.12,9.54,.19,19-1.22,28.43-2.35,15.69-6.39,30.98-10.94,46.14-.66,2.2-1.71,4.3-2.71,6.39-8.11,16.92-17.57,33.02-29.12,47.85-16.03,20.59-35.36,37.3-58.21,49.97-21.69,12.02-44.28,21.83-68.29,28.23-17.21,4.59-34.69,7.35-52.48,8.25-10.95,.55-21.89,.18-32.83-.43-20.8-1.17-40.38-7.04-59.49-14.86-13.61-5.57-27.1-11.44-40.81-16.76-10.25-3.98-20.04-8.81-29.49-14.36-10.87-6.38-20.94-13.86-29.92-22.72-2.84-2.8-5.44-5.86-8.13-8.82-.3-.33-.5-.77-.86-1.33,2.01-.56,3.84-1.06,5.67-1.58,21.86-6.18,42.38-15.26,61.05-28.32,12.94-9.06,24.32-19.74,33.64-32.55,.23-.32,.48-.62,.92-1.18Z"/><path class="cls-1" d="M682.96,623.34c-.25,.42-.38,.71-.57,.96-4.75,6.23-6.95,13.4-7.8,21.08-.91,8.23-.27,16.43,.26,24.65,.4,6.22,.72,12.44,.78,18.67,.04,4.6-.83,9.05-3.75,12.88-1.12,1.47-.88,2.71,.57,3.98,2.55,2.25,3.4,5.13,3.19,8.4-.1,1.61-.72,2.97-2.33,3.62-1.71,.7-3.28,.43-4.69-.77-1.77-1.51-2.67-3.56-3.48-5.65-.32-.82-.47-1.7-.82-2.5-.53-1.23-1.67-1.76-2.94-1.5-1.19,.24-1.96,1.02-2.05,2.32-.1,1.27,.12,2.58-.09,3.82-.27,1.55-.63,3.15-1.33,4.54-.88,1.72-2.31,1.8-3.75,.47-1.43-1.32-2.06-3.04-2.19-4.92-.1-1.35-.02-2.71,0-4.06,.03-1.7-.7-2.8-2.05-3.08-1.43-.3-2.43,.3-3.17,1.89-1.05,2.24-2.01,4.53-3.17,6.71-.7,1.3-1.72,2.42-2.65,3.69-1.45-.94-1.81-2.2-2.17-3.38-1.01-3.31-1.37-6.71-1.3-10.18,.02-.89-.15-2.02-.69-2.64-3.48-3.96-5-8.76-5.74-13.76-1.05-7.1-1.83-14.26-2.44-21.42-1.05-12.34-1.9-24.7-4.6-36.82-2.63-11.8-6.8-22.96-13.8-32.94-.17-.25-.26-.55-.62-1.33,1.26,.46,2.13,.74,2.97,1.09,9.73,4.06,19.44,8.17,29.18,12.2,13.15,5.44,26.47,10.38,40.38,13.54,.22,.05,.41,.21,.86,.43Z"/><path class="cls-1" d="M786.9,265.4c-7.58,.55-15.06,.63-22.57,.43-1.4-3.68-1-7.12-.1-10.55,1.11-4.22,3.1-8.04,5.57-11.61,.41-.59,.89-1.14,1.25-1.76,1.21-2.06,0-4.11-2.41-4.09-.8,0-1.59,.17-2.38,.24-6.7,.63-13.4,.91-20.03-.66-.7-.17-1.38-.39-2.07-.59-2.48-.7-4.24-2.07-4.72-4.79-.19-1.09-.58-2.19-1.1-3.16-1.12-2.08-.87-4.14-.22-6.26,1.82-5.95,4.79-11.34,8.33-16.39,2.75-3.92,5.77-7.66,8.72-11.44,1.55-1.98,1.82-2.95,.85-4.25-.98-1.32-2.22-1.36-4.49-.13-4.29,2.34-8.63,4.54-13.35,5.89-1.51,.43-3.03,1.01-4.99,.47,.2-1.03,.29-2.03,.59-2.96,.67-2.13,1.5-4.22,2.17-6.35,3.78-11.93,1.69-23.03-4.83-33.48-.55-.88-1.1-1.76-1.64-2.65-.03-.05,.03-.15,.1-.41,1.98-.46,4-.15,5.98,.33,5.95,1.43,11.1,4.5,15.87,8.18,10.74,8.29,19.68,18.27,26.89,29.73,3.67,5.84,5.85,12.41,7.81,19.01,3.09,10.42,4.65,21.06,4.54,31.92-.08,8.18-1.19,16.25-3.32,24.16-.08,.3-.23,.59-.47,1.15Z"/><path class="cls-1" d="M980.28,399.96c1.86-.11,3.28-.26,4.71-.27,3.68-.04,7.36-.08,11.04,0,7.86,.18,14.74-2.43,20.91-7.13,2.09-1.59,2.28-2.21,1.44-4.7-1.26-3.72-2.38-7.49-2.19-11.47,.07-1.41,.27-2.9,.79-4.2,.97-2.48,3.13-3.31,5.69-2.51,1.9,.6,3.44,1.73,4.63,3.28,2.6,3.35,3.87,7.11,3.34,11.42-.18,1.42-.25,2.87-.2,4.3,.06,1.68,1,2.65,2.43,2.75,1.48,.11,2.51-.65,2.8-2.33,.28-1.65,.42-3.33,.47-5,.22-6.56,5.57-13.35,11.94-14.94,1.14-.28,2.39-.34,3.55-.22,2.04,.22,3.27,1.52,3.1,3.55-.14,1.71-.6,3.46-1.26,5.05-1.48,3.58-3.87,6.61-6.36,9.55-1.61,1.9-1.89,3.03-1.01,4.24,1.14,1.55,2.58,1.02,4.12,.71,3.12-.61,6.28-1.14,9.44-1.41,1.36-.11,2.86,.33,4.17,.86,2.02,.81,2.79,2.61,2.25,4.72-.6,2.33-1.98,4.17-3.78,5.71-4.05,3.45-8.85,4.65-14.03,4.61-2.89-.02-3.09,.03-4.33,2.71-1.51,3.26-3.89,5.84-6.52,8.2-5.46,4.89-11.6,8.81-18.16,11.99-7.9,3.84-15.96,7.35-23.92,11.08-5.14,2.4-10.18,5.01-15.33,7.38-3.33,1.53-6.78,2.8-10.2,4.14-.7,.27-1.5,.29-2.59,.49,4.39-17.69,8.7-35.02,13.05-52.55Z"/><path class="cls-1" d="M742.88,264.33c1.89-7.68,1.12-14.87-.45-22.09,3.5,.49,6.84,1.14,10.22,1.38,3.41,.24,6.85,.05,10.69,.05-3.68,6.93-6.18,13.9-4.77,21.99-5.31-.45-10.36-.88-15.7-1.33Z"/><path d="M915.35,168.65c.02,14.9-11.93,26.89-26.8,26.87-14.6-.02-26.53-12-26.66-26.55-.12-13.2,9.93-26.89,26.71-26.93,16.25-.05,26.78,13.02,26.75,26.62Zm-41.82-12.81c-3.66,0-6.5,2.87-6.48,6.54,.02,3.55,2.82,6.37,6.37,6.41,3.64,.05,6.59-2.81,6.63-6.42,.04-3.6-2.89-6.53-6.51-6.53Z"/><path d="M1012.58,147.51c-.16,6.3-1.74,11.89-5.66,16.66-6.55,7.98-17.34,9.15-25.45,2.79-11.07-8.67-12.8-27.29-3.52-37.88,7.11-8.12,18.59-8.6,26.41-1.15,5.67,5.4,7.98,12.16,8.23,19.58Zm-21.86-9.81c.09-3.68-2.66-6.64-6.33-6.81-3.52-.17-6.67,2.78-6.79,6.36-.13,3.75,2.75,6.82,6.46,6.9,3.62,.08,6.57-2.78,6.66-6.45Z"/><path d="M976.34,277.91c5.11,.06,10.48,3.35,14.14,9.56,.2,.34,.36,.71,.54,1.06,.5,.93,.27,1.71-.56,2.29-.81,.57-1.66,.28-2.41-.75-1.08-1.48-2.03-3.07-3.25-4.41-5.49-6.05-15.59-5.45-20.89-.73-2.82,2.51-3.88,5.66-2.88,9.29,.52,1.9,1.54,3.66,2.33,5.48,.39,.89,.4,1.73-.48,2.33-.79,.54-1.79,.25-2.48-.67-.05-.06-.08-.14-.12-.21-1.71-2.93-2.97-5.97-2.94-9.47,.03-3.77,1.54-6.8,4.28-9.26,3.32-2.97,7.65-4.49,14.72-4.51Z"/><path d="M1025.59,262.75c.76,.05,1.72,.06,2.67,.18,5.45,.7,9.11,3.59,10.66,8.94,.66,2.3,1.23,4.62,1.83,6.94,.08,.31,.11,.63,.12,.95,.02,.91-.37,1.56-1.31,1.72-.91,.16-1.62-.23-1.87-1.1-.43-1.45-.68-2.96-1.12-4.4-.53-1.75-1.09-3.5-1.79-5.19-.66-1.6-1.81-2.88-3.45-3.49-5.37-2.01-10.54-1.67-15.17,1.9-3.53,2.72-4.55,6.59-4.38,10.87,.03,.72,.22,1.42,.24,2.14,.04,1.17-.58,2.03-1.51,2.06-1.04,.04-1.6-.56-1.79-1.55-1.3-6.91,.94-14.69,8.56-18.25,2.43-1.14,5.15-1.72,8.32-1.72Z"/><path d="M1022.05,283c-.08,0-.16,.01-.24,.01-1.81,.05-3.62-.01-4.47-2-.86-2.01-.12-3.77,1.22-5.28,2.73-3.09,8.28-3.67,11.63-1.24,1.34,.97,2.27,2.24,2.49,3.94,.31,2.41-.8,3.86-3.23,4.07-2.46,.21-4.94,.31-7.41,.45v.05Z"/><path d="M975.18,287.68c2.73-.05,4.83,.71,6.26,2.81,1.5,2.21,.96,4.14-1.49,5.22-2.25,.99-4.53,1.94-6.83,2.81-1.76,.67-3.57,1.05-5.1-.56-1.3-1.38-1.48-3.84-.48-5.84,1.34-2.68,4.47-4.44,7.64-4.44Z"/><path class="cls-1" d="M873.53,155.84c3.62,0,6.55,2.93,6.51,6.53-.04,3.61-2.98,6.47-6.63,6.42-3.55-.04-6.34-2.86-6.37-6.41-.02-3.67,2.82-6.53,6.48-6.54Z"/><path class="cls-1" d="M990.72,137.71c-.09,3.67-3.03,6.53-6.66,6.45-3.71-.08-6.59-3.15-6.46-6.9,.12-3.58,3.27-6.53,6.79-6.36,3.67,.18,6.41,3.13,6.33,6.81Z"/></svg>