<?xml version="1.0" encoding="UTF-8"?><svg id="Layer_1_copy" xmlns="http://www.w3.org/2000/svg" viewBox="0 0 1366 768"><defs><style>.cls-1,.cls-2{fill:none;}.cls-3{fill:#fff;}.cls-4{fill:#ffc0c0;}.cls-5{fill:#70faaf;}.cls-2{stroke:#fff;stroke-miterlimit:10;stroke-width:2px;}</style></defs><path class="cls-5" d="M741.29,269.43c23.59,2.68,47.25,2.62,70.9-2.06,.42,.93,.8,1.7,1.12,2.49,5.23,12.69,12.23,24.25,21.76,34.2,3.71,3.87,7.65,7.41,12.45,10.03,6.17,3.37,12.11,7.16,18.2,10.68,12.79,7.4,26.65,11.95,40.96,15.28,15.12,3.52,30.46,4.88,45.95,4.24,11.93-.49,23.71-2.16,35.33-4.93,.75-.18,1.53-.29,2.56-.48-.17,.89-.27,1.57-.43,2.24-3.38,14.14-6.64,28.31-10.21,42.41-1.86,7.35-4.33,14.55-6.4,21.85-1.18,4.15-2.12,8.36-3.18,12.54-.19,.74-.41,1.47-.95,2.14,0-2.29,.02-4.58,0-6.87-.05-5.14-.47-10.25-1.98-15.17-.88-2.88-1.99-5.78-3.5-8.37-4.43-7.59-11.46-10.85-20-11.15-7.47-.27-14.59,1.56-21.57,3.99-10.69,3.73-20.67,8.95-30.44,14.6-11.29,6.53-22.19,13.68-32.94,21.05-.65,.45-1.32,.87-2.1,1.38-1.9-1.83-3.74-3.59-5.57-5.36-12.31-11.93-25.52-22.8-39.23-33.07-.45-.33-.9-.69-1.39-.93-1.32-.64-2.65-.32-3.41,.77-.78,1.12-.65,2.45,.4,3.47,.45,.44,1.01,.79,1.52,1.17,16.03,12,31.31,24.88,45.3,39.22,12.27,12.57,23.49,25.99,32.32,41.25,5.11,8.83,9.24,18.07,11.32,28.13,1.71,8.29,1.69,16.49-1.05,24.62-.74,2.18-.88,4.57-1.62,6.75-.9,2.63-2.05,5.18-3.27,7.68-.66,1.36-1.72,2.5-3.54,3.18-.43-.77-1.13-1.52-1.27-2.36-.37-2.35-.56-4.74-.71-7.12-.07-1.11,.18-2.23,.15-3.35-.04-1.53-.94-2.47-2.29-2.59-1.51-.14-2.63,.66-2.9,2.23-.39,2.28-.54,4.61-1.04,6.87-.53,2.41-1.29,4.77-2.04,7.13-.26,.82-.75,1.6-1.24,2.32-1.82,2.68-3.49,2.81-5.49,.29-1.63-2.05-2.73-4.3-1.93-7.1,.25-.89,.16-1.92,.02-2.85-.19-1.24-1.12-2.04-2.24-2.17-1.35-.16-2.3,.36-2.83,1.69-.29,.73-.58,1.55-.55,2.31,.1,2.41-.93,4.41-2.35,6.13-1.46,1.76-3.18,3.34-4.9,4.86-.99,.88-2.29,1.04-3.63,.82-7.16-1.21-13.15-10.34-11.24-17.3,.37-1.36,.99-2.75,1.85-3.85,1.17-1.5,1.38-3.05,.86-4.72-1.21-3.89-2.29-7.83-3.82-11.59-3.39-8.31-8.03-15.99-12.56-23.71-6.43-10.96-12.99-21.86-19.2-32.95-7.15-12.8-13.06-26.17-16.97-40.35-.31-1.12-.68-2.17-1.87-2.59-1.84-.66-3.66,.72-3.47,2.71,.1,1.1,.49,2.18,.79,3.25,3.95,13.75,9.87,26.66,16.62,39.22,.49,.91,.96,1.82,1.55,2.93-2.07,1.16-3.99,2.27-5.94,3.32-19.42,10.54-39.75,18.71-61.36,23.54-11.1,2.48-22.33,3.97-33.71,4.36-12.53,.43-24.9-.58-37.11-3.57-8.25-2.02-16.14-5.02-24.24-8.09,.37-.7,.65-1.33,1.01-1.91,7.9-12.93,12.96-26.9,15.06-41.9,1.41-10.11,1.42-20.24,.14-30.37-.26-2.07-1.38-3.04-3.11-2.79-1.48,.22-2.27,1.31-2.15,3.2,.18,2.71,.54,5.41,.69,8.12,1.02,18.08-2.21,35.33-10.11,51.66-8.69,17.96-21.63,32.35-37.4,44.32-20.68,15.7-44,25.81-68.98,32.48-7.92,2.11-15.9,2.51-24,2.41-8.15-.1-16.31-.29-24.46,0-12.24,.44-23.8,3.7-34.66,9.39-.35,.19-.72,.35-1.04,.59-1.17,.87-1.52,2.22-.93,3.39,.65,1.28,2.04,1.81,3.48,1.21,1.03-.43,1.99-1.03,3-1.51,1.51-.71,3.03-1.37,4.44-2.01,6.27,6.25,7.55,14.26,8.45,22.29,2.58,22.88,.06,45.3-6.5,67.32-2.56,8.58-4.88,17.22-7.5,25.77-2.01,6.57-4.34,13.05-7.54,19.16-1,1.9-2.15,3.75-3.43,5.47-.69,.92-1.71,1.68-2.74,2.23-2.24,1.2-2.72,2.3-1.49,4.61,1.59,3,2.77,6.12,3.03,9.52,.15,2.01,.02,4.01-.98,5.83-1.14,2.07-2.63,2.39-4.16,.61-1.28-1.49-2.38-3.23-3.13-5.04-.91-2.2-1.38-4.58-2.02-6.89-.43-1.53-1.1-2.23-2.33-2.36-1.73-.18-2.75,.93-2.95,2.95-.26,2.7-.51,5.41-1.05,8.06-.49,2.44-1.59,4.7-3.2,6.64-2.43,2.92-4.5,2.82-6.23-.56-1.08-2.11-1.84-4.43-2.38-6.74-.59-2.56-.77-5.21-1.11-7.82-.13-1.03-.14-2.08-.35-3.09-.25-1.15-1.34-2.01-2.42-1.97-1.11,.04-2.03,.51-2.45,1.6-.23,.59-.34,1.23-.48,1.85-.91,3.9-1.93,7.78-3.92,11.28-.86,1.51-1.92,2.97-3.16,4.17-1.73,1.66-3.62,1.6-5.32-.1-.99-.99-1.88-2.23-2.41-3.52-1.8-4.34-1.68-8.55,1.3-12.45,1.26-1.65,1.38-2.55,.28-3.89-3.68-4.48-5.25-9.83-6.42-15.33-2.08-9.83-2.49-19.81-2.38-29.82,.12-11.44,.92-22.84,1.98-34.22,.76-8.12,1.57-16.23,2.53-24.33,1.72-14.52-.56-28.21-8.09-40.86-3.64-6.11-7.44-12.13-11.1-18.23-1.81-3.01-3.51-6.1-5.23-9.17-6.43-11.44-7.48-23.59-4.75-36.23,2.4-11.09,7.55-20.83,14.59-29.63,.34-.42,.73-.81,1.39-1.53,.12,.96,.24,1.54,.25,2.12,.09,4.24,.17,8.47,.25,12.71,0,.4-.02,.81,.06,1.2,.28,1.44,1.3,2.26,2.7,2.21,1.4-.05,2.43-.93,2.48-2.41,.07-2.64-.05-5.28-.04-7.92,0-3.59-.24-7.22,.16-10.77,.66-5.83-.07-11.5-1.25-17.14-1.83-8.76-3.95-17.46-5.76-26.22-1.77-8.63-2.84-17.34-2.6-26.19,.52-19.45,8.02-35.64,22.57-48.53,3.05-2.7,6.37-5.08,9.57-7.61,.44-.35,.95-.62,1.33-1.01,.93-.95,1.02-2.5,.25-3.52-.74-.97-2.03-1.29-3.23-.71-.64,.31-1.23,.74-1.82,1.15-10.24,7.13-18.92,15.72-25.12,26.66-.12,.2-.29,.37-.52,.66-.45-.33-.92-.6-1.3-.97-8.1-7.87-15.84-16.05-22.4-25.28-6.53-9.19-11.1-19.39-15.37-29.76-8.55-20.78-15.95-41.98-23.51-63.13-5.01-14.02-10.76-27.72-18.1-40.71-4.85-8.59-10.4-16.69-16.78-24.22-.41-.48-.78-1-1.15-1.48,.7-1.7,1.84-2.45,3.64-2.76,9.13-1.56,18.32-1.69,27.5-1.17,17.46,1,34.59,4.05,51.37,8.99,10.22,3.01,20.29,6.48,29.43,12.04,4.83,2.94,9.31,6.49,13.86,9.87,17.67,13.1,35.31,26.23,52.94,39.39,5.71,4.26,11.39,8.52,17.72,11.86,9.81,5.18,20.15,8.51,31.29,9.08,1.75,.09,3.51-.07,5.27-.18,10.21-.65,20.44-1.12,30.62-2.05,6.99-.64,13.93-1.88,20.88-2.93,11.73-1.78,23.52-2.46,35.38-2.27,21.76,.36,43.12,3.79,64.32,8.42,9.29,2.03,18.51,4.33,27.77,6.52,.54,.13,1.07,.31,1.78,.52,.12,.82,.28,1.67,.35,2.53,.42,4.61,1.89,8.89,3.97,12.99,.29,.57,.59,1.15,1,1.63,.88,1.07,2.09,1.3,3.22,.72,1.21-.63,1.71-1.89,1.26-3.25-.12-.38-.33-.73-.51-1.08-6.14-11.61-4.79-22.64,2.67-33.14,1.24-1.75,2.76-3.31,4.19-4.92,.79-.89,1.35-1.79,.93-3.02-.55-1.59-2.01-2.14-3.95-1.41-3.66,1.38-7.28,2.88-10.98,4.17-7.56,2.63-15.21,4.98-23.21,5.74-2.91,.27-5.93,.2-8.82-.24-4.24-.64-6.65-3.61-7.07-7.9-.33-3.41,.3-6.69,1.26-9.93,2.05-6.95,5.18-13.42,8.86-19.62,2.49-4.19,5.21-8.24,7.83-12.36,.17-.27,.38-.51,.56-.78,.95-1.44,1.01-2.8,.2-3.75-.87-1.02-2.13-1.16-3.71-.38-.72,.35-1.41,.75-2.12,1.12-7.57,3.99-15.23,7.8-23.31,10.66-2.7,.96-5.52,1.59-8.29,2.36-.46,.13-.94,.19-1.42,.23-3.28,.3-3.66-.06-3.43-3.26,.24-3.27,.65-6.53,.74-9.8,.4-13.72-5.12-24.81-15.25-33.79-1.77-1.57-3.64-3.03-5.68-4.71,2.57-.87,4.95-.88,7.3-.94,7.66-.21,15.12,1.14,22.49,3.08,14.05,3.69,27.57,8.84,40.35,15.7,18.07,9.7,31.31,24.14,39.78,42.79,3.77,8.29,7.13,16.76,10.39,25.26,2.15,5.61,3.37,11.5,3.78,17.52,.45,6.58-.9,12.72-4.69,18.22-1.09,1.58-2.21,3.14-3.31,4.71-.36,.52-.76,1.04-1.02,1.62-.6,1.31-.19,2.64,.94,3.36,1.09,.69,2.3,.56,3.27-.41,.39-.39,.71-.87,1.02-1.33,2.07-3.03,4.14-6.07,6.42-9.42Z"/><path class="cls-5" d="M945.37,339.15c-23.64-.15-46.41-4.62-67.96-14.42-7.03-3.2-13.59-7.44-20.34-11.24-3.27-1.84-6.69-3.52-9.68-5.75-3.37-2.52-6.57-5.36-9.45-8.43-11.64-12.46-19.06-27.32-23.98-43.51-5.14-16.92-7.1-34.25-6.24-51.88,.49-10.09,2.48-19.96,4.42-29.85,1.75-8.93,3.43-17.89,4.71-26.9,.72-5.04,.77-10.2,.75-15.31-.02-8.33-.03-16.62,1.72-24.83,3.46-16.21,12.02-29.08,25.32-38.87,9.58-7.04,20.29-11.78,31.54-15.38,9.84-3.15,19.89-5.53,30.14-6.73,6.64-.78,13.39-.63,20.1-.75,6.33-.12,12.62,.53,18.86,1.51,15.23,2.39,29.49,7.26,41.79,16.86,14.33,11.18,22.92,25.79,25.56,43.81,.78,5.33,2.77,10.14,5.65,14.64,3.57,5.58,8.26,10.14,13.04,14.65,12.49,11.77,23.94,24.44,33.31,38.9,10.77,16.62,17.72,34.68,20.27,54.35,1.66,12.83,1.12,25.53-2.82,37.96-5.25,16.52-15.56,29.19-29.73,38.88-9.28,6.35-19.46,11.02-29.74,15.45-16.14,6.97-32.86,12.01-50.24,14.74-7.13,1.12-17.71,2.22-26.99,2.12Zm-30.01-170.49c.04-13.61-10.5-26.67-26.75-26.62-16.78,.05-26.83,13.73-26.71,26.93,.13,14.56,12.06,26.53,26.66,26.55,14.87,.02,26.82-11.97,26.8-26.87Zm97.23-21.14c-.25-7.42-2.56-14.18-8.23-19.58-7.81-7.45-19.29-6.97-26.41,1.15-9.28,10.59-7.54,29.21,3.52,37.88,8.11,6.35,18.9,5.18,25.45-2.79,3.92-4.77,5.51-10.36,5.66-16.66Zm-36.24,130.4c-7.06,.02-11.39,1.54-14.72,4.51-2.75,2.46-4.25,5.49-4.28,9.26-.03,3.5,1.23,6.54,2.94,9.47,.04,.07,.07,.14,.12,.21,.7,.92,1.69,1.21,2.48,.67,.88-.6,.88-1.43,.48-2.33-.8-1.82-1.81-3.58-2.33-5.48-1-3.63,.06-6.77,2.88-9.29,5.3-4.73,15.4-5.32,20.89,.73,1.22,1.35,2.18,2.93,3.25,4.41,.75,1.03,1.6,1.32,2.41,.75,.83-.58,1.06-1.36,.56-2.29-.19-.35-.34-.72-.54-1.06-3.66-6.2-9.03-9.5-14.14-9.56Zm49.25-15.17c-3.17,0-5.89,.58-8.32,1.72-7.62,3.56-9.86,11.33-8.56,18.25,.19,.99,.75,1.59,1.79,1.55,.93-.04,1.56-.89,1.51-2.06-.03-.72-.21-1.42-.24-2.14-.18-4.28,.85-8.16,4.38-10.87,4.63-3.57,9.8-3.91,15.17-1.9,1.64,.61,2.79,1.9,3.45,3.49,.7,1.69,1.26,3.44,1.79,5.19,.44,1.45,.69,2.95,1.12,4.4,.26,.87,.97,1.26,1.87,1.1,.93-.17,1.32-.81,1.31-1.72,0-.32-.04-.64-.12-.95-.6-2.32-1.16-4.64-1.83-6.94-1.55-5.35-5.2-8.24-10.66-8.94-.95-.12-1.91-.13-2.67-.18Zm-3.54,20.26v-.05c2.47-.15,4.94-.25,7.4-.45,2.43-.2,3.54-1.65,3.23-4.07-.22-1.69-1.15-2.97-2.49-3.94-3.35-2.42-8.9-1.85-11.63,1.24-1.34,1.51-2.08,3.27-1.22,5.28,.85,1.99,2.66,2.05,4.47,2,.08,0,.16,0,.24-.01Zm-46.87,4.68c-3.18,0-6.3,1.76-7.64,4.44-1,1.99-.82,4.45,.48,5.84,1.52,1.62,3.34,1.23,5.1,.56,2.3-.87,4.58-1.82,6.83-2.81,2.45-1.08,2.99-3.01,1.49-5.22-1.43-2.1-3.53-2.86-6.26-2.81Z"/><path class="cls-4" d="M640.42,478.68c3.05,1.13,5.98,2.18,8.88,3.29,14.23,5.43,28.92,8.55,44.17,9.09,21.81,.77,43.01-2.69,63.77-9.14,16.86-5.24,32.88-12.41,48.28-21,.91-.51,1.81-1.01,2.79-1.56,.25,.23,.54,.39,.69,.64,7.21,12.27,14.53,24.48,21.55,36.85,2.71,4.78,4.78,9.93,7.06,14.94,.62,1.37,.94,2.89,1.44,4.32,.61,1.74,.5,3.22-.52,4.92-2.17,3.63-2.69,7.68-1.65,11.81,1.81,7.22,6.07,12.4,13.06,15.17,4.25,1.68,8.17,.95,11.65-2,1.58-1.34,3.07-2.79,4.81-4.38,.43,.53,1.03,1.33,1.69,2.07,3.15,3.54,7.57,4.28,10.9,1.67,1.17-.91,2.1-2.17,3.02-3.36,.62-.81,1.02-1.8,1.62-2.89,.44,.35,.84,.65,1.22,.98,2.04,1.76,4.36,2.1,6.68,.83,1.43-.79,2.76-1.92,3.85-3.15,2.32-2.61,3.75-5.78,4.68-9.1,1.29-4.61,2.51-9.25,3.51-13.93,1.84-8.55,.99-17.02-1.17-25.4-2.72-10.55-7.43-20.23-13.1-29.47-7.6-12.39-16.72-23.61-26.63-34.21-.6-.64-1.17-1.3-1.89-2.09,.52-.45,.94-.89,1.43-1.23,14.26-9.76,28.69-19.25,44.11-27.1,8.49-4.32,17.18-8.18,26.52-10.32,4.7-1.07,9.44-1.64,14.27-.8,5.95,1.03,10.26,4.22,13,9.56,2.04,3.96,3,8.24,3.51,12.64,1.12,9.54,.19,19-1.22,28.43-2.35,15.69-6.39,30.98-10.94,46.14-.66,2.2-1.71,4.3-2.71,6.39-8.11,16.92-17.57,33.02-29.12,47.85-16.03,20.59-35.36,37.3-58.21,49.97-21.69,12.02-44.28,21.83-68.29,28.23-17.21,4.59-34.69,7.35-52.48,8.25-10.95,.55-21.89,.18-32.83-.43-20.8-1.17-40.38-7.04-59.49-14.86-13.61-5.57-27.1-11.44-40.81-16.76-10.25-3.98-20.04-8.81-29.49-14.36-10.87-6.38-20.94-13.86-29.92-22.72-2.84-2.8-5.44-5.86-8.13-8.82-.3-.33-.5-.77-.86-1.33,2.01-.56,3.84-1.06,5.67-1.58,21.86-6.18,42.38-15.26,61.05-28.32,12.94-9.06,24.32-19.74,33.64-32.55,.23-.32,.48-.62,.92-1.18Z"/><path class="cls-5" d="M682.96,623.34c-.25,.42-.38,.71-.57,.96-4.75,6.23-6.95,13.4-7.8,21.08-.91,8.23-.27,16.43,.26,24.65,.4,6.22,.72,12.44,.78,18.67,.04,4.6-.83,9.05-3.75,12.88-1.12,1.47-.88,2.71,.57,3.98,2.55,2.25,3.4,5.13,3.19,8.4-.1,1.61-.72,2.97-2.33,3.62-1.71,.7-3.28,.43-4.69-.77-1.77-1.51-2.67-3.56-3.48-5.65-.32-.82-.47-1.7-.82-2.5-.53-1.23-1.67-1.76-2.94-1.5-1.19,.24-1.96,1.02-2.05,2.32-.1,1.27,.12,2.58-.09,3.82-.27,1.55-.63,3.15-1.33,4.54-.88,1.72-2.31,1.8-3.75,.47-1.43-1.32-2.06-3.04-2.19-4.92-.1-1.35-.02-2.71,0-4.06,.03-1.7-.7-2.8-2.05-3.08-1.43-.3-2.43,.3-3.17,1.89-1.05,2.24-2.01,4.53-3.17,6.71-.7,1.3-1.72,2.42-2.65,3.69-1.45-.94-1.81-2.2-2.17-3.38-1.01-3.31-1.37-6.71-1.3-10.18,.02-.89-.15-2.02-.69-2.64-3.48-3.96-5-8.76-5.74-13.76-1.05-7.1-1.83-14.26-2.44-21.42-1.05-12.34-1.9-24.7-4.6-36.82-2.63-11.8-6.8-22.96-13.8-32.94-.17-.25-.26-.55-.62-1.33,1.26,.46,2.13,.74,2.97,1.09,9.73,4.06,19.44,8.17,29.18,12.2,13.15,5.44,26.47,10.38,40.38,13.54,.22,.05,.41,.21,.86,.43Z"/><path class="cls-5" d="M786.9,265.4c-7.58,.55-15.06,.63-22.57,.43-1.4-3.68-1-7.12-.1-10.55,1.11-4.22,3.1-8.04,5.57-11.61,.41-.59,.89-1.14,1.25-1.76,1.21-2.06,0-4.11-2.41-4.09-.8,0-1.59,.17-2.38,.24-6.7,.63-13.4,.91-20.03-.66-.7-.17-1.38-.39-2.07-.59-2.48-.7-4.24-2.07-4.72-4.79-.19-1.09-.58-2.19-1.1-3.16-1.12-2.08-.87-4.14-.22-6.26,1.82-5.95,4.79-11.34,8.33-16.39,2.75-3.92,5.77-7.66,8.72-11.44,1.55-1.98,1.82-2.95,.85-4.25-.98-1.32-2.22-1.36-4.49-.13-4.29,2.34-8.63,4.54-13.35,5.89-1.51,.43-3.03,1.01-4.99,.47,.2-1.03,.29-2.03,.59-2.96,.67-2.13,1.5-4.22,2.17-6.35,3.78-11.93,1.69-23.03-4.83-33.48-.55-.88-1.1-1.76-1.64-2.65-.03-.05,.03-.15,.1-.41,1.98-.46,4-.15,5.98,.33,5.95,1.43,11.1,4.5,15.87,8.18,10.74,8.29,19.68,18.27,26.89,29.73,3.67,5.84,5.85,12.41,7.81,19.01,3.09,10.42,4.65,21.06,4.54,31.92-.08,8.18-1.19,16.25-3.32,24.16-.08,.3-.23,.59-.47,1.15Z"/><path class="cls-5" d="M980.28,399.96c1.86-.11,3.28-.26,4.71-.27,3.68-.04,7.36-.08,11.04,0,7.86,.18,14.74-2.43,20.91-7.13,2.09-1.59,2.28-2.21,1.44-4.7-1.26-3.72-2.38-7.49-2.19-11.47,.07-1.41,.27-2.9,.79-4.2,.97-2.48,3.13-3.31,5.69-2.51,1.9,.6,3.44,1.73,4.63,3.28,2.6,3.35,3.87,7.11,3.34,11.42-.18,1.42-.25,2.87-.2,4.3,.06,1.68,1,2.65,2.43,2.75,1.48,.11,2.51-.65,2.8-2.33,.28-1.65,.42-3.33,.47-5,.22-6.56,5.57-13.35,11.94-14.94,1.14-.28,2.39-.34,3.55-.22,2.04,.22,3.27,1.52,3.1,3.55-.14,1.71-.6,3.46-1.26,5.05-1.48,3.58-3.87,6.61-6.36,9.55-1.61,1.9-1.89,3.03-1.01,4.24,1.14,1.55,2.58,1.02,4.12,.71,3.12-.61,6.28-1.14,9.44-1.41,1.36-.11,2.86,.33,4.17,.86,2.02,.81,2.79,2.61,2.25,4.72-.6,2.33-1.98,4.17-3.78,5.71-4.05,3.45-8.85,4.65-14.03,4.61-2.89-.02-3.09,.03-4.33,2.71-1.51,3.26-3.89,5.84-6.52,8.2-5.46,4.89-11.6,8.81-18.16,11.99-7.9,3.84-15.96,7.35-23.92,11.08-5.14,2.4-10.18,5.01-15.33,7.38-3.33,1.53-6.78,2.8-10.2,4.14-.7,.27-1.5,.29-2.59,.49,4.39-17.69,8.7-35.02,13.05-52.55Z"/><path class="cls-3" d="M742.88,264.33c1.89-7.68,1.12-14.87-.45-22.09,3.5,.49,6.84,1.14,10.22,1.38,3.41,.24,6.85,.05,10.69,.05-3.68,6.93-6.18,13.9-4.77,21.99-5.31-.45-10.36-.88-15.7-1.33Z"/><path class="cls-2" d="M915.35,168.65c.02,14.9-11.93,26.89-26.8,26.87-14.6-.02-26.53-12-26.66-26.55-.12-13.2,9.93-26.89,26.71-26.93,16.25-.05,26.78,13.02,26.75,26.62Zm-41.82-12.81c-3.66,0-6.5,2.87-6.48,6.54,.02,3.55,2.82,6.37,6.37,6.41,3.64,.05,6.59-2.81,6.63-6.42,.04-3.6-2.89-6.53-6.51-6.53Z"/><path class="cls-2" d="M1012.58,147.51c-.16,6.3-1.74,11.89-5.66,16.66-6.55,7.98-17.34,9.15-25.45,2.79-11.07-8.67-12.8-27.29-3.52-37.88,7.11-8.12,18.59-8.6,26.41-1.15,5.67,5.4,7.98,12.16,8.23,19.58Zm-21.86-9.81c.09-3.68-2.66-6.64-6.33-6.81-3.52-.17-6.67,2.78-6.79,6.36-.13,3.75,2.75,6.82,6.46,6.9,3.62,.08,6.57-2.78,6.66-6.45Z"/><path class="cls-1" d="M976.34,277.91c5.11,.06,10.48,3.35,14.14,9.56,.2,.34,.36,.71,.54,1.06,.5,.93,.27,1.71-.56,2.29-.81,.57-1.66,.28-2.41-.75-1.08-1.48-2.03-3.07-3.25-4.41-5.49-6.05-15.59-5.45-20.89-.73-2.82,2.51-3.88,5.66-2.88,9.29,.52,1.9,1.54,3.66,2.33,5.48,.39,.89,.4,1.73-.48,2.33-.79,.54-1.79,.25-2.48-.67-.05-.06-.08-.14-.12-.21-1.71-2.93-2.97-5.97-2.94-9.47,.03-3.77,1.54-6.8,4.28-9.26,3.32-2.97,7.65-4.49,14.72-4.51Z"/><path class="cls-1" d="M1025.59,262.75c.76,.05,1.72,.06,2.67,.18,5.45,.7,9.11,3.59,10.66,8.94,.66,2.3,1.23,4.62,1.83,6.94,.08,.31,.11,.63,.12,.95,.02,.91-.37,1.56-1.31,1.72-.91,.16-1.62-.23-1.87-1.1-.43-1.45-.68-2.96-1.12-4.4-.53-1.75-1.09-3.5-1.79-5.19-.66-1.6-1.81-2.88-3.45-3.49-5.37-2.01-10.54-1.67-15.17,1.9-3.53,2.72-4.55,6.59-4.38,10.87,.03,.72,.22,1.42,.24,2.14,.04,1.17-.58,2.03-1.51,2.06-1.04,.04-1.6-.56-1.79-1.55-1.3-6.91,.94-14.69,8.56-18.25,2.43-1.14,5.15-1.72,8.32-1.72Z"/><path class="cls-1" d="M1022.05,283c-.08,0-.16,.01-.24,.01-1.81,.05-3.62-.01-4.47-2-.86-2.01-.12-3.77,1.22-5.28,2.73-3.09,8.28-3.67,11.63-1.24,1.34,.97,2.27,2.24,2.49,3.94,.31,2.41-.8,3.86-3.23,4.07-2.46,.21-4.94,.31-7.41,.45v.05Z"/><path class="cls-1" d="M975.18,287.68c2.73-.05,4.83,.71,6.26,2.81,1.5,2.21,.96,4.14-1.49,5.22-2.25,.99-4.53,1.94-6.83,2.81-1.76,.67-3.57,1.05-5.1-.56-1.3-1.38-1.48-3.84-.48-5.84,1.34-2.68,4.47-4.44,7.64-4.44Z"/><path class="cls-5" d="M874.29,155.25c3.62,0,6.55,2.93,6.51,6.53-.04,3.61-2.98,6.47-6.63,6.42-3.55-.04-6.34-2.86-6.37-6.41-.02-3.67,2.82-6.53,6.48-6.54Z"/><path class="cls-5" d="M990.72,140.39c-.09,3.67-3.03,6.53-6.66,6.45-3.71-.08-6.59-3.15-6.46-6.9,.12-3.58,3.27-6.53,6.79-6.36,3.67,.18,6.41,3.13,6.33,6.81Z"/></svg>